#Books_Preset_06_6139_3.obj

v -0.1704958 0 -0.04083573
v -0.1728829 0.01502109 -0.05018793
v -0.1728829 0.03968251 -0.05018793
v -0.1704958 0.05378962 -0.04083573
v -0.1186189 0.02689493 0.162361
v -0.1172182 0.05378962 0.1678441
v -0.1172182 0 0.1678441
v -0.1704958 0.05378962 -0.04083573
v 0.09835343 0.05378962 -0.109477
v 0.1516323 0.05378962 0.09920415
v -0.1172182 0.05378962 0.1678441
v 0.0959676 0.03968251 -0.1188278
v -0.1728829 0.03968251 -0.05018793
v 0.0959676 0.01502109 -0.1188278
v -0.1728829 0.01502109 -0.05018793
v 0.09835471 0 -0.1094756
v -0.1704958 0 -0.04083573
v -0.1186189 0.02689493 0.162361
v -0.1172182 0.05378962 0.1678441
v 0.1516323 0.05378962 0.09920415
v 0.1502316 0.02689493 0.09372111
v -0.1172182 0 0.1678441
v 0.1516323 0 0.09920415
v 0.09835471 0 -0.1094756
v 0.09835343 0.05378962 -0.109477
v 0.0959676 0.03968251 -0.1188278
v 0.0959676 0.01502109 -0.1188278
v 0.1502316 0.02689493 0.09372111
v 0.1516323 0 0.09920415
v 0.1516323 0.05378962 0.09920415
v -0.1329489 0.05436683 -0.05319618
v 0.09717236 0.05415952 -0.110352
v 0.1693746 0.05415952 -0.03352778
v -0.1813496 0.05415952 -0.01428994
v -0.04017022 0.05415952 0.1483595
v 0.03379667 0.01632583 -0.1775017
v 0.07773178 0.1113328 -0.1234228
v 0.07435991 0.09499192 -0.1300181
v 0.1772365 0.08321917 0.04857118
v 0.1796105 0.1113328 0.05406181
v 0.07515649 0.07144654 -0.1298818
v 0.07947242 0.05469751 -0.1231291
v 0.1813496 0.05469751 0.05435948
v -0.03706321 0.08321917 0.1717172
v -0.1399392 0.09499192 -0.006871392
v -0.1365658 0.1113328 -0.000280017
v -0.03468923 0.1113328 0.1772078
v -0.1391432 0.07144654 -0.006735748
v -0.1348279 0.05469751 1.624209E-05
v -0.03294859 0.05469751 0.1775015
v 0.07773178 0.1113328 -0.1234228
v 0.1796105 0.1113328 0.05406181
v -0.03468923 0.1113328 0.1772078
v -0.1365658 0.1113328 -0.000280017
v -0.1399392 0.09499192 -0.006871392
v 0.07435991 0.09499192 -0.1300181
v -0.1391432 0.07144654 -0.006735748
v 0.07515649 0.07144654 -0.1298818
v -0.1348279 0.05469751 1.624209E-05
v 0.07947242 0.05469751 -0.1231291
v -0.03468923 0.1113328 0.1772078
v 0.1796105 0.1113328 0.05406181
v 0.1772365 0.08321917 0.04857118
v -0.03706321 0.08321917 0.1717172
v 0.1813496 0.05469751 0.05435948
v -0.03294859 0.05469751 0.1775015

vn -0.4658203 0 0.8847656
vn -0.4658203 0 0.8847656
vn -0.4658203 0 0.8847656
vn -0.4658203 0 0.8847656
vn -0.4658203 0 0.8847656
vn -0.4658203 0 0.8847656
vn -0.4658203 0 0.8847656
vn -0.4128418 0.8842773 -0.2174072
vn -0.4128418 0.8842773 -0.2174072
vn 0 1 0
vn 0 1 0
vn -0.8452148 0.2954102 -0.4450684
vn -0.8452148 0.2954102 -0.4450684
vn -0.8491211 -0.2817383 -0.4470215
vn -0.8491211 -0.2817383 -0.4470215
vn -0.7446289 -0.5405273 -0.3920898
vn -0.7446289 -0.5405273 -0.3920898
vn 0.8847656 0 0.4658203
vn 0.8657227 -0.2059326 0.4558105
vn 0.8657227 -0.2059326 0.4558105
vn 0.8847656 0 0.4658203
vn 0.8657227 0.2059326 0.4558105
vn 0.8657227 0.2059326 0.4558105
vn 0.4658203 0 -0.8847656
vn 0.4658203 0 -0.8847656
vn 0.4658203 0 -0.8847656
vn 0.4658203 0 -0.8847656
vn 0.4658203 0 -0.8847656
vn 0.4658203 0 -0.8847656
vn 0.4658203 0 -0.8847656
vn -0.0519104 0.9980469 -0.0279541
vn -0.1322021 0.9887695 -0.07104492
vn 0.0005960464 1 0.0002539158
vn 0.0005960464 1 0.0002539158
vn 0.0005960464 1 0.0002539158
vn -0.3752441 0.9047852 -0.2016602
vn 0.211792 0.02322388 -0.9770508
vn 0.211792 0.02502441 -0.9770508
vn 0.211792 0.02348328 -0.9770508
vn 0.211792 0.02322388 -0.9770508
vn 0.2119141 0.02520752 -0.9770508
vn 0.2119141 0.02354431 -0.9770508
vn 0.2119141 0.02354431 -0.9770508
vn -0.211792 -0.02349854 0.9770508
vn -0.211792 -0.02500916 0.9770508
vn -0.211792 -0.02320862 0.9770508
vn -0.211792 -0.02320862 0.9770508
vn -0.2119141 -0.02520752 0.9770508
vn -0.2119141 -0.02357483 0.9770508
vn -0.2119141 -0.02357483 0.9770508
vn -0.5332031 0.8378906 -0.1153564
vn 0 1 0
vn 0 1 0
vn -0.5263672 0.8427734 -0.1138916
vn -0.9570313 0.2034912 -0.2070313
vn -0.9580078 0.1968994 -0.2072754
vn -0.9516602 -0.2286377 -0.2058105
vn -0.9501953 -0.2348633 -0.2055664
vn -0.8818359 -0.4311523 -0.1907959
vn -0.8818359 -0.4311523 -0.1907959
vn 0.9560547 -0.2069092 0.2069092
vn 0.9560547 -0.2069092 0.2069092
vn 0.9770508 0.02069092 0.2114258
vn 0.9770508 0.01384735 0.2114258
vn 0.9487305 0.2404785 0.2052002
vn 0.9487305 0.2404785 0.2052002

vt 0.3056641 0.6943359
vt 0.3017578 0.7001953
vt 0.3017578 0.7099609
vt 0.3056641 0.715332
vt 0.390625 0.7050781
vt 0.3930664 0.715332
vt 0.3930664 0.6943359
vt 0.3056641 0.715332
vt 0.3056641 0.8276367
vt 0.3930664 0.8276367
vt 0.3930664 0.715332
vt 0.2990723 0.8276367
vt 0.2990723 0.715332
vt 0.2895508 0.8276367
vt 0.2895508 0.715332
vt 0.2824707 0.8276367
vt 0.2824707 0.715332
vt 0.4035645 0.715332
vt 0.3930664 0.715332
vt 0.3930664 0.8276367
vt 0.4035645 0.8276367
vt 0.4143066 0.715332
vt 0.4143066 0.8276367
vt 0.3056641 0.6943359
vt 0.3056641 0.715332
vt 0.3017578 0.7099609
vt 0.3017578 0.7001953
vt 0.390625 0.7050781
vt 0.3930664 0.6943359
vt 0.3930664 0.715332
vt 0.4255371 0.7402344
vt 0.4692383 0.8256836
vt 0.5117188 0.8276367
vt 0.4245605 0.715332
vt 0.5117188 0.715332
vt 0.4245605 0.8276367
vt 0.03530884 0.8676758
vt 0.03140259 0.8598633
vt 0.1358643 0.8535156
vt 0.1391602 0.8676758
vt 0.03140259 0.8466797
vt 0.03530884 0.8388672
vt 0.1391602 0.8388672
vt 0.1358643 0.8535156
vt 0.03140259 0.8598633
vt 0.03530884 0.8676758
vt 0.1391602 0.8676758
vt 0.03140259 0.8466797
vt 0.03530884 0.8388672
vt 0.1391602 0.8388672
vt 0.03530884 0.9931641
vt 0.1391602 0.9931641
vt 0.1391602 0.8676758
vt 0.03530884 0.8676758
vt 0.02682495 0.8676758
vt 0.02682495 0.9931641
vt 0.01363373 0.8676758
vt 0.01363373 0.9931641
vt 0.004707336 0.8676758
vt 0.004707336 0.9931641
vt 0.1391602 0.8676758
vt 0.1391602 0.9931641
vt 0.1540527 0.9931641
vt 0.1540527 0.8676758
vt 0.1690674 0.9931641
vt 0.1690674 0.8676758

g Books_Preset_06_6139_3
usemtl Books_Preset_06_6139_3
usemap Books_Preset_06_6139_3
f 1/1/1 3/3/3 2/2/2
f 1/1/1 4/4/4 3/3/3
f 1/1/1 5/5/5 4/4/4
f 4/4/4 5/5/5 6/6/6
f 1/1/1 7/7/7 5/5/5
f 8/8/8 10/10/10 9/9/9
f 8/8/8 11/11/11 10/10/10
f 12/12/12 8/8/8 9/9/9
f 12/12/12 13/13/13 8/8/8
f 14/14/14 13/13/13 12/12/12
f 14/14/14 15/15/15 13/13/13
f 16/16/16 15/15/15 14/14/14
f 16/16/16 17/17/17 15/15/15
f 18/18/18 20/20/20 19/19/19
f 18/18/18 21/21/21 20/20/20
f 22/22/22 21/21/21 18/18/18
f 22/22/22 23/23/23 21/21/21
f 24/24/24 26/26/26 25/25/25
f 24/24/24 27/27/27 26/26/26
f 24/24/24 25/25/25 28/28/28
f 24/24/24 28/28/28 29/29/29
f 28/28/28 25/25/25 30/30/30
f 31/31/31 33/33/33 32/32/32
f 33/33/33 31/31/31 34/34/34
f 33/33/33 34/34/34 35/35/35
f 31/31/31 32/32/32 36/36/36
f 37/37/37 39/39/39 38/38/38
f 37/37/37 40/40/40 39/39/39
f 38/38/38 39/39/39 41/41/41
f 39/39/39 42/42/42 41/41/41
f 39/39/39 43/43/43 42/42/42
f 44/44/44 46/46/46 45/45/45
f 44/44/44 47/47/47 46/46/46
f 48/48/48 44/44/44 45/45/45
f 49/49/49 44/44/44 48/48/48
f 49/49/49 50/50/50 44/44/44
f 51/51/51 53/53/53 52/52/52
f 51/51/51 54/54/54 53/53/53
f 51/51/51 55/55/55 54/54/54
f 51/51/51 56/56/56 55/55/55
f 56/56/56 57/57/57 55/55/55
f 56/56/56 58/58/58 57/57/57
f 58/58/58 59/59/59 57/57/57
f 58/58/58 60/60/60 59/59/59
f 61/61/61 63/63/63 62/62/62
f 61/61/61 64/64/64 63/63/63
f 64/64/64 65/65/65 63/63/63
f 64/64/64 66/66/66 65/65/65
