#Books_Preset_06_3164_6.obj

v -0.1704951 0 -0.04083552
v -0.1728828 0.01502109 -0.05018844
v -0.1728828 0.03968251 -0.05018844
v -0.1704951 0.05378962 -0.04083552
v -0.1186181 0.02689493 0.1623621
v -0.1172168 0.05378962 0.1678458
v -0.1172168 0 0.1678458
v -0.1704951 0.05378962 -0.04083552
v 0.09835375 0.05378962 -0.1094768
v 0.151632 0.05378962 0.09920459
v -0.1172168 0.05378962 0.1678458
v 0.09596859 0.03968251 -0.1188268
v -0.1728828 0.03968251 -0.05018844
v 0.09596859 0.01502109 -0.1188268
v -0.1728828 0.01502109 -0.05018844
v 0.09835375 0 -0.1094768
v -0.1704951 0 -0.04083552
v -0.1186181 0.02689493 0.1623621
v -0.1172168 0.05378962 0.1678458
v 0.151632 0.05378962 0.09920459
v 0.1502307 0.02689493 0.09372084
v -0.1172168 0 0.1678458
v 0.151632 0 0.09920459
v 0.09835375 0 -0.1094768
v 0.09835375 0.05378962 -0.1094768
v 0.09596859 0.03968251 -0.1188268
v 0.09596859 0.01502109 -0.1188268
v 0.1502307 0.02689493 0.09372084
v 0.151632 0 0.09920459
v 0.151632 0.05378962 0.09920459
v -0.1329487 0.05436683 -0.05319657
v 0.09717204 0.05415952 -0.1103525
v 0.169374 0.05415952 -0.03352799
v -0.1813483 0.05415952 -0.01428906
v -0.04017002 0.05415952 0.1483601
v 0.03379655 0.01632583 -0.1775023
v 0.07773086 0.1113328 -0.123424
v 0.07436029 0.09499192 -0.1300179
v 0.1772379 0.08321917 0.04856772
v 0.179611 0.1113328 0.05406304
v 0.07515559 0.07144654 -0.129883
v 0.07947151 0.05469751 -0.1231303
v 0.1813488 0.05469751 0.05435931
v -0.03705961 0.08321917 0.171716
v -0.1399398 0.09499192 -0.00687251
v -0.1365664 0.1113328 -0.0002811247
v -0.03468628 0.1113328 0.1772059
v -0.1391419 0.07144654 -0.00673474
v -0.1348286 0.05469751 1.513941E-05
v -0.03294847 0.05469751 0.1775022
v 0.07773086 0.1113328 -0.123424
v 0.179611 0.1113328 0.05406304
v -0.03468628 0.1113328 0.1772059
v -0.1365664 0.1113328 -0.0002811247
v -0.1399398 0.09499192 -0.00687251
v 0.07436029 0.09499192 -0.1300179
v -0.1391419 0.07144654 -0.00673474
v 0.07515559 0.07144654 -0.129883
v -0.1348286 0.05469751 1.513941E-05
v 0.07947151 0.05469751 -0.1231303
v -0.03468628 0.1113328 0.1772059
v 0.179611 0.1113328 0.05406304
v 0.1772379 0.08321917 0.04856772
v -0.03705961 0.08321917 0.171716
v 0.1813488 0.05469751 0.05435931
v -0.03294847 0.05469751 0.1775022

vn -0.8847656 0 -0.4658203
vn -0.8847656 0 -0.4658203
vn -0.8847656 0 -0.4658203
vn -0.8847656 0 -0.4658203
vn -0.8847656 0 -0.4658203
vn -0.8847656 0 -0.4658203
vn -0.8847656 0 -0.4658203
vn 0.2174072 0.8842773 -0.4128418
vn 0.2174072 0.8842773 -0.4128418
vn 0 1 0
vn 0 1 0
vn 0.4450684 0.2954102 -0.8452148
vn 0.4450684 0.2954102 -0.8452148
vn 0.4470215 -0.2817383 -0.8491211
vn 0.4470215 -0.2817383 -0.8491211
vn 0.3920898 -0.5405273 -0.7446289
vn 0.3920898 -0.5405273 -0.7446289
vn -0.4658203 0 0.8847656
vn -0.4558105 -0.2059326 0.8657227
vn -0.4558105 -0.2059326 0.8657227
vn -0.4658203 0 0.8847656
vn -0.4558105 0.2059326 0.8657227
vn -0.4558105 0.2059326 0.8657227
vn 0.8847656 0 0.4658203
vn 0.8847656 0 0.4658203
vn 0.8847656 0 0.4658203
vn 0.8847656 0 0.4658203
vn 0.8847656 0 0.4658203
vn 0.8847656 0 0.4658203
vn 0.8847656 0 0.4658203
vn 0.0279541 0.9980469 -0.0519104
vn 0.07104492 0.9887695 -0.1322021
vn -0.0002539158 1 0.0005960464
vn -0.0002539158 1 0.0005960464
vn -0.0002539158 1 0.0005960464
vn 0.2016602 0.9047852 -0.3752441
vn 0.9770508 0.02322388 0.211792
vn 0.9770508 0.02502441 0.211792
vn 0.9770508 0.02348328 0.211792
vn 0.9770508 0.02322388 0.211792
vn 0.9770508 0.02520752 0.2119141
vn 0.9770508 0.02354431 0.2119141
vn 0.9770508 0.02354431 0.2119141
vn -0.9770508 -0.02349854 -0.211792
vn -0.9770508 -0.02500916 -0.211792
vn -0.9770508 -0.02320862 -0.211792
vn -0.9770508 -0.02320862 -0.211792
vn -0.9770508 -0.02520752 -0.2119141
vn -0.9770508 -0.02357483 -0.2119141
vn -0.9770508 -0.02357483 -0.2119141
vn 0.1153564 0.8378906 -0.5332031
vn 0 1 0
vn 0 1 0
vn 0.1138916 0.8427734 -0.5263672
vn 0.2070313 0.2034912 -0.9570313
vn 0.2072754 0.1968994 -0.9580078
vn 0.2058105 -0.2286377 -0.9516602
vn 0.2055664 -0.2348633 -0.9501953
vn 0.1907959 -0.4311523 -0.8818359
vn 0.1907959 -0.4311523 -0.8818359
vn -0.2069092 -0.2069092 0.9560547
vn -0.2069092 -0.2069092 0.9560547
vn -0.2114258 0.02069092 0.9770508
vn -0.2114258 0.01384735 0.9770508
vn -0.2052002 0.2404785 0.9487305
vn -0.2052002 0.2404785 0.9487305

vt 0.3056641 0.6943359
vt 0.3017578 0.7001953
vt 0.3017578 0.7099609
vt 0.3056641 0.715332
vt 0.390625 0.7050781
vt 0.3930664 0.715332
vt 0.3930664 0.6943359
vt 0.3056641 0.715332
vt 0.3056641 0.8276367
vt 0.3930664 0.8276367
vt 0.3930664 0.715332
vt 0.2990723 0.8276367
vt 0.2990723 0.715332
vt 0.2895508 0.8276367
vt 0.2895508 0.715332
vt 0.2824707 0.8276367
vt 0.2824707 0.715332
vt 0.4035645 0.715332
vt 0.3930664 0.715332
vt 0.3930664 0.8276367
vt 0.4035645 0.8276367
vt 0.4143066 0.715332
vt 0.4143066 0.8276367
vt 0.3056641 0.6943359
vt 0.3056641 0.715332
vt 0.3017578 0.7099609
vt 0.3017578 0.7001953
vt 0.390625 0.7050781
vt 0.3930664 0.6943359
vt 0.3930664 0.715332
vt 0.4255371 0.7402344
vt 0.4692383 0.8256836
vt 0.5117188 0.8276367
vt 0.4245605 0.715332
vt 0.5117188 0.715332
vt 0.4245605 0.8276367
vt 0.03530884 0.8676758
vt 0.03140259 0.8598633
vt 0.1358643 0.8535156
vt 0.1391602 0.8676758
vt 0.03140259 0.8466797
vt 0.03530884 0.8388672
vt 0.1391602 0.8388672
vt 0.1358643 0.8535156
vt 0.03140259 0.8598633
vt 0.03530884 0.8676758
vt 0.1391602 0.8676758
vt 0.03140259 0.8466797
vt 0.03530884 0.8388672
vt 0.1391602 0.8388672
vt 0.03530884 0.9931641
vt 0.1391602 0.9931641
vt 0.1391602 0.8676758
vt 0.03530884 0.8676758
vt 0.02682495 0.8676758
vt 0.02682495 0.9931641
vt 0.01363373 0.8676758
vt 0.01363373 0.9931641
vt 0.004707336 0.8676758
vt 0.004707336 0.9931641
vt 0.1391602 0.8676758
vt 0.1391602 0.9931641
vt 0.1540527 0.9931641
vt 0.1540527 0.8676758
vt 0.1690674 0.9931641
vt 0.1690674 0.8676758

g Books_Preset_06_3164_6
usemtl Books_Preset_06_3164_6
usemap Books_Preset_06_3164_6
f 1/1/1 3/3/3 2/2/2
f 1/1/1 4/4/4 3/3/3
f 1/1/1 5/5/5 4/4/4
f 4/4/4 5/5/5 6/6/6
f 1/1/1 7/7/7 5/5/5
f 8/8/8 10/10/10 9/9/9
f 8/8/8 11/11/11 10/10/10
f 12/12/12 8/8/8 9/9/9
f 12/12/12 13/13/13 8/8/8
f 14/14/14 13/13/13 12/12/12
f 14/14/14 15/15/15 13/13/13
f 16/16/16 15/15/15 14/14/14
f 16/16/16 17/17/17 15/15/15
f 18/18/18 20/20/20 19/19/19
f 18/18/18 21/21/21 20/20/20
f 22/22/22 21/21/21 18/18/18
f 22/22/22 23/23/23 21/21/21
f 24/24/24 26/26/26 25/25/25
f 24/24/24 27/27/27 26/26/26
f 24/24/24 25/25/25 28/28/28
f 24/24/24 28/28/28 29/29/29
f 28/28/28 25/25/25 30/30/30
f 31/31/31 33/33/33 32/32/32
f 33/33/33 31/31/31 34/34/34
f 33/33/33 34/34/34 35/35/35
f 31/31/31 32/32/32 36/36/36
f 37/37/37 39/39/39 38/38/38
f 37/37/37 40/40/40 39/39/39
f 38/38/38 39/39/39 41/41/41
f 39/39/39 42/42/42 41/41/41
f 39/39/39 43/43/43 42/42/42
f 44/44/44 46/46/46 45/45/45
f 44/44/44 47/47/47 46/46/46
f 48/48/48 44/44/44 45/45/45
f 49/49/49 44/44/44 48/48/48
f 49/49/49 50/50/50 44/44/44
f 51/51/51 53/53/53 52/52/52
f 51/51/51 54/54/54 53/53/53
f 51/51/51 55/55/55 54/54/54
f 51/51/51 56/56/56 55/55/55
f 56/56/56 57/57/57 55/55/55
f 56/56/56 58/58/58 57/57/57
f 58/58/58 59/59/59 57/57/57
f 58/58/58 60/60/60 59/59/59
f 61/61/61 63/63/63 62/62/62
f 61/61/61 64/64/64 63/63/63
f 64/64/64 65/65/65 63/63/63
f 64/64/64 66/66/66 65/65/65
