#Book_01_4433_111.obj

v -0.1434094 0 0.1040041
v 0.1434107 0 0.1040042
v 0.1434102 0 -0.09508175
v -0.143409 0 -0.09508261
v 0.1434102 0.04180908 -0.09508175
v 0.1434102 0 -0.09508175
v 0.1434095 0.02090454 0.09876888
v 0.1434107 0 0.1040042
v 0.14341 0.01167536 -0.1040045
v 0.14341 0.03084421 -0.1040045
v 0.1434107 0.04180908 0.1040042
v -0.1434094 0 0.1040041
v -0.143409 0 -0.09508261
v -0.1434107 0.02090454 0.0987687
v -0.143409 0.04180908 -0.09508261
v -0.1434094 0.04180908 0.1040041
v -0.1434101 0.01167536 -0.1040047
v -0.1434101 0.03084421 -0.1040047
v 0.1434102 0.04180908 -0.09508175
v 0.1434107 0.04180908 0.1040042
v -0.1434094 0.04180908 0.1040041
v -0.143409 0.04180908 -0.09508261
v -0.1434101 0.03084421 -0.1040047
v 0.14341 0.03084421 -0.1040045
v -0.1434101 0.01167536 -0.1040047
v 0.14341 0.01167536 -0.1040045
v -0.143409 0 -0.09508261
v 0.1434102 0 -0.09508175
v -0.1434094 0.04180908 0.1040041
v 0.1434107 0.04180908 0.1040042
v 0.1434095 0.02090454 0.09876888
v -0.1434107 0.02090454 0.0987687
v 0.1434107 0 0.1040042
v -0.1434094 0 0.1040041

vn 0 -1 0
vn 0 -1 0
vn 0 -1 0
vn 0 -1 0
vn 0.7924805 0 0.6098633
vn 0.7924805 0 0.6098633
vn 0.7924805 0 0.6098633
vn 0.7924805 0 0.6098633
vn 0.7924805 0 0.6098633
vn 0.7924805 0 0.6098633
vn 0.7924805 0 0.6098633
vn -0.7924805 0 -0.6098633
vn -0.7924805 0 -0.6098633
vn -0.7924805 0 -0.6098633
vn -0.7924805 0 -0.6098633
vn -0.7924805 0 -0.6098633
vn -0.7924805 0 -0.6098633
vn -0.7924805 0 -0.6098633
vn 0.2619629 0.9033203 -0.340332
vn 0 1 0
vn 0 1 0
vn 0.2619629 0.9033203 -0.340332
vn 0.574707 0.3349609 -0.7470703
vn 0.574707 0.3349609 -0.7470703
vn 0.5776367 -0.3205566 -0.7509766
vn 0.5776367 -0.3205566 -0.7509766
vn 0.484375 -0.6069336 -0.6298828
vn 0.484375 -0.6069336 -0.6298828
vn -0.5913086 -0.2429199 0.769043
vn -0.5913086 -0.2429199 0.769043
vn -0.6098633 0 0.7924805
vn -0.6098633 0 0.7924805
vn -0.5913086 0.2429199 0.769043
vn -0.5913086 0.2429199 0.769043

vt 0.1061401 0.7119141
vt 0.1061401 0.828125
vt 0.0255127 0.828125
vt 0.0255127 0.7119141
vt 0.0255127 0.7119141
vt 0.0255127 0.6948242
vt 0.1040039 0.7036133
vt 0.1061401 0.6948242
vt 0.02191162 0.699707
vt 0.02191162 0.7075195
vt 0.1061401 0.7119141
vt 0.1061401 0.6948242
vt 0.0255127 0.6948242
vt 0.1040039 0.7036133
vt 0.0255127 0.7119141
vt 0.1061401 0.7119141
vt 0.02191162 0.699707
vt 0.02191162 0.7075195
vt 0.0255127 0.828125
vt 0.1061401 0.828125
vt 0.1061401 0.7119141
vt 0.0255127 0.7119141
vt 0.01979065 0.7119141
vt 0.01979065 0.828125
vt 0.01203156 0.7119141
vt 0.01203156 0.828125
vt 0.006084442 0.7119141
vt 0.006084442 0.828125
vt 0.1061401 0.7119141
vt 0.1061401 0.828125
vt 0.1148682 0.828125
vt 0.1148682 0.7119141
vt 0.1235962 0.828125
vt 0.1235962 0.7119141

g Book_01_4433_111
usemtl Book_01_4433_111
usemap Book_01_4433_111
f 1/1/1 3/3/3 2/2/2
f 1/1/1 4/4/4 3/3/3
f 5/5/5 7/7/7 6/6/6
f 8/8/8 6/6/6 7/7/7
f 5/5/5 6/6/6 9/9/9
f 5/5/5 9/9/9 10/10/10
f 5/5/5 11/11/11 7/7/7
f 12/12/12 14/14/14 13/13/13
f 14/14/14 15/15/15 13/13/13
f 14/14/14 16/16/16 15/15/15
f 17/17/17 13/13/13 15/15/15
f 17/17/17 15/15/15 18/18/18
f 19/19/19 21/21/21 20/20/20
f 19/19/19 22/22/22 21/21/21
f 19/19/19 23/23/23 22/22/22
f 19/19/19 24/24/24 23/23/23
f 24/24/24 25/25/25 23/23/23
f 24/24/24 26/26/26 25/25/25
f 26/26/26 27/27/27 25/25/25
f 26/26/26 28/28/28 27/27/27
f 29/29/29 31/31/31 30/30/30
f 29/29/29 32/32/32 31/31/31
f 32/32/32 33/33/33 31/31/31
f 32/32/32 34/34/34 33/33/33
