#Bucket_01_6239_78.obj

v -1.838616E-07 0 -0.1209327
v 5.000377E-07 0.2666049 -0.1569293
v -0.09224176 0.2666049 -0.1269585
v -0.07108255 0 -0.09783828
v -0.1492485 0.2666049 -0.04849318
v -0.1150151 0 -0.03737038
v -0.1492476 0.2666049 0.0484942
v -0.1150151 0 0.03737082
v -0.09224089 0.2666049 0.1269584
v -0.07108333 0 0.09783726
v -5.000377E-07 0.2666049 0.1569293
v 5.904142E-07 0 0.120933
v -0.1492482 0.3045174 0.03189684
v -0.1492483 0.3045174 -0.03189607
v -0.07108255 0 -0.09783828
v 0 0 0
v -1.838616E-07 0 -0.1209327
v -0.1150151 0 -0.03737038
v -0.1150151 0 0.03737082
v -0.07108333 0 0.09783726
v 5.904142E-07 0 0.120933
v 1.955717E-07 0.02157199 -0.1002752
v 0 0.02157199 0
v -0.05893918 0.02157199 -0.08112288
v -0.095367 0.02157199 -0.0309879
v -0.09536727 0.02157199 0.03098604
v -0.05893905 0.02157199 0.08112439
v -1.197289E-08 0.02157199 0.1002731
v 5.000377E-07 0.2666049 -0.1569293
v 4.052697E-07 0.2666049 -0.1265967
v -0.07441099 0.2666049 -0.1024196
v -0.09224176 0.2666049 -0.1269585
v -0.1204015 0.2666049 -0.03912139
v -0.1492485 0.2666049 -0.04849318
v -0.1492483 0.3045174 -0.03189607
v -0.120401 0.3045174 -0.02573212
v -0.1204013 0.3045174 0.02572975
v -0.1492482 0.3045174 0.03189684
v -0.1492476 0.2666049 0.0484942
v -0.1204018 0.2666049 0.03912066
v -0.07441167 0.2666049 0.1024191
v -0.09224089 0.2666049 0.1269584
v 1.282845E-09 0.2666049 0.1265969
v -5.000377E-07 0.2666049 0.1569293
v 4.052697E-07 0.2666049 -0.1265967
v 1.955717E-07 0.02157199 -0.1002752
v -0.05893918 0.02157199 -0.08112288
v -0.07441099 0.2666049 -0.1024196
v -0.095367 0.02157199 -0.0309879
v -0.1204015 0.2666049 -0.03912139
v -0.09536727 0.02157199 0.03098604
v -0.1204018 0.2666049 0.03912066
v -0.05893905 0.02157199 0.08112439
v -0.07441167 0.2666049 0.1024191
v -1.197289E-08 0.02157199 0.1002731
v 1.282845E-09 0.2666049 0.1265969
v -0.120401 0.3045174 -0.02573212
v -0.1204013 0.3045174 0.02572975
v -0.1492476 0.2666049 0.0484942
v -0.1492482 0.3045174 0.03189684
v -0.1204013 0.3045174 0.02572975
v -0.1204013 0.3045174 0.02572975
v -0.1204018 0.2666049 0.03912066
v -0.1204015 0.2666049 -0.03912139
v -0.120401 0.3045174 -0.02573212
v -0.1492483 0.3045174 -0.03189607
v -0.1492483 0.3045174 -0.03189607
v -0.1492485 0.2666049 -0.04849318
v -1.838616E-07 0 -0.1209327
v 0.07108293 0 -0.09783751
v 0.09224089 0.2666049 -0.1269584
v 5.000377E-07 0.2666049 -0.1569293
v 0.1492476 0.2666049 -0.0484942
v 0.1150155 0 -0.03737057
v 0.1150155 0 -0.03737057
v 0.1150155 0 0.03737063
v 0.1492479 0.2666049 0.04849506
v 0.1492476 0.2666049 -0.0484942
v 0.09224176 0.2666049 0.1269585
v 0.07108355 0 0.09783666
v -5.000377E-07 0.2666049 0.1569293
v 5.904142E-07 0 0.120933
v 0.1492483 0.3045174 0.03189607
v 0.1492482 0.3045174 -0.03189684
v 0.07108293 0 -0.09783751
v -1.838616E-07 0 -0.1209327
v 0 0 0
v 0.1150155 0 -0.03737057
v 0.1150155 0 0.03737063
v 0.07108355 0 0.09783666
v 5.904142E-07 0 0.120933
v 1.955717E-07 0.02157199 -0.1002752
v 0.05893946 0.02157199 -0.08112414
v 0 0.02157199 0
v 0.09536786 0.02157199 -0.03098792
v 0.0953676 0.02157199 0.03098602
v 0.05893878 0.02157199 0.08112263
v -1.197289E-08 0.02157199 0.1002731
v 5.000377E-07 0.2666049 -0.1569293
v 0.09224089 0.2666049 -0.1269584
v 0.07441127 0.2666049 -0.1024194
v 4.052697E-07 0.2666049 -0.1265967
v 0.1204014 0.2666049 -0.03912091
v 0.1492476 0.2666049 -0.0484942
v 0.1492482 0.3045174 -0.03189684
v 0.1492483 0.3045174 0.03189607
v 0.1204016 0.3045174 0.02573024
v 0.120401 0.3045174 -0.02573213
v 0.1492479 0.2666049 0.04849506
v 0.09224176 0.2666049 0.1269585
v 0.07441199 0.2666049 0.102418
v 0.1204021 0.2666049 0.03911952
v 1.282845E-09 0.2666049 0.1265969
v -5.000377E-07 0.2666049 0.1569293
v 4.052697E-07 0.2666049 -0.1265967
v 0.07441127 0.2666049 -0.1024194
v 0.05893946 0.02157199 -0.08112414
v 1.955717E-07 0.02157199 -0.1002752
v 0.09536786 0.02157199 -0.03098792
v 0.1204014 0.2666049 -0.03912091
v 0.1204014 0.2666049 -0.03912091
v 0.1204021 0.2666049 0.03911952
v 0.0953676 0.02157199 0.03098602
v 0.09536786 0.02157199 -0.03098792
v 0.05893878 0.02157199 0.08112263
v 0.07441199 0.2666049 0.102418
v -1.197289E-08 0.02157199 0.1002731
v 1.282845E-09 0.2666049 0.1265969
v 0.120401 0.3045174 -0.02573213
v 0.1204016 0.3045174 0.02573024
v 0.1492479 0.2666049 0.04849506
v 0.1204021 0.2666049 0.03911952
v 0.1204016 0.3045174 0.02573024
v 0.1204016 0.3045174 0.02573024
v 0.1492483 0.3045174 0.03189607
v 0.1204014 0.2666049 -0.03912091
v 0.1492476 0.2666049 -0.0484942
v 0.1492482 0.3045174 -0.03189684
v 0.1492482 0.3045174 -0.03189684
v 0.120401 0.3045174 -0.02573213

vn -0.5180664 -0.1337891 -0.8447266
vn -0.5180664 -0.1337891 -0.8447266
vn -0.9155273 -0.1337891 -0.3791504
vn -0.9155273 -0.1337891 -0.3791504
vn -0.9433594 -0.09686279 0.3181152
vn -0.9633789 -0.1337891 0.2314453
vn -0.7114258 -0.09686279 0.6962891
vn -0.6435547 -0.1337891 0.753418
vn -0.07769775 -0.1337891 0.987793
vn -0.07769775 -0.1337891 0.987793
vn 0.5180664 -0.1337891 0.8447266
vn 0.5180664 -0.1337891 0.8447266
vn -0.8525391 0 0.5224609
vn -0.8525391 0 0.5224609
vn 0 -1 0
vn 0 -1 0
vn 0 -1 0
vn 0 -1 0
vn 0 -1 0
vn 0 -1 0
vn 0 -1 0
vn 0 1 0
vn 0 1 0
vn 0 1 0
vn 0 1 0
vn 0 1 0
vn 0 1 0
vn 0 1 0
vn 0 1 0
vn 0 1 0
vn 0 1 0
vn 0 1 0
vn 0 1 0
vn 0 1 0
vn 0 1 0
vn 0 1 0
vn 0 1 0
vn 0 1 0
vn 0 1 0
vn 0 1 0
vn 0 1 0
vn 0 1 0
vn 0 1 0
vn 0 1 0
vn 0.5195313 0.1068115 0.8476563
vn 0.5195313 0.1068115 0.8476563
vn 0.918457 0.1068115 0.3803711
vn 0.918457 0.1068115 0.3803711
vn 0.9667969 0.1068115 -0.2321777
vn 0.9438477 0.0760498 -0.3217773
vn 0.6455078 0.1068115 -0.7563477
vn 0.715332 0.0760498 -0.6948242
vn 0.07794189 0.1068115 -0.9912109
vn 0.07794189 0.1068115 -0.9912109
vn -0.5195313 0.1068115 -0.8476563
vn -0.5195313 0.1068115 -0.8476563
vn 0.8525391 0 -0.5224609
vn 0.8525391 0 -0.5224609
vn 0.6787109 0.3566895 0.6420898
vn 0.6787109 0.3566895 0.6420898
vn 0.6787109 0.3566895 0.6420898
vn 0.6787109 0.3566895 0.6420898
vn 0.6787109 0.3566895 0.6420898
vn -0.2641602 0.3566895 -0.8959961
vn -0.2641602 0.3566895 -0.8959961
vn -0.2641602 0.3566895 -0.8959961
vn -0.2641602 0.3566895 -0.8959961
vn -0.2641602 0.3566895 -0.8959961
vn -0.5180664 -0.1337891 -0.8447266
vn 0.07769775 -0.1337891 -0.987793
vn 0.07769775 -0.1337891 -0.987793
vn -0.5180664 -0.1337891 -0.8447266
vn 0.7114258 -0.09686279 -0.6962891
vn 0.6435547 -0.1337891 -0.753418
vn 0.6435547 -0.1337891 -0.753418
vn 0.9633789 -0.1337891 -0.2314453
vn 0.9433594 -0.09686279 -0.3181152
vn 0.7114258 -0.09686279 -0.6962891
vn 0.9155273 -0.1337891 0.3791504
vn 0.9155273 -0.1337891 0.3791504
vn 0.5180664 -0.1337891 0.8447266
vn 0.5180664 -0.1337891 0.8447266
vn 0.8525391 0 -0.5224609
vn 0.8525391 0 -0.5224609
vn 0 -1 0
vn 0 -1 0
vn 0 -1 0
vn 0 -1 0
vn 0 -1 0
vn 0 -1 0
vn 0 -1 0
vn 0 1 0
vn 0 1 0
vn 0 1 0
vn 0 1 0
vn 0 1 0
vn 0 1 0
vn 0 1 0
vn 0 1 0
vn 0 1 0
vn 0 1 0
vn 0 1 0
vn 0 1 0
vn 0 1 0
vn 0 1 0
vn 0 1 0
vn 0 1 0
vn 0 1 0
vn 0 1 0
vn 0 1 0
vn 0 1 0
vn 0 1 0
vn 0 1 0
vn 0 1 0
vn 0.5195313 0.1068115 0.8476563
vn -0.07794189 0.1068115 0.9912109
vn -0.07794189 0.1068115 0.9912109
vn 0.5195313 0.1068115 0.8476563
vn -0.6455078 0.1068115 0.7563477
vn -0.715332 0.0760498 0.6948242
vn -0.715332 0.0760498 0.6948242
vn -0.9438477 0.0760498 0.3217773
vn -0.9667969 0.1068115 0.2321777
vn -0.6455078 0.1068115 0.7563477
vn -0.918457 0.1068115 -0.3803711
vn -0.918457 0.1068115 -0.3803711
vn -0.5195313 0.1068115 -0.8476563
vn -0.5195313 0.1068115 -0.8476563
vn -0.8525391 0 0.5224609
vn -0.8525391 0 0.5224609
vn 0.2641602 0.3566895 0.8959961
vn 0.2641602 0.3566895 0.8959961
vn 0.2641602 0.3566895 0.8959961
vn 0.2641602 0.3566895 0.8959961
vn 0.2641602 0.3566895 0.8959961
vn -0.6787109 0.3566895 -0.6420898
vn -0.6787109 0.3566895 -0.6420898
vn -0.6787109 0.3566895 -0.6420898
vn -0.6787109 0.3566895 -0.6420898
vn -0.6787109 0.3566895 -0.6420898

vt 0.809082 0.7138672
vt 0.809082 0.8198242
vt 0.8447266 0.8198242
vt 0.8447266 0.7138672
vt 0.8818359 0.8198242
vt 0.8818359 0.7138672
vt 0.9208984 0.8198242
vt 0.9208984 0.7138672
vt 0.9580078 0.8198242
vt 0.9580078 0.7138672
vt 0.9936523 0.8198242
vt 0.9936523 0.7138672
vt 0.9140625 0.8349609
vt 0.8886719 0.8349609
vt 0.7714844 0.5327148
vt 0.800293 0.5117188
vt 0.7646484 0.5117188
vt 0.7895508 0.5458984
vt 0.8115234 0.5458984
vt 0.8295898 0.5327148
vt 0.8364258 0.5117188
vt 0.9907227 0.5966797
vt 0.9907227 0.5493164
vt 0.9628906 0.5874023
vt 0.9458008 0.5639648
vt 0.9458008 0.5351563
vt 0.9628906 0.5117188
vt 0.9907227 0.5024414
vt 0.809082 0.8198242
vt 0.809082 0.8286133
vt 0.8447266 0.8286133
vt 0.8447266 0.8198242
vt 0.8759766 0.8286133
vt 0.8818359 0.8198242
vt 0.8886719 0.8349609
vt 0.8828125 0.8442383
vt 0.9199219 0.8442383
vt 0.9140625 0.8349609
vt 0.9208984 0.8198242
vt 0.9267578 0.8286133
vt 0.9580078 0.8286133
vt 0.9580078 0.8198242
vt 0.9936523 0.8286133
vt 0.9936523 0.8198242
vt 0.9594727 0.4968262
vt 0.9594727 0.3808594
vt 0.9228516 0.3808594
vt 0.9228516 0.4968262
vt 0.8862305 0.3808594
vt 0.8862305 0.4968262
vt 0.8486328 0.3808594
vt 0.8486328 0.4968262
vt 0.8105469 0.3808594
vt 0.8105469 0.4968262
vt 0.7753906 0.3808594
vt 0.7753906 0.4968262
vt 0.8803711 0.5146484
vt 0.855957 0.5146484
vt 0.9208984 0.8198242
vt 0.9140625 0.8349609
vt 0.9199219 0.8442383
vt 0.9199219 0.8442383
vt 0.9267578 0.8286133
vt 0.8759766 0.8286133
vt 0.8828125 0.8442383
vt 0.8886719 0.8349609
vt 0.8886719 0.8349609
vt 0.8818359 0.8198242
vt 0.809082 0.7138672
vt 0.8447266 0.7138672
vt 0.8447266 0.8198242
vt 0.809082 0.8198242
vt 0.8818359 0.8198242
vt 0.8818359 0.7138672
vt 0.8818359 0.7138672
vt 0.9208984 0.7138672
vt 0.9208984 0.8198242
vt 0.8818359 0.8198242
vt 0.9580078 0.8198242
vt 0.9580078 0.7138672
vt 0.9936523 0.8198242
vt 0.9936523 0.7138672
vt 0.9140625 0.8349609
vt 0.8886719 0.8349609
vt 0.7714844 0.5327148
vt 0.7646484 0.5117188
vt 0.800293 0.5117188
vt 0.7895508 0.5458984
vt 0.8115234 0.5458984
vt 0.8295898 0.5327148
vt 0.8364258 0.5117188
vt 0.9907227 0.5966797
vt 0.9628906 0.5874023
vt 0.9907227 0.5493164
vt 0.9458008 0.5639648
vt 0.9458008 0.5351563
vt 0.9628906 0.5117188
vt 0.9907227 0.5024414
vt 0.809082 0.8198242
vt 0.8447266 0.8198242
vt 0.8447266 0.8286133
vt 0.809082 0.8286133
vt 0.8759766 0.8286133
vt 0.8818359 0.8198242
vt 0.8886719 0.8349609
vt 0.9140625 0.8349609
vt 0.9199219 0.8442383
vt 0.8828125 0.8442383
vt 0.9208984 0.8198242
vt 0.9580078 0.8198242
vt 0.9580078 0.8286133
vt 0.9267578 0.8286133
vt 0.9936523 0.8286133
vt 0.9936523 0.8198242
vt 0.9594727 0.4968262
vt 0.9228516 0.4968262
vt 0.9228516 0.3808594
vt 0.9594727 0.3808594
vt 0.8862305 0.3808594
vt 0.8862305 0.4968262
vt 0.8862305 0.4968262
vt 0.8486328 0.4968262
vt 0.8486328 0.3808594
vt 0.8862305 0.3808594
vt 0.8105469 0.3808594
vt 0.8105469 0.4968262
vt 0.7753906 0.3808594
vt 0.7753906 0.4968262
vt 0.8803711 0.5146484
vt 0.855957 0.5146484
vt 0.9208984 0.8198242
vt 0.9267578 0.8286133
vt 0.9199219 0.8442383
vt 0.9199219 0.8442383
vt 0.9140625 0.8349609
vt 0.8759766 0.8286133
vt 0.8818359 0.8198242
vt 0.8886719 0.8349609
vt 0.8886719 0.8349609
vt 0.8828125 0.8442383

g Bucket_01_6239_78
usemtl Bucket_01_6239_78
usemap Bucket_01_6239_78
f 1/1/1 3/3/3 2/2/2
f 1/1/1 4/4/4 3/3/3
f 4/4/4 5/5/5 3/3/3
f 4/4/4 6/6/6 5/5/5
f 6/6/6 7/7/7 5/5/5
f 6/6/6 8/8/8 7/7/7
f 8/8/8 9/9/9 7/7/7
f 8/8/8 10/10/10 9/9/9
f 10/10/10 11/11/11 9/9/9
f 10/10/10 12/12/12 11/11/11
f 5/5/5 7/7/7 13/13/13
f 5/5/5 13/13/13 14/14/14
f 15/15/15 17/17/17 16/16/16
f 18/18/18 15/15/15 16/16/16
f 19/19/19 18/18/18 16/16/16
f 20/20/20 19/19/19 16/16/16
f 21/21/21 20/20/20 16/16/16
f 22/22/22 24/24/24 23/23/23
f 24/24/24 25/25/25 23/23/23
f 25/25/25 26/26/26 23/23/23
f 26/26/26 27/27/27 23/23/23
f 27/27/27 28/28/28 23/23/23
f 29/29/29 31/31/31 30/30/30
f 29/29/29 32/32/32 31/31/31
f 32/32/32 33/33/33 31/31/31
f 32/32/32 34/34/34 33/33/33
f 35/35/35 37/37/37 36/36/36
f 35/35/35 38/38/38 37/37/37
f 39/39/39 41/41/41 40/40/40
f 39/39/39 42/42/42 41/41/41
f 42/42/42 43/43/43 41/41/41
f 42/42/42 44/44/44 43/43/43
f 45/45/45 47/47/47 46/46/46
f 45/45/45 48/48/48 47/47/47
f 48/48/48 49/49/49 47/47/47
f 48/48/48 50/50/50 49/49/49
f 50/50/50 51/51/51 49/49/49
f 50/50/50 52/52/52 51/51/51
f 52/52/52 53/53/53 51/51/51
f 52/52/52 54/54/54 53/53/53
f 54/54/54 55/55/55 53/53/53
f 54/54/54 56/56/56 55/55/55
f 52/52/52 50/50/50 57/57/57
f 52/52/52 57/57/57 58/58/58
f 59/59/59 61/61/61 60/60/60
f 59/59/59 63/63/63 62/62/62
f 64/64/64 66/66/66 65/65/65
f 64/64/64 68/68/68 67/67/67
f 69/69/69 71/71/71 70/70/70
f 69/69/69 72/72/72 71/71/71
f 70/70/70 71/71/71 73/73/73
f 70/70/70 73/73/73 74/74/74
f 75/75/75 77/77/77 76/76/76
f 75/75/75 78/78/78 77/77/77
f 76/76/76 77/77/77 79/79/79
f 76/76/76 79/79/79 80/80/80
f 80/80/80 79/79/79 81/81/81
f 80/80/80 81/81/81 82/82/82
f 78/78/78 83/83/83 77/77/77
f 78/78/78 84/84/84 83/83/83
f 85/85/85 87/87/87 86/86/86
f 88/88/88 87/87/87 85/85/85
f 89/89/89 87/87/87 88/88/88
f 90/90/90 87/87/87 89/89/89
f 91/91/91 87/87/87 90/90/90
f 92/92/92 94/94/94 93/93/93
f 93/93/93 94/94/94 95/95/95
f 95/95/95 94/94/94 96/96/96
f 96/96/96 94/94/94 97/97/97
f 97/97/97 94/94/94 98/98/98
f 99/99/99 101/101/101 100/100/100
f 99/99/99 102/102/102 101/101/101
f 100/100/100 101/101/101 103/103/103
f 100/100/100 103/103/103 104/104/104
f 105/105/105 107/107/107 106/106/106
f 105/105/105 108/108/108 107/107/107
f 109/109/109 111/111/111 110/110/110
f 109/109/109 112/112/112 111/111/111
f 110/110/110 111/111/111 113/113/113
f 110/110/110 113/113/113 114/114/114
f 115/115/115 117/117/117 116/116/116
f 115/115/115 118/118/118 117/117/117
f 116/116/116 117/117/117 119/119/119
f 116/116/116 119/119/119 120/120/120
f 121/121/121 123/123/123 122/122/122
f 121/121/121 124/124/124 123/123/123
f 122/122/122 123/123/123 125/125/125
f 122/122/122 125/125/125 126/126/126
f 126/126/126 125/125/125 127/127/127
f 126/126/126 127/127/127 128/128/128
f 122/122/122 129/129/129 121/121/121
f 122/122/122 130/130/130 129/129/129
f 131/131/131 133/133/133 132/132/132
f 131/131/131 135/135/135 134/134/134
f 136/136/136 138/138/138 137/137/137
f 136/136/136 140/140/140 139/139/139
