#Bucket_01_(13)_6726_46.obj

v 4.968894E-07 4.088682E-07 -0.1209334
v 1.222788E-07 0.2666053 -0.1569289
v -0.09224183 0.2666043 -0.1269589
v -0.07108288 -3.832037E-07 -0.09783785
v -0.1492491 0.2666048 -0.04849401
v -0.1150142 2.005112E-07 -0.0373706
v -0.1492481 0.2666052 0.04849472
v -0.1150158 -2.990757E-07 0.03737071
v -0.0922405 0.2666049 0.1269588
v -0.07108327 -4.601219E-07 0.09783698
v -8.541884E-07 0.2666049 0.1569291
v -4.968894E-07 -4.369044E-07 0.1209336
v -0.1492481 0.3045174 0.03189693
v -0.1492475 0.3045177 -0.03189622
v -0.07108288 -3.832037E-07 -0.09783785
v 2.281942E-15 -1.401812E-08 1.183822E-07
v 4.968894E-07 4.088682E-07 -0.1209334
v -0.1150142 2.005112E-07 -0.0373706
v -0.1150158 -2.990757E-07 0.03737071
v -0.07108327 -4.601219E-07 0.09783698
v -4.968894E-07 -4.369044E-07 0.1209336
v 7.096943E-08 0.02157168 -0.100275
v -2.405234E-07 0.02157203 1.231819E-07
v -0.0589395 0.02157151 -0.08112293
v -0.09536681 0.02157251 -0.03098709
v -0.09536821 0.02157211 0.03098644
v -0.05893908 0.02157167 0.08112379
v -1.302552E-07 0.02157175 0.1002732
v 1.222788E-07 0.2666053 -0.1569289
v 2.73955E-07 0.2666048 -0.1265964
v -0.07441081 0.2666053 -0.1024191
v -0.09224183 0.2666043 -0.1269589
v -0.1204007 0.2666052 -0.03912148
v -0.1492491 0.2666048 -0.04849401
v -0.1492475 0.3045177 -0.03189622
v -0.1204021 0.3045175 -0.02573193
v -0.1204022 0.3045171 0.0257302
v -0.1492481 0.3045174 0.03189693
v -0.1492481 0.2666052 0.04849472
v -0.1204013 0.2666051 0.03911986
v -0.07441077 0.2666051 0.1024187
v -0.0922405 0.2666049 0.1269588
v -5.841035E-07 0.2666045 0.1265965
v -8.541884E-07 0.2666049 0.1569291
v 2.73955E-07 0.2666048 -0.1265964
v 7.096943E-08 0.02157168 -0.100275
v -0.0589395 0.02157151 -0.08112293
v -0.07441081 0.2666053 -0.1024191
v -0.09536681 0.02157251 -0.03098709
v -0.1204007 0.2666052 -0.03912148
v -0.09536821 0.02157211 0.03098644
v -0.1204013 0.2666051 0.03911986
v -0.05893908 0.02157167 0.08112379
v -0.07441077 0.2666051 0.1024187
v -1.302552E-07 0.02157175 0.1002732
v -5.841035E-07 0.2666045 0.1265965
v -0.1204021 0.3045175 -0.02573193
v -0.1204022 0.3045171 0.0257302
v -0.1492481 0.2666052 0.04849472
v -0.1492481 0.3045174 0.03189693
v -0.1204022 0.3045171 0.0257302
v -0.1204022 0.3045171 0.0257302
v -0.1204013 0.2666051 0.03911986
v -0.1204007 0.2666052 -0.03912148
v -0.1204021 0.3045175 -0.02573193
v -0.1492475 0.3045177 -0.03189622
v -0.1492475 0.3045177 -0.03189622
v -0.1492491 0.2666048 -0.04849401
v 4.968894E-07 4.088682E-07 -0.1209334
v 0.07108327 5.503636E-07 -0.09783774
v 0.09224191 0.2666052 -0.1269586
v 1.222788E-07 0.2666053 -0.1569289
v 0.1492474 0.266605 -0.04849446
v 0.1150158 2.640303E-07 -0.03737041
v 0.1150158 2.640303E-07 -0.03737041
v 0.1150142 -2.355565E-07 0.03737089
v 0.1492483 0.2666054 0.04849426
v 0.1492474 0.266605 -0.04849446
v 0.09224152 0.266605 0.1269591
v 0.07108329 -3.969907E-07 0.09783716
v -8.541884E-07 0.2666049 0.1569291
v -4.968894E-07 -4.369044E-07 0.1209336
v 0.1492483 0.3045176 0.03189648
v 0.149249 0.3045179 -0.03189667
v 0.07108327 5.503636E-07 -0.09783774
v 4.968894E-07 4.088682E-07 -0.1209334
v 2.281942E-15 -1.401812E-08 1.183822E-07
v 0.1150158 2.640303E-07 -0.03737041
v 0.1150142 -2.355565E-07 0.03737089
v 0.07108329 -3.969907E-07 0.09783716
v -4.968894E-07 -4.369044E-07 0.1209336
v 7.096943E-08 0.02157168 -0.100275
v 0.05893902 0.02157154 -0.08112365
v -2.405234E-07 0.02157203 1.231819E-07
v 0.09536774 0.02157206 -0.03098714
v 0.09536804 0.0215725 0.03098648
v 0.05893944 0.02157171 0.08112308
v -1.302552E-07 0.02157175 0.1002732
v 1.222788E-07 0.2666053 -0.1569289
v 0.09224191 0.2666052 -0.1269586
v 0.07441217 0.2666052 -0.1024194
v 2.73955E-07 0.2666048 -0.1265964
v 0.120401 0.2666044 -0.03912157
v 0.1492474 0.266605 -0.04849446
v 0.149249 0.3045179 -0.03189667
v 0.1492483 0.3045176 0.03189648
v 0.1204012 0.3045172 0.0257302
v 0.1204013 0.3045175 -0.02573193
v 0.1492483 0.2666054 0.04849426
v 0.09224152 0.266605 0.1269591
v 0.07441221 0.266605 0.1024184
v 0.1204021 0.2666052 0.03911986
v -5.841035E-07 0.2666045 0.1265965
v -8.541884E-07 0.2666049 0.1569291
v 2.73955E-07 0.2666048 -0.1265964
v 0.07441217 0.2666052 -0.1024194
v 0.05893902 0.02157154 -0.08112365
v 7.096943E-08 0.02157168 -0.100275
v 0.09536774 0.02157206 -0.03098714
v 0.120401 0.2666044 -0.03912157
v 0.120401 0.2666044 -0.03912157
v 0.1204021 0.2666052 0.03911986
v 0.09536804 0.0215725 0.03098648
v 0.09536774 0.02157206 -0.03098714
v 0.05893944 0.02157171 0.08112308
v 0.07441221 0.266605 0.1024184
v -1.302552E-07 0.02157175 0.1002732
v -5.841035E-07 0.2666045 0.1265965
v 0.1204013 0.3045175 -0.02573193
v 0.1204012 0.3045172 0.0257302
v 0.1492483 0.2666054 0.04849426
v 0.1204021 0.2666052 0.03911986
v 0.1204012 0.3045172 0.0257302
v 0.1204012 0.3045172 0.0257302
v 0.1492483 0.3045176 0.03189648
v 0.120401 0.2666044 -0.03912157
v 0.1492474 0.266605 -0.04849446
v 0.149249 0.3045179 -0.03189667
v 0.149249 0.3045179 -0.03189667
v 0.1204013 0.3045175 -0.02573193

vn -0.1102905 0.9682617 -0.2236328
vn -0.1102905 0.9682617 -0.2236328
vn -0.6230469 0.7802734 0.05386353
vn -0.6230469 0.7802734 0.05386353
vn -0.9243164 0.2087402 0.3193359
vn -0.9199219 0.2883301 0.2653809
vn -0.9013672 -0.2315674 0.3662109
vn -0.8881836 -0.3198242 0.329834
vn -0.5395508 -0.8120117 0.2230225
vn -0.5395508 -0.8120117 0.2230225
vn -0.007225037 -1 -0.01465607
vn -0.007225037 -1 -0.01465607
vn -0.8969727 0 0.4421387
vn -0.8969727 0 0.4421387
vn -0.439209 -0.1176147 -0.890625
vn -0.439209 -0.1176147 -0.890625
vn -0.439209 -0.1176147 -0.890625
vn -0.439209 -0.1176147 -0.890625
vn -0.439209 -0.1176147 -0.890625
vn -0.439209 -0.1176147 -0.890625
vn -0.439209 -0.1176147 -0.890625
vn 0.439209 0.1176147 0.890625
vn 0.439209 0.1176147 0.890625
vn 0.439209 0.1176147 0.890625
vn 0.439209 0.1176147 0.890625
vn 0.439209 0.1176147 0.890625
vn 0.439209 0.1176147 0.890625
vn 0.439209 0.1176147 0.890625
vn 0.439209 0.1176147 0.890625
vn 0.439209 0.1176147 0.890625
vn 0.439209 0.1176147 0.890625
vn 0.439209 0.1176147 0.890625
vn 0.439209 0.1176147 0.890625
vn 0.439209 0.1176147 0.890625
vn 0.439209 0.1176147 0.890625
vn 0.439209 0.1176147 0.890625
vn 0.439209 0.1176147 0.890625
vn 0.439209 0.1176147 0.890625
vn 0.439209 0.1176147 0.890625
vn 0.439209 0.1176147 0.890625
vn 0.439209 0.1176147 0.890625
vn 0.439209 0.1176147 0.890625
vn 0.439209 0.1176147 0.890625
vn 0.439209 0.1176147 0.890625
vn 0.09863281 -0.9746094 0.1999512
vn 0.09863281 -0.9746094 0.1999512
vn 0.612793 -0.7861328 -0.07849121
vn 0.612793 -0.7861328 -0.07849121
vn 0.9111328 -0.2924805 -0.2907715
vn 0.9174805 -0.208252 -0.3393555
vn 0.8789063 0.317627 -0.3554688
vn 0.8945313 0.2261963 -0.385498
vn 0.5292969 0.8115234 -0.2481689
vn 0.5292969 0.8115234 -0.2481689
vn -0.004798889 1 -0.009727478
vn -0.004798889 1 -0.009727478
vn 0.8969727 0 -0.4421387
vn 0.8969727 0 -0.4421387
vn 0.4216309 -0.8540039 0.3054199
vn 0.4216309 -0.8540039 0.3054199
vn 0.4216309 -0.8540039 0.3054199
vn 0.4216309 -0.8540039 0.3054199
vn 0.4216309 -0.8540039 0.3054199
vn 0.3276367 0.9379883 0.1151733
vn 0.3276367 0.9379883 0.1151733
vn 0.3276367 0.9379883 0.1151733
vn 0.3276367 0.9379883 0.1151733
vn 0.3276367 0.9379883 0.1151733
vn -0.1102905 0.9682617 -0.2236328
vn 0.421875 0.7802734 -0.4614258
vn 0.421875 0.7802734 -0.4614258
vn -0.1102905 0.9682617 -0.2236328
vn 0.8164063 0.2087402 -0.5385742
vn 0.7705078 0.2883301 -0.5683594
vn 0.7705078 0.2883301 -0.5683594
vn 0.8022461 -0.3198242 -0.5039063
vn 0.8393555 -0.2315674 -0.4919434
vn 0.8164063 0.2087402 -0.5385742
vn 0.5053711 -0.8120117 -0.2922363
vn 0.5053711 -0.8120117 -0.2922363
vn -0.007225037 -1 -0.01465607
vn -0.007225037 -1 -0.01465607
vn 0.8969727 0 -0.4421387
vn 0.8969727 0 -0.4421387
vn -0.439209 -0.1176147 -0.890625
vn -0.439209 -0.1176147 -0.890625
vn -0.439209 -0.1176147 -0.890625
vn -0.439209 -0.1176147 -0.890625
vn -0.439209 -0.1176147 -0.890625
vn -0.439209 -0.1176147 -0.890625
vn -0.439209 -0.1176147 -0.890625
vn 0.439209 0.1176147 0.890625
vn 0.439209 0.1176147 0.890625
vn 0.439209 0.1176147 0.890625
vn 0.439209 0.1176147 0.890625
vn 0.439209 0.1176147 0.890625
vn 0.439209 0.1176147 0.890625
vn 0.439209 0.1176147 0.890625
vn 0.439209 0.1176147 0.890625
vn 0.439209 0.1176147 0.890625
vn 0.439209 0.1176147 0.890625
vn 0.439209 0.1176147 0.890625
vn 0.439209 0.1176147 0.890625
vn 0.439209 0.1176147 0.890625
vn 0.439209 0.1176147 0.890625
vn 0.439209 0.1176147 0.890625
vn 0.439209 0.1176147 0.890625
vn 0.439209 0.1176147 0.890625
vn 0.439209 0.1176147 0.890625
vn 0.439209 0.1176147 0.890625
vn 0.439209 0.1176147 0.890625
vn 0.439209 0.1176147 0.890625
vn 0.439209 0.1176147 0.890625
vn 0.439209 0.1176147 0.890625
vn 0.09863281 -0.9746094 0.1999512
vn -0.4353027 -0.7861328 0.4384766
vn -0.4353027 -0.7861328 0.4384766
vn 0.09863281 -0.9746094 0.1999512
vn -0.7851563 -0.2924805 0.5458984
vn -0.8276367 -0.208252 0.5209961
vn -0.8276367 -0.208252 0.5209961
vn -0.8505859 0.2261963 0.4748535
vn -0.8173828 0.317627 0.480957
vn -0.7851563 -0.2924805 0.5458984
vn -0.519043 0.8115234 0.2687988
vn -0.519043 0.8115234 0.2687988
vn -0.004798889 1 -0.009727478
vn -0.004798889 1 -0.009727478
vn -0.8969727 0 0.4421387
vn -0.8969727 0 0.4421387
vn -0.01434326 -0.8540039 0.5205078
vn -0.01434326 -0.8540039 0.5205078
vn -0.01434326 -0.8540039 0.5205078
vn -0.01434326 -0.8540039 0.5205078
vn -0.01434326 -0.8540039 0.5205078
vn -0.1081543 0.9379883 0.3300781
vn -0.1081543 0.9379883 0.3300781
vn -0.1081543 0.9379883 0.3300781
vn -0.1081543 0.9379883 0.3300781
vn -0.1081543 0.9379883 0.3300781

vt 0.809082 0.7138672
vt 0.809082 0.8198242
vt 0.8447266 0.8198242
vt 0.8447266 0.7138672
vt 0.8818359 0.8198242
vt 0.8818359 0.7138672
vt 0.9208984 0.8198242
vt 0.9208984 0.7138672
vt 0.9580078 0.8198242
vt 0.9580078 0.7138672
vt 0.9936523 0.8198242
vt 0.9936523 0.7138672
vt 0.9140625 0.8349609
vt 0.8886719 0.8349609
vt 0.7714844 0.5327148
vt 0.800293 0.5117188
vt 0.7646484 0.5117188
vt 0.7895508 0.5458984
vt 0.8115234 0.5458984
vt 0.8295898 0.5327148
vt 0.8364258 0.5117188
vt 0.9907227 0.5966797
vt 0.9907227 0.5493164
vt 0.9628906 0.5874023
vt 0.9458008 0.5639648
vt 0.9458008 0.5351563
vt 0.9628906 0.5117188
vt 0.9907227 0.5024414
vt 0.809082 0.8198242
vt 0.809082 0.8286133
vt 0.8447266 0.8286133
vt 0.8447266 0.8198242
vt 0.8759766 0.8286133
vt 0.8818359 0.8198242
vt 0.8886719 0.8349609
vt 0.8828125 0.8442383
vt 0.9199219 0.8442383
vt 0.9140625 0.8349609
vt 0.9208984 0.8198242
vt 0.9267578 0.8286133
vt 0.9580078 0.8286133
vt 0.9580078 0.8198242
vt 0.9936523 0.8286133
vt 0.9936523 0.8198242
vt 0.9594727 0.4968262
vt 0.9594727 0.3808594
vt 0.9228516 0.3808594
vt 0.9228516 0.4968262
vt 0.8862305 0.3808594
vt 0.8862305 0.4968262
vt 0.8486328 0.3808594
vt 0.8486328 0.4968262
vt 0.8105469 0.3808594
vt 0.8105469 0.4968262
vt 0.7753906 0.3808594
vt 0.7753906 0.4968262
vt 0.8803711 0.5146484
vt 0.855957 0.5146484
vt 0.9208984 0.8198242
vt 0.9140625 0.8349609
vt 0.9199219 0.8442383
vt 0.9199219 0.8442383
vt 0.9267578 0.8286133
vt 0.8759766 0.8286133
vt 0.8828125 0.8442383
vt 0.8886719 0.8349609
vt 0.8886719 0.8349609
vt 0.8818359 0.8198242
vt 0.809082 0.7138672
vt 0.8447266 0.7138672
vt 0.8447266 0.8198242
vt 0.809082 0.8198242
vt 0.8818359 0.8198242
vt 0.8818359 0.7138672
vt 0.8818359 0.7138672
vt 0.9208984 0.7138672
vt 0.9208984 0.8198242
vt 0.8818359 0.8198242
vt 0.9580078 0.8198242
vt 0.9580078 0.7138672
vt 0.9936523 0.8198242
vt 0.9936523 0.7138672
vt 0.9140625 0.8349609
vt 0.8886719 0.8349609
vt 0.7714844 0.5327148
vt 0.7646484 0.5117188
vt 0.800293 0.5117188
vt 0.7895508 0.5458984
vt 0.8115234 0.5458984
vt 0.8295898 0.5327148
vt 0.8364258 0.5117188
vt 0.9907227 0.5966797
vt 0.9628906 0.5874023
vt 0.9907227 0.5493164
vt 0.9458008 0.5639648
vt 0.9458008 0.5351563
vt 0.9628906 0.5117188
vt 0.9907227 0.5024414
vt 0.809082 0.8198242
vt 0.8447266 0.8198242
vt 0.8447266 0.8286133
vt 0.809082 0.8286133
vt 0.8759766 0.8286133
vt 0.8818359 0.8198242
vt 0.8886719 0.8349609
vt 0.9140625 0.8349609
vt 0.9199219 0.8442383
vt 0.8828125 0.8442383
vt 0.9208984 0.8198242
vt 0.9580078 0.8198242
vt 0.9580078 0.8286133
vt 0.9267578 0.8286133
vt 0.9936523 0.8286133
vt 0.9936523 0.8198242
vt 0.9594727 0.4968262
vt 0.9228516 0.4968262
vt 0.9228516 0.3808594
vt 0.9594727 0.3808594
vt 0.8862305 0.3808594
vt 0.8862305 0.4968262
vt 0.8862305 0.4968262
vt 0.8486328 0.4968262
vt 0.8486328 0.3808594
vt 0.8862305 0.3808594
vt 0.8105469 0.3808594
vt 0.8105469 0.4968262
vt 0.7753906 0.3808594
vt 0.7753906 0.4968262
vt 0.8803711 0.5146484
vt 0.855957 0.5146484
vt 0.9208984 0.8198242
vt 0.9267578 0.8286133
vt 0.9199219 0.8442383
vt 0.9199219 0.8442383
vt 0.9140625 0.8349609
vt 0.8759766 0.8286133
vt 0.8818359 0.8198242
vt 0.8886719 0.8349609
vt 0.8886719 0.8349609
vt 0.8828125 0.8442383

g Bucket_01_(13)_6726_46
usemtl Bucket_01_(13)_6726_46
usemap Bucket_01_(13)_6726_46
f 1/1/1 3/3/3 2/2/2
f 1/1/1 4/4/4 3/3/3
f 4/4/4 5/5/5 3/3/3
f 4/4/4 6/6/6 5/5/5
f 6/6/6 7/7/7 5/5/5
f 6/6/6 8/8/8 7/7/7
f 8/8/8 9/9/9 7/7/7
f 8/8/8 10/10/10 9/9/9
f 10/10/10 11/11/11 9/9/9
f 10/10/10 12/12/12 11/11/11
f 5/5/5 7/7/7 13/13/13
f 5/5/5 13/13/13 14/14/14
f 15/15/15 17/17/17 16/16/16
f 18/18/18 15/15/15 16/16/16
f 19/19/19 18/18/18 16/16/16
f 20/20/20 19/19/19 16/16/16
f 21/21/21 20/20/20 16/16/16
f 22/22/22 24/24/24 23/23/23
f 24/24/24 25/25/25 23/23/23
f 25/25/25 26/26/26 23/23/23
f 26/26/26 27/27/27 23/23/23
f 27/27/27 28/28/28 23/23/23
f 29/29/29 31/31/31 30/30/30
f 29/29/29 32/32/32 31/31/31
f 32/32/32 33/33/33 31/31/31
f 32/32/32 34/34/34 33/33/33
f 35/35/35 37/37/37 36/36/36
f 35/35/35 38/38/38 37/37/37
f 39/39/39 41/41/41 40/40/40
f 39/39/39 42/42/42 41/41/41
f 42/42/42 43/43/43 41/41/41
f 42/42/42 44/44/44 43/43/43
f 45/45/45 47/47/47 46/46/46
f 45/45/45 48/48/48 47/47/47
f 48/48/48 49/49/49 47/47/47
f 48/48/48 50/50/50 49/49/49
f 50/50/50 51/51/51 49/49/49
f 50/50/50 52/52/52 51/51/51
f 52/52/52 53/53/53 51/51/51
f 52/52/52 54/54/54 53/53/53
f 54/54/54 55/55/55 53/53/53
f 54/54/54 56/56/56 55/55/55
f 52/52/52 50/50/50 57/57/57
f 52/52/52 57/57/57 58/58/58
f 59/59/59 61/61/61 60/60/60
f 59/59/59 63/63/63 62/62/62
f 64/64/64 66/66/66 65/65/65
f 64/64/64 68/68/68 67/67/67
f 69/69/69 71/71/71 70/70/70
f 69/69/69 72/72/72 71/71/71
f 70/70/70 71/71/71 73/73/73
f 70/70/70 73/73/73 74/74/74
f 75/75/75 77/77/77 76/76/76
f 75/75/75 78/78/78 77/77/77
f 76/76/76 77/77/77 79/79/79
f 76/76/76 79/79/79 80/80/80
f 80/80/80 79/79/79 81/81/81
f 80/80/80 81/81/81 82/82/82
f 78/78/78 83/83/83 77/77/77
f 78/78/78 84/84/84 83/83/83
f 85/85/85 87/87/87 86/86/86
f 88/88/88 87/87/87 85/85/85
f 89/89/89 87/87/87 88/88/88
f 90/90/90 87/87/87 89/89/89
f 91/91/91 87/87/87 90/90/90
f 92/92/92 94/94/94 93/93/93
f 93/93/93 94/94/94 95/95/95
f 95/95/95 94/94/94 96/96/96
f 96/96/96 94/94/94 97/97/97
f 97/97/97 94/94/94 98/98/98
f 99/99/99 101/101/101 100/100/100
f 99/99/99 102/102/102 101/101/101
f 100/100/100 101/101/101 103/103/103
f 100/100/100 103/103/103 104/104/104
f 105/105/105 107/107/107 106/106/106
f 105/105/105 108/108/108 107/107/107
f 109/109/109 111/111/111 110/110/110
f 109/109/109 112/112/112 111/111/111
f 110/110/110 111/111/111 113/113/113
f 110/110/110 113/113/113 114/114/114
f 115/115/115 117/117/117 116/116/116
f 115/115/115 118/118/118 117/117/117
f 116/116/116 117/117/117 119/119/119
f 116/116/116 119/119/119 120/120/120
f 121/121/121 123/123/123 122/122/122
f 121/121/121 124/124/124 123/123/123
f 122/122/122 123/123/123 125/125/125
f 122/122/122 125/125/125 126/126/126
f 126/126/126 125/125/125 127/127/127
f 126/126/126 127/127/127 128/128/128
f 122/122/122 129/129/129 121/121/121
f 122/122/122 130/130/130 129/129/129
f 131/131/131 133/133/133 132/132/132
f 131/131/131 135/135/135 134/134/134
f 136/136/136 138/138/138 137/137/137
f 136/136/136 140/140/140 139/139/139
