#Bucket_01_(18)_6771_2.obj

v -3.245582E-07 0 -0.1209329
v -9.321771E-08 0.2666049 -0.1569287
v -0.09224168 0.2666049 -0.1269587
v -0.07108263 0 -0.09783859
v -0.149248 0.2666049 -0.048494
v -0.1150148 0 -0.03736987
v -0.1492482 0.2666049 0.04849441
v -0.1150145 0 0.03737045
v -0.09224082 0.2666049 0.1269588
v -0.07108261 0 0.09783641
v 9.321771E-08 0.2666049 0.1569287
v 3.245582E-07 0 0.1209329
v -0.1492487 0.3045174 0.03189761
v -0.1492482 0.3045174 -0.0318954
v -0.07108263 0 -0.09783859
v 0 0 0
v -3.245582E-07 0 -0.1209329
v -0.1150148 0 -0.03736987
v -0.1150145 0 0.03737045
v -0.07108261 0 0.09783641
v 3.245582E-07 0 0.1209329
v -3.897158E-07 0.02157199 -0.1002741
v 0 0.02157199 0
v -0.05893874 0.02157199 -0.08112268
v -0.09536702 0.02157199 -0.03098723
v -0.09536751 0.02157199 0.03098694
v -0.05893914 0.02157199 0.08112349
v -5.143734E-07 0.02157199 0.1002738
v -9.321771E-08 0.2666049 -0.1569287
v -2.987707E-07 0.2666049 -0.1265965
v -0.07441194 0.2666049 -0.1024188
v -0.09224168 0.2666049 -0.1269587
v -0.1204012 0.2666049 -0.03912178
v -0.149248 0.2666049 -0.048494
v -0.1492482 0.3045174 -0.0318954
v -0.1204014 0.3045174 -0.02573228
v -0.1204009 0.3045174 0.02572977
v -0.1492487 0.3045174 0.03189761
v -0.1492482 0.2666049 0.04849441
v -0.1204012 0.2666049 0.03911927
v -0.07441156 0.2666049 0.1024187
v -0.09224082 0.2666049 0.1269588
v 2.987707E-07 0.2666049 0.1265965
v 9.321771E-08 0.2666049 0.1569287
v -2.987707E-07 0.2666049 -0.1265965
v -3.897158E-07 0.02157199 -0.1002741
v -0.05893874 0.02157199 -0.08112268
v -0.07441194 0.2666049 -0.1024188
v -0.09536702 0.02157199 -0.03098723
v -0.1204012 0.2666049 -0.03912178
v -0.09536751 0.02157199 0.03098694
v -0.1204012 0.2666049 0.03911927
v -0.05893914 0.02157199 0.08112349
v -0.07441156 0.2666049 0.1024187
v -5.143734E-07 0.02157199 0.1002738
v 2.987707E-07 0.2666049 0.1265965
v -0.1204014 0.3045174 -0.02573228
v -0.1204009 0.3045174 0.02572977
v -0.1492482 0.2666049 0.04849441
v -0.1492487 0.3045174 0.03189761
v -0.1204009 0.3045174 0.02572977
v -0.1204009 0.3045174 0.02572977
v -0.1204012 0.2666049 0.03911927
v -0.1204012 0.2666049 -0.03912178
v -0.1204014 0.3045174 -0.02573228
v -0.1492482 0.3045174 -0.0318954
v -0.1492482 0.3045174 -0.0318954
v -0.149248 0.2666049 -0.048494
v -3.245582E-07 0 -0.1209329
v 0.07108321 0 -0.09783822
v 0.09224173 0.2666049 -0.1269585
v -9.321771E-08 0.2666049 -0.1569287
v 0.1492482 0.2666049 -0.04849441
v 0.1150145 0 -0.03737045
v 0.1150145 0 -0.03737045
v 0.1150157 0 0.03737018
v 0.149248 0.2666049 0.048494
v 0.1492482 0.2666049 -0.04849441
v 0.09224168 0.2666049 0.1269587
v 0.07108323 0 0.09783678
v 9.321771E-08 0.2666049 0.1569287
v 3.245582E-07 0 0.1209329
v 0.1492476 0.3045174 0.0318972
v 0.149248 0.3045174 -0.0318958
v 0.07108321 0 -0.09783822
v -3.245582E-07 0 -0.1209329
v 0 0 0
v 0.1150145 0 -0.03737045
v 0.1150157 0 0.03737018
v 0.07108323 0 0.09783678
v 3.245582E-07 0 0.1209329
v -3.897158E-07 0.02157199 -0.1002741
v 0.05893914 0.02157199 -0.08112349
v 0 0.02157199 0
v 0.09536751 0.02157199 -0.03098694
v 0.09536702 0.02157199 0.03098723
v 0.05893874 0.02157199 0.08112268
v -5.143734E-07 0.02157199 0.1002738
v -9.321771E-08 0.2666049 -0.1569287
v 0.09224173 0.2666049 -0.1269585
v 0.07441156 0.2666049 -0.1024187
v -2.987707E-07 0.2666049 -0.1265965
v 0.1204009 0.2666049 -0.03912138
v 0.1492482 0.2666049 -0.04849441
v 0.149248 0.3045174 -0.0318958
v 0.1492476 0.3045174 0.0318972
v 0.1204012 0.3045174 0.02573016
v 0.1204015 0.3045174 -0.02573157
v 0.149248 0.2666049 0.048494
v 0.09224168 0.2666049 0.1269587
v 0.07441103 0.2666049 0.1024185
v 0.1204018 0.2666049 0.03911997
v 2.987707E-07 0.2666049 0.1265965
v 9.321771E-08 0.2666049 0.1569287
v -2.987707E-07 0.2666049 -0.1265965
v 0.07441156 0.2666049 -0.1024187
v 0.05893914 0.02157199 -0.08112349
v -3.897158E-07 0.02157199 -0.1002741
v 0.09536751 0.02157199 -0.03098694
v 0.1204009 0.2666049 -0.03912138
v 0.1204009 0.2666049 -0.03912138
v 0.1204018 0.2666049 0.03911997
v 0.09536702 0.02157199 0.03098723
v 0.09536751 0.02157199 -0.03098694
v 0.05893874 0.02157199 0.08112268
v 0.07441103 0.2666049 0.1024185
v -5.143734E-07 0.02157199 0.1002738
v 2.987707E-07 0.2666049 0.1265965
v 0.1204015 0.3045174 -0.02573157
v 0.1204012 0.3045174 0.02573016
v 0.149248 0.2666049 0.048494
v 0.1204018 0.2666049 0.03911997
v 0.1204012 0.3045174 0.02573016
v 0.1204012 0.3045174 0.02573016
v 0.1492476 0.3045174 0.0318972
v 0.1204009 0.2666049 -0.03912138
v 0.1492482 0.2666049 -0.04849441
v 0.149248 0.3045174 -0.0318958
v 0.149248 0.3045174 -0.0318958
v 0.1204015 0.3045174 -0.02573157

vn -0.3154297 -0.1337891 -0.9394531
vn -0.3154297 -0.1337891 -0.9394531
vn -0.8071289 -0.1337891 -0.574707
vn -0.8071289 -0.1337891 -0.574707
vn -0.9902344 -0.09686279 0.09863281
vn -0.9907227 -0.1337891 0.009643555
vn -0.8491211 -0.09686279 0.519043
vn -0.7958984 -0.1337891 0.590332
vn -0.2971191 -0.1337891 0.9453125
vn -0.2971191 -0.1337891 0.9453125
vn 0.3154297 -0.1337891 0.9394531
vn 0.3154297 -0.1337891 0.9394531
vn -0.9482422 0 0.3183594
vn -0.9482422 0 0.3183594
vn 0 -1 0
vn 0 -1 0
vn 0 -1 0
vn 0 -1 0
vn 0 -1 0
vn 0 -1 0
vn 0 -1 0
vn 0 1 0
vn 0 1 0
vn 0 1 0
vn 0 1 0
vn 0 1 0
vn 0 1 0
vn 0 1 0
vn 0 1 0
vn 0 1 0
vn 0 1 0
vn 0 1 0
vn 0 1 0
vn 0 1 0
vn 0 1 0
vn 0 1 0
vn 0 1 0
vn 0 1 0
vn 0 1 0
vn 0 1 0
vn 0 1 0
vn 0 1 0
vn 0 1 0
vn 0 1 0
vn 0.3164063 0.1068115 0.9423828
vn 0.3164063 0.1068115 0.9423828
vn 0.8100586 0.1068115 0.5766602
vn 0.8100586 0.1068115 0.5766602
vn 0.9941406 0.1068115 -0.009658813
vn 0.9916992 0.0760498 -0.1022339
vn 0.7988281 0.1068115 -0.5922852
vn 0.8525391 0.0760498 -0.5170898
vn 0.2980957 0.1068115 -0.9487305
vn 0.2980957 0.1068115 -0.9487305
vn -0.3164063 0.1068115 -0.9423828
vn -0.3164063 0.1068115 -0.9423828
vn 0.9482422 0 -0.3183594
vn 0.9482422 0 -0.3183594
vn 0.5175781 0.3566895 0.777832
vn 0.5175781 0.3566895 0.777832
vn 0.5175781 0.3566895 0.777832
vn 0.5175781 0.3566895 0.777832
vn 0.5175781 0.3566895 0.777832
vn -0.05679321 0.3566895 -0.9326172
vn -0.05679321 0.3566895 -0.9326172
vn -0.05679321 0.3566895 -0.9326172
vn -0.05679321 0.3566895 -0.9326172
vn -0.05679321 0.3566895 -0.9326172
vn -0.3154297 -0.1337891 -0.9394531
vn 0.2971191 -0.1337891 -0.9453125
vn 0.2971191 -0.1337891 -0.9453125
vn -0.3154297 -0.1337891 -0.9394531
vn 0.8491211 -0.09686279 -0.519043
vn 0.7958984 -0.1337891 -0.590332
vn 0.7958984 -0.1337891 -0.590332
vn 0.9907227 -0.1337891 -0.009643555
vn 0.9902344 -0.09686279 -0.09863281
vn 0.8491211 -0.09686279 -0.519043
vn 0.8071289 -0.1337891 0.574707
vn 0.8071289 -0.1337891 0.574707
vn 0.3154297 -0.1337891 0.9394531
vn 0.3154297 -0.1337891 0.9394531
vn 0.9482422 0 -0.3183594
vn 0.9482422 0 -0.3183594
vn 0 -1 0
vn 0 -1 0
vn 0 -1 0
vn 0 -1 0
vn 0 -1 0
vn 0 -1 0
vn 0 -1 0
vn 0 1 0
vn 0 1 0
vn 0 1 0
vn 0 1 0
vn 0 1 0
vn 0 1 0
vn 0 1 0
vn 0 1 0
vn 0 1 0
vn 0 1 0
vn 0 1 0
vn 0 1 0
vn 0 1 0
vn 0 1 0
vn 0 1 0
vn 0 1 0
vn 0 1 0
vn 0 1 0
vn 0 1 0
vn 0 1 0
vn 0 1 0
vn 0 1 0
vn 0 1 0
vn 0.3164063 0.1068115 0.9423828
vn -0.2980957 0.1068115 0.9487305
vn -0.2980957 0.1068115 0.9487305
vn 0.3164063 0.1068115 0.9423828
vn -0.7988281 0.1068115 0.5922852
vn -0.8525391 0.0760498 0.5170898
vn -0.8525391 0.0760498 0.5170898
vn -0.9916992 0.0760498 0.1022339
vn -0.9941406 0.1068115 0.009658813
vn -0.7988281 0.1068115 0.5922852
vn -0.8100586 0.1068115 -0.5766602
vn -0.8100586 0.1068115 -0.5766602
vn -0.3164063 0.1068115 -0.9423828
vn -0.3164063 0.1068115 -0.9423828
vn -0.9482422 0 0.3183594
vn -0.9482422 0 0.3183594
vn 0.05673218 0.3566895 0.9326172
vn 0.05673218 0.3566895 0.9326172
vn 0.05673218 0.3566895 0.9326172
vn 0.05673218 0.3566895 0.9326172
vn 0.05673218 0.3566895 0.9326172
vn -0.5175781 0.3566895 -0.777832
vn -0.5175781 0.3566895 -0.777832
vn -0.5175781 0.3566895 -0.777832
vn -0.5175781 0.3566895 -0.777832
vn -0.5175781 0.3566895 -0.777832

vt 0.809082 0.7138672
vt 0.809082 0.8198242
vt 0.8447266 0.8198242
vt 0.8447266 0.7138672
vt 0.8818359 0.8198242
vt 0.8818359 0.7138672
vt 0.9208984 0.8198242
vt 0.9208984 0.7138672
vt 0.9580078 0.8198242
vt 0.9580078 0.7138672
vt 0.9936523 0.8198242
vt 0.9936523 0.7138672
vt 0.9140625 0.8349609
vt 0.8886719 0.8349609
vt 0.7714844 0.5327148
vt 0.800293 0.5117188
vt 0.7646484 0.5117188
vt 0.7895508 0.5458984
vt 0.8115234 0.5458984
vt 0.8295898 0.5327148
vt 0.8364258 0.5117188
vt 0.9907227 0.5966797
vt 0.9907227 0.5493164
vt 0.9628906 0.5874023
vt 0.9458008 0.5639648
vt 0.9458008 0.5351563
vt 0.9628906 0.5117188
vt 0.9907227 0.5024414
vt 0.809082 0.8198242
vt 0.809082 0.8286133
vt 0.8447266 0.8286133
vt 0.8447266 0.8198242
vt 0.8759766 0.8286133
vt 0.8818359 0.8198242
vt 0.8886719 0.8349609
vt 0.8828125 0.8442383
vt 0.9199219 0.8442383
vt 0.9140625 0.8349609
vt 0.9208984 0.8198242
vt 0.9267578 0.8286133
vt 0.9580078 0.8286133
vt 0.9580078 0.8198242
vt 0.9936523 0.8286133
vt 0.9936523 0.8198242
vt 0.9594727 0.4968262
vt 0.9594727 0.3808594
vt 0.9228516 0.3808594
vt 0.9228516 0.4968262
vt 0.8862305 0.3808594
vt 0.8862305 0.4968262
vt 0.8486328 0.3808594
vt 0.8486328 0.4968262
vt 0.8105469 0.3808594
vt 0.8105469 0.4968262
vt 0.7753906 0.3808594
vt 0.7753906 0.4968262
vt 0.8803711 0.5146484
vt 0.855957 0.5146484
vt 0.9208984 0.8198242
vt 0.9140625 0.8349609
vt 0.9199219 0.8442383
vt 0.9199219 0.8442383
vt 0.9267578 0.8286133
vt 0.8759766 0.8286133
vt 0.8828125 0.8442383
vt 0.8886719 0.8349609
vt 0.8886719 0.8349609
vt 0.8818359 0.8198242
vt 0.809082 0.7138672
vt 0.8447266 0.7138672
vt 0.8447266 0.8198242
vt 0.809082 0.8198242
vt 0.8818359 0.8198242
vt 0.8818359 0.7138672
vt 0.8818359 0.7138672
vt 0.9208984 0.7138672
vt 0.9208984 0.8198242
vt 0.8818359 0.8198242
vt 0.9580078 0.8198242
vt 0.9580078 0.7138672
vt 0.9936523 0.8198242
vt 0.9936523 0.7138672
vt 0.9140625 0.8349609
vt 0.8886719 0.8349609
vt 0.7714844 0.5327148
vt 0.7646484 0.5117188
vt 0.800293 0.5117188
vt 0.7895508 0.5458984
vt 0.8115234 0.5458984
vt 0.8295898 0.5327148
vt 0.8364258 0.5117188
vt 0.9907227 0.5966797
vt 0.9628906 0.5874023
vt 0.9907227 0.5493164
vt 0.9458008 0.5639648
vt 0.9458008 0.5351563
vt 0.9628906 0.5117188
vt 0.9907227 0.5024414
vt 0.809082 0.8198242
vt 0.8447266 0.8198242
vt 0.8447266 0.8286133
vt 0.809082 0.8286133
vt 0.8759766 0.8286133
vt 0.8818359 0.8198242
vt 0.8886719 0.8349609
vt 0.9140625 0.8349609
vt 0.9199219 0.8442383
vt 0.8828125 0.8442383
vt 0.9208984 0.8198242
vt 0.9580078 0.8198242
vt 0.9580078 0.8286133
vt 0.9267578 0.8286133
vt 0.9936523 0.8286133
vt 0.9936523 0.8198242
vt 0.9594727 0.4968262
vt 0.9228516 0.4968262
vt 0.9228516 0.3808594
vt 0.9594727 0.3808594
vt 0.8862305 0.3808594
vt 0.8862305 0.4968262
vt 0.8862305 0.4968262
vt 0.8486328 0.4968262
vt 0.8486328 0.3808594
vt 0.8862305 0.3808594
vt 0.8105469 0.3808594
vt 0.8105469 0.4968262
vt 0.7753906 0.3808594
vt 0.7753906 0.4968262
vt 0.8803711 0.5146484
vt 0.855957 0.5146484
vt 0.9208984 0.8198242
vt 0.9267578 0.8286133
vt 0.9199219 0.8442383
vt 0.9199219 0.8442383
vt 0.9140625 0.8349609
vt 0.8759766 0.8286133
vt 0.8818359 0.8198242
vt 0.8886719 0.8349609
vt 0.8886719 0.8349609
vt 0.8828125 0.8442383

g Bucket_01_(18)_6771_2
usemtl Bucket_01_(18)_6771_2
usemap Bucket_01_(18)_6771_2
f 1/1/1 3/3/3 2/2/2
f 1/1/1 4/4/4 3/3/3
f 4/4/4 5/5/5 3/3/3
f 4/4/4 6/6/6 5/5/5
f 6/6/6 7/7/7 5/5/5
f 6/6/6 8/8/8 7/7/7
f 8/8/8 9/9/9 7/7/7
f 8/8/8 10/10/10 9/9/9
f 10/10/10 11/11/11 9/9/9
f 10/10/10 12/12/12 11/11/11
f 5/5/5 7/7/7 13/13/13
f 5/5/5 13/13/13 14/14/14
f 15/15/15 17/17/17 16/16/16
f 18/18/18 15/15/15 16/16/16
f 19/19/19 18/18/18 16/16/16
f 20/20/20 19/19/19 16/16/16
f 21/21/21 20/20/20 16/16/16
f 22/22/22 24/24/24 23/23/23
f 24/24/24 25/25/25 23/23/23
f 25/25/25 26/26/26 23/23/23
f 26/26/26 27/27/27 23/23/23
f 27/27/27 28/28/28 23/23/23
f 29/29/29 31/31/31 30/30/30
f 29/29/29 32/32/32 31/31/31
f 32/32/32 33/33/33 31/31/31
f 32/32/32 34/34/34 33/33/33
f 35/35/35 37/37/37 36/36/36
f 35/35/35 38/38/38 37/37/37
f 39/39/39 41/41/41 40/40/40
f 39/39/39 42/42/42 41/41/41
f 42/42/42 43/43/43 41/41/41
f 42/42/42 44/44/44 43/43/43
f 45/45/45 47/47/47 46/46/46
f 45/45/45 48/48/48 47/47/47
f 48/48/48 49/49/49 47/47/47
f 48/48/48 50/50/50 49/49/49
f 50/50/50 51/51/51 49/49/49
f 50/50/50 52/52/52 51/51/51
f 52/52/52 53/53/53 51/51/51
f 52/52/52 54/54/54 53/53/53
f 54/54/54 55/55/55 53/53/53
f 54/54/54 56/56/56 55/55/55
f 52/52/52 50/50/50 57/57/57
f 52/52/52 57/57/57 58/58/58
f 59/59/59 61/61/61 60/60/60
f 59/59/59 63/63/63 62/62/62
f 64/64/64 66/66/66 65/65/65
f 64/64/64 68/68/68 67/67/67
f 69/69/69 71/71/71 70/70/70
f 69/69/69 72/72/72 71/71/71
f 70/70/70 71/71/71 73/73/73
f 70/70/70 73/73/73 74/74/74
f 75/75/75 77/77/77 76/76/76
f 75/75/75 78/78/78 77/77/77
f 76/76/76 77/77/77 79/79/79
f 76/76/76 79/79/79 80/80/80
f 80/80/80 79/79/79 81/81/81
f 80/80/80 81/81/81 82/82/82
f 78/78/78 83/83/83 77/77/77
f 78/78/78 84/84/84 83/83/83
f 85/85/85 87/87/87 86/86/86
f 88/88/88 87/87/87 85/85/85
f 89/89/89 87/87/87 88/88/88
f 90/90/90 87/87/87 89/89/89
f 91/91/91 87/87/87 90/90/90
f 92/92/92 94/94/94 93/93/93
f 93/93/93 94/94/94 95/95/95
f 95/95/95 94/94/94 96/96/96
f 96/96/96 94/94/94 97/97/97
f 97/97/97 94/94/94 98/98/98
f 99/99/99 101/101/101 100/100/100
f 99/99/99 102/102/102 101/101/101
f 100/100/100 101/101/101 103/103/103
f 100/100/100 103/103/103 104/104/104
f 105/105/105 107/107/107 106/106/106
f 105/105/105 108/108/108 107/107/107
f 109/109/109 111/111/111 110/110/110
f 109/109/109 112/112/112 111/111/111
f 110/110/110 111/111/111 113/113/113
f 110/110/110 113/113/113 114/114/114
f 115/115/115 117/117/117 116/116/116
f 115/115/115 118/118/118 117/117/117
f 116/116/116 117/117/117 119/119/119
f 116/116/116 119/119/119 120/120/120
f 121/121/121 123/123/123 122/122/122
f 121/121/121 124/124/124 123/123/123
f 122/122/122 123/123/123 125/125/125
f 122/122/122 125/125/125 126/126/126
f 126/126/126 125/125/125 127/127/127
f 126/126/126 127/127/127 128/128/128
f 122/122/122 129/129/129 121/121/121
f 122/122/122 130/130/130 129/129/129
f 131/131/131 133/133/133 132/132/132
f 131/131/131 135/135/135 134/134/134
f 136/136/136 138/138/138 137/137/137
f 136/136/136 140/140/140 139/139/139
