#Bucket_01_(3)_7402_54.obj

v 1.083102E-06 1.041691E-07 -0.1209334
v 7.61722E-07 0.2666051 -0.1569289
v -0.09224116 0.2666048 -0.1269589
v -0.07108323 3.82618E-07 -0.09783774
v -0.1492478 0.2666053 -0.04849391
v -0.1150149 -2.231498E-07 -0.03737066
v -0.1492484 0.2666046 0.04849466
v -0.1150154 3.669543E-07 0.03737082
v -0.09224108 0.2666039 0.1269587
v -0.07108329 -2.888336E-07 0.09783699
v -5.371843E-07 0.2666045 0.1569291
v -1.083102E-06 -1.424129E-07 0.1209336
v -0.1492479 0.3045175 0.03189696
v -0.1492485 0.3045169 -0.03189632
v -0.07108323 3.82618E-07 -0.09783774
v 3.875364E-15 -2.039669E-08 1.174514E-07
v 1.083102E-06 1.041691E-07 -0.1209334
v -0.1150149 -2.231498E-07 -0.03737066
v -0.1150154 3.669543E-07 0.03737082
v -0.07108329 -2.888336E-07 0.09783699
v -1.083102E-06 -1.424129E-07 0.1209336
v -4.805533E-07 0.02157262 -0.1002748
v -2.753015E-07 0.02157126 -8.284545E-09
v -0.05893876 0.02157116 -0.08112302
v -0.09536741 0.02157107 -0.03098731
v -0.09536675 0.02157164 0.03098637
v -0.05893941 0.02157184 0.08112381
v -4.095215E-07 0.02157286 0.1002734
v 7.61722E-07 0.2666051 -0.1569289
v 2.913467E-07 0.2666057 -0.1265962
v -0.074411 0.2666053 -0.1024191
v -0.09224116 0.2666048 -0.1269589
v -0.1204013 0.2666056 -0.03912139
v -0.1492478 0.2666053 -0.04849391
v -0.1492485 0.3045169 -0.03189632
v -0.1204018 0.3045182 -0.02573178
v -0.1204012 0.3045173 0.02573024
v -0.1492479 0.3045175 0.03189696
v -0.1492484 0.2666046 0.04849466
v -0.1204016 0.2666055 0.03911996
v -0.0744116 0.2666056 0.1024188
v -0.09224108 0.2666039 0.1269587
v -6.6809E-08 0.2666038 0.1265964
v -5.371843E-07 0.2666045 0.1569291
v 2.913467E-07 0.2666057 -0.1265962
v -4.805533E-07 0.02157262 -0.1002748
v -0.05893876 0.02157116 -0.08112302
v -0.074411 0.2666053 -0.1024191
v -0.09536741 0.02157107 -0.03098731
v -0.1204013 0.2666056 -0.03912139
v -0.09536675 0.02157164 0.03098637
v -0.1204016 0.2666055 0.03911996
v -0.05893941 0.02157184 0.08112381
v -0.0744116 0.2666056 0.1024188
v -4.095215E-07 0.02157286 0.1002734
v -6.6809E-08 0.2666038 0.1265964
v -0.1204018 0.3045182 -0.02573178
v -0.1204012 0.3045173 0.02573024
v -0.1492484 0.2666046 0.04849466
v -0.1492479 0.3045175 0.03189696
v -0.1204012 0.3045173 0.02573024
v -0.1204012 0.3045173 0.02573024
v -0.1204016 0.2666055 0.03911996
v -0.1204013 0.2666056 -0.03912139
v -0.1204018 0.3045182 -0.02573178
v -0.1492485 0.3045169 -0.03189632
v -0.1492485 0.3045169 -0.03189632
v -0.1492478 0.2666053 -0.04849391
v 1.083102E-06 1.041691E-07 -0.1209334
v 0.07108329 4.175877E-07 -0.09783774
v 0.0922413 0.2666056 -0.1269585
v 7.61722E-07 0.2666051 -0.1569289
v 0.1492486 0.2666049 -0.04849446
v 0.1150154 -4.17946E-07 -0.03737052
v 0.1150154 -4.17946E-07 -0.03737052
v 0.1150149 1.72158E-07 0.03737095
v 0.149248 0.2666043 0.04849412
v 0.1492486 0.2666049 -0.04849446
v 0.09224138 0.2666048 0.1269591
v 0.07108323 -2.84459E-07 0.09783717
v -5.371843E-07 0.2666045 0.1569291
v -1.083102E-06 -1.424129E-07 0.1209336
v 0.1492486 0.3045171 0.03189642
v 0.149248 0.3045166 -0.03189686
v 0.07108329 4.175877E-07 -0.09783774
v 1.083102E-06 1.041691E-07 -0.1209334
v 3.875364E-15 -2.039669E-08 1.174514E-07
v 0.1150154 -4.17946E-07 -0.03737052
v 0.1150149 1.72158E-07 0.03737095
v 0.07108323 -2.84459E-07 0.09783717
v -1.083102E-06 -1.424129E-07 0.1209336
v -4.805533E-07 0.02157262 -0.1002748
v 0.05894003 0.02157216 -0.08112357
v -2.753015E-07 0.02157126 -8.284545E-09
v 0.09536736 0.02157252 -0.03098705
v 0.09536686 0.02157161 0.03098637
v 0.05893938 0.02157285 0.08112327
v -4.095215E-07 0.02157286 0.1002734
v 7.61722E-07 0.2666051 -0.1569289
v 0.0922413 0.2666056 -0.1269585
v 0.07441182 0.2666042 -0.1024195
v 2.913467E-07 0.2666057 -0.1265962
v 0.1204018 0.2666044 -0.0391216
v 0.1492486 0.2666049 -0.04849446
v 0.149248 0.3045166 -0.03189686
v 0.1492486 0.3045171 0.03189642
v 0.1204004 0.3045173 0.02573023
v 0.1204013 0.3045171 -0.02573199
v 0.149248 0.2666043 0.04849412
v 0.09224138 0.2666048 0.1269591
v 0.07441122 0.2666045 0.1024184
v 0.1204015 0.2666043 0.03911975
v -6.6809E-08 0.2666038 0.1265964
v -5.371843E-07 0.2666045 0.1569291
v 2.913467E-07 0.2666057 -0.1265962
v 0.07441182 0.2666042 -0.1024195
v 0.05894003 0.02157216 -0.08112357
v -4.805533E-07 0.02157262 -0.1002748
v 0.09536736 0.02157252 -0.03098705
v 0.1204018 0.2666044 -0.0391216
v 0.1204018 0.2666044 -0.0391216
v 0.1204015 0.2666043 0.03911975
v 0.09536686 0.02157161 0.03098637
v 0.09536736 0.02157252 -0.03098705
v 0.05893938 0.02157285 0.08112327
v 0.07441122 0.2666045 0.1024184
v -4.095215E-07 0.02157286 0.1002734
v -6.6809E-08 0.2666038 0.1265964
v 0.1204013 0.3045171 -0.02573199
v 0.1204004 0.3045173 0.02573023
v 0.149248 0.2666043 0.04849412
v 0.1204015 0.2666043 0.03911975
v 0.1204004 0.3045173 0.02573023
v 0.1204004 0.3045173 0.02573023
v 0.1492486 0.3045171 0.03189642
v 0.1204018 0.2666044 -0.0391216
v 0.1492486 0.2666049 -0.04849446
v 0.149248 0.3045166 -0.03189686
v 0.149248 0.3045166 -0.03189686
v 0.1204013 0.3045171 -0.02573199

vn 0.1845703 0.9536133 -0.2382813
vn 0.1845703 0.9536133 -0.2382813
vn -0.2956543 0.7670898 -0.5693359
vn -0.2956543 0.7670898 -0.5693359
vn -0.6855469 0.2019043 -0.699707
vn -0.6323242 0.2788086 -0.7231445
vn -0.7319336 -0.2349854 -0.6396484
vn -0.6962891 -0.324707 -0.6401367
vn -0.463623 -0.8129883 -0.3525391
vn -0.463623 -0.8129883 -0.3525391
vn -0.02311707 -0.9995117 0.02983093
vn -0.02311707 -0.9995117 0.02983093
vn -0.7905273 5.960464E-08 -0.6123047
vn -0.7905273 5.960464E-08 -0.6123047
vn 0.6035156 -0.1711426 -0.7788086
vn 0.6035156 -0.1711426 -0.7788086
vn 0.6035156 -0.1711426 -0.7788086
vn 0.6035156 -0.1711426 -0.7788086
vn 0.6035156 -0.1711426 -0.7788086
vn 0.6035156 -0.1711426 -0.7788086
vn 0.6035156 -0.1711426 -0.7788086
vn -0.6035156 0.1711426 0.7788086
vn -0.6035156 0.1711426 0.7788086
vn -0.6035156 0.1711426 0.7788086
vn -0.6035156 0.1711426 0.7788086
vn -0.6035156 0.1711426 0.7788086
vn -0.6035156 0.1711426 0.7788086
vn -0.6035156 0.1711426 0.7788086
vn -0.6035156 0.1711426 0.7788086
vn -0.6035156 0.1711426 0.7788086
vn -0.6035156 0.1711426 0.7788086
vn -0.6035156 0.1711426 0.7788086
vn -0.6035156 0.1711426 0.7788086
vn -0.6035156 0.1711426 0.7788086
vn -0.6035156 0.1711426 0.7788086
vn -0.6035156 0.1711426 0.7788086
vn -0.6035156 0.1711426 0.7788086
vn -0.6035156 0.1711426 0.7788086
vn -0.6035156 0.1711426 0.7788086
vn -0.6035156 0.1711426 0.7788086
vn -0.6035156 0.1711426 0.7788086
vn -0.6035156 0.1711426 0.7788086
vn -0.6035156 0.1711426 0.7788086
vn -0.6035156 0.1711426 0.7788086
vn -0.1687012 -0.9614258 0.2176514
vn -0.1687012 -0.9614258 0.2176514
vn 0.3132324 -0.7744141 0.5498047
vn 0.3132324 -0.7744141 0.5498047
vn 0.6508789 -0.2844238 0.7041016
vn 0.7001953 -0.2025146 0.6845703
vn 0.715332 0.3210449 0.6206055
vn 0.7460938 0.2285156 0.6254883
vn 0.4816895 0.8110352 0.3322754
vn 0.4816895 0.8110352 0.3322754
vn 0.03973389 0.9980469 -0.05130005
vn 0.03973389 0.9980469 -0.05130005
vn 0.7905273 -5.960464E-08 0.6123047
vn 0.7905273 -5.960464E-08 0.6123047
vn -0.1177368 -0.8276367 0.5488281
vn -0.1177368 -0.8276367 0.5488281
vn -0.1177368 -0.8276367 0.5488281
vn -0.1177368 -0.8276367 0.5488281
vn -0.1177368 -0.8276367 0.5488281
vn 0.07128906 0.949707 0.3046875
vn 0.07128906 0.949707 0.3046875
vn 0.07128906 0.949707 0.3046875
vn 0.07128906 0.949707 0.3046875
vn 0.07128906 0.949707 0.3046875
vn 0.1845703 0.9536133 -0.2382813
vn 0.625 0.7670898 0.144165
vn 0.625 0.7670898 0.144165
vn 0.1845703 0.9536133 -0.2382813
vn 0.8486328 0.2019043 0.4887695
vn 0.8579102 0.2788086 0.4316406
vn 0.8579102 0.2788086 0.4316406
vn 0.793457 -0.324707 0.5146484
vn 0.8022461 -0.2349854 0.5488281
vn 0.8486328 0.2019043 0.4887695
vn 0.4572754 -0.8129883 0.361084
vn 0.4572754 -0.8129883 0.361084
vn -0.02311707 -0.9995117 0.02983093
vn -0.02311707 -0.9995117 0.02983093
vn 0.7905273 -5.960464E-08 0.6123047
vn 0.7905273 -5.960464E-08 0.6123047
vn 0.6035156 -0.1711426 -0.7788086
vn 0.6035156 -0.1711426 -0.7788086
vn 0.6035156 -0.1711426 -0.7788086
vn 0.6035156 -0.1711426 -0.7788086
vn 0.6035156 -0.1711426 -0.7788086
vn 0.6035156 -0.1711426 -0.7788086
vn 0.6035156 -0.1711426 -0.7788086
vn -0.6035156 0.1711426 0.7788086
vn -0.6035156 0.1711426 0.7788086
vn -0.6035156 0.1711426 0.7788086
vn -0.6035156 0.1711426 0.7788086
vn -0.6035156 0.1711426 0.7788086
vn -0.6035156 0.1711426 0.7788086
vn -0.6035156 0.1711426 0.7788086
vn -0.6035156 0.1711426 0.7788086
vn -0.6035156 0.1711426 0.7788086
vn -0.6035156 0.1711426 0.7788086
vn -0.6035156 0.1711426 0.7788086
vn -0.6035156 0.1711426 0.7788086
vn -0.6035156 0.1711426 0.7788086
vn -0.6035156 0.1711426 0.7788086
vn -0.6035156 0.1711426 0.7788086
vn -0.6035156 0.1711426 0.7788086
vn -0.6035156 0.1711426 0.7788086
vn -0.6035156 0.1711426 0.7788086
vn -0.6035156 0.1711426 0.7788086
vn -0.6035156 0.1711426 0.7788086
vn -0.6035156 0.1711426 0.7788086
vn -0.6035156 0.1711426 0.7788086
vn -0.6035156 0.1711426 0.7788086
vn -0.1687012 -0.9614258 0.2176514
vn -0.6108398 -0.7744141 -0.1660156
vn -0.6108398 -0.7744141 -0.1660156
vn -0.1687012 -0.9614258 0.2176514
vn -0.8442383 -0.2844238 -0.4543457
vn -0.8378906 -0.2025146 -0.5068359
vn -0.8378906 -0.2025146 -0.5068359
vn -0.7919922 0.2285156 -0.5664063
vn -0.7797852 0.3210449 -0.5375977
vn -0.8442383 -0.2844238 -0.4543457
vn -0.4421387 0.8110352 -0.3835449
vn -0.4421387 0.8110352 -0.3835449
vn 0.03973389 0.9980469 -0.05130005
vn 0.03973389 0.9980469 -0.05130005
vn -0.7905273 5.960464E-08 -0.6123047
vn -0.7905273 5.960464E-08 -0.6123047
vn -0.5019531 -0.8276367 0.2509766
vn -0.5019531 -0.8276367 0.2509766
vn -0.5019531 -0.8276367 0.2509766
vn -0.5019531 -0.8276367 0.2509766
vn -0.5019531 -0.8276367 0.2509766
vn -0.3127441 0.949707 0.007038116
vn -0.3127441 0.949707 0.007038116
vn -0.3127441 0.949707 0.007038116
vn -0.3127441 0.949707 0.007038116
vn -0.3127441 0.949707 0.007038116

vt 0.809082 0.7138672
vt 0.809082 0.8198242
vt 0.8447266 0.8198242
vt 0.8447266 0.7138672
vt 0.8818359 0.8198242
vt 0.8818359 0.7138672
vt 0.9208984 0.8198242
vt 0.9208984 0.7138672
vt 0.9580078 0.8198242
vt 0.9580078 0.7138672
vt 0.9936523 0.8198242
vt 0.9936523 0.7138672
vt 0.9140625 0.8349609
vt 0.8886719 0.8349609
vt 0.7714844 0.5327148
vt 0.800293 0.5117188
vt 0.7646484 0.5117188
vt 0.7895508 0.5458984
vt 0.8115234 0.5458984
vt 0.8295898 0.5327148
vt 0.8364258 0.5117188
vt 0.9907227 0.5966797
vt 0.9907227 0.5493164
vt 0.9628906 0.5874023
vt 0.9458008 0.5639648
vt 0.9458008 0.5351563
vt 0.9628906 0.5117188
vt 0.9907227 0.5024414
vt 0.809082 0.8198242
vt 0.809082 0.8286133
vt 0.8447266 0.8286133
vt 0.8447266 0.8198242
vt 0.8759766 0.8286133
vt 0.8818359 0.8198242
vt 0.8886719 0.8349609
vt 0.8828125 0.8442383
vt 0.9199219 0.8442383
vt 0.9140625 0.8349609
vt 0.9208984 0.8198242
vt 0.9267578 0.8286133
vt 0.9580078 0.8286133
vt 0.9580078 0.8198242
vt 0.9936523 0.8286133
vt 0.9936523 0.8198242
vt 0.9594727 0.4968262
vt 0.9594727 0.3808594
vt 0.9228516 0.3808594
vt 0.9228516 0.4968262
vt 0.8862305 0.3808594
vt 0.8862305 0.4968262
vt 0.8486328 0.3808594
vt 0.8486328 0.4968262
vt 0.8105469 0.3808594
vt 0.8105469 0.4968262
vt 0.7753906 0.3808594
vt 0.7753906 0.4968262
vt 0.8803711 0.5146484
vt 0.855957 0.5146484
vt 0.9208984 0.8198242
vt 0.9140625 0.8349609
vt 0.9199219 0.8442383
vt 0.9199219 0.8442383
vt 0.9267578 0.8286133
vt 0.8759766 0.8286133
vt 0.8828125 0.8442383
vt 0.8886719 0.8349609
vt 0.8886719 0.8349609
vt 0.8818359 0.8198242
vt 0.809082 0.7138672
vt 0.8447266 0.7138672
vt 0.8447266 0.8198242
vt 0.809082 0.8198242
vt 0.8818359 0.8198242
vt 0.8818359 0.7138672
vt 0.8818359 0.7138672
vt 0.9208984 0.7138672
vt 0.9208984 0.8198242
vt 0.8818359 0.8198242
vt 0.9580078 0.8198242
vt 0.9580078 0.7138672
vt 0.9936523 0.8198242
vt 0.9936523 0.7138672
vt 0.9140625 0.8349609
vt 0.8886719 0.8349609
vt 0.7714844 0.5327148
vt 0.7646484 0.5117188
vt 0.800293 0.5117188
vt 0.7895508 0.5458984
vt 0.8115234 0.5458984
vt 0.8295898 0.5327148
vt 0.8364258 0.5117188
vt 0.9907227 0.5966797
vt 0.9628906 0.5874023
vt 0.9907227 0.5493164
vt 0.9458008 0.5639648
vt 0.9458008 0.5351563
vt 0.9628906 0.5117188
vt 0.9907227 0.5024414
vt 0.809082 0.8198242
vt 0.8447266 0.8198242
vt 0.8447266 0.8286133
vt 0.809082 0.8286133
vt 0.8759766 0.8286133
vt 0.8818359 0.8198242
vt 0.8886719 0.8349609
vt 0.9140625 0.8349609
vt 0.9199219 0.8442383
vt 0.8828125 0.8442383
vt 0.9208984 0.8198242
vt 0.9580078 0.8198242
vt 0.9580078 0.8286133
vt 0.9267578 0.8286133
vt 0.9936523 0.8286133
vt 0.9936523 0.8198242
vt 0.9594727 0.4968262
vt 0.9228516 0.4968262
vt 0.9228516 0.3808594
vt 0.9594727 0.3808594
vt 0.8862305 0.3808594
vt 0.8862305 0.4968262
vt 0.8862305 0.4968262
vt 0.8486328 0.4968262
vt 0.8486328 0.3808594
vt 0.8862305 0.3808594
vt 0.8105469 0.3808594
vt 0.8105469 0.4968262
vt 0.7753906 0.3808594
vt 0.7753906 0.4968262
vt 0.8803711 0.5146484
vt 0.855957 0.5146484
vt 0.9208984 0.8198242
vt 0.9267578 0.8286133
vt 0.9199219 0.8442383
vt 0.9199219 0.8442383
vt 0.9140625 0.8349609
vt 0.8759766 0.8286133
vt 0.8818359 0.8198242
vt 0.8886719 0.8349609
vt 0.8886719 0.8349609
vt 0.8828125 0.8442383

g Bucket_01_(3)_7402_54
usemtl Bucket_01_(3)_7402_54
usemap Bucket_01_(3)_7402_54
f 1/1/1 3/3/3 2/2/2
f 1/1/1 4/4/4 3/3/3
f 4/4/4 5/5/5 3/3/3
f 4/4/4 6/6/6 5/5/5
f 6/6/6 7/7/7 5/5/5
f 6/6/6 8/8/8 7/7/7
f 8/8/8 9/9/9 7/7/7
f 8/8/8 10/10/10 9/9/9
f 10/10/10 11/11/11 9/9/9
f 10/10/10 12/12/12 11/11/11
f 5/5/5 7/7/7 13/13/13
f 5/5/5 13/13/13 14/14/14
f 15/15/15 17/17/17 16/16/16
f 18/18/18 15/15/15 16/16/16
f 19/19/19 18/18/18 16/16/16
f 20/20/20 19/19/19 16/16/16
f 21/21/21 20/20/20 16/16/16
f 22/22/22 24/24/24 23/23/23
f 24/24/24 25/25/25 23/23/23
f 25/25/25 26/26/26 23/23/23
f 26/26/26 27/27/27 23/23/23
f 27/27/27 28/28/28 23/23/23
f 29/29/29 31/31/31 30/30/30
f 29/29/29 32/32/32 31/31/31
f 32/32/32 33/33/33 31/31/31
f 32/32/32 34/34/34 33/33/33
f 35/35/35 37/37/37 36/36/36
f 35/35/35 38/38/38 37/37/37
f 39/39/39 41/41/41 40/40/40
f 39/39/39 42/42/42 41/41/41
f 42/42/42 43/43/43 41/41/41
f 42/42/42 44/44/44 43/43/43
f 45/45/45 47/47/47 46/46/46
f 45/45/45 48/48/48 47/47/47
f 48/48/48 49/49/49 47/47/47
f 48/48/48 50/50/50 49/49/49
f 50/50/50 51/51/51 49/49/49
f 50/50/50 52/52/52 51/51/51
f 52/52/52 53/53/53 51/51/51
f 52/52/52 54/54/54 53/53/53
f 54/54/54 55/55/55 53/53/53
f 54/54/54 56/56/56 55/55/55
f 52/52/52 50/50/50 57/57/57
f 52/52/52 57/57/57 58/58/58
f 59/59/59 61/61/61 60/60/60
f 59/59/59 63/63/63 62/62/62
f 64/64/64 66/66/66 65/65/65
f 64/64/64 68/68/68 67/67/67
f 69/69/69 71/71/71 70/70/70
f 69/69/69 72/72/72 71/71/71
f 70/70/70 71/71/71 73/73/73
f 70/70/70 73/73/73 74/74/74
f 75/75/75 77/77/77 76/76/76
f 75/75/75 78/78/78 77/77/77
f 76/76/76 77/77/77 79/79/79
f 76/76/76 79/79/79 80/80/80
f 80/80/80 79/79/79 81/81/81
f 80/80/80 81/81/81 82/82/82
f 78/78/78 83/83/83 77/77/77
f 78/78/78 84/84/84 83/83/83
f 85/85/85 87/87/87 86/86/86
f 88/88/88 87/87/87 85/85/85
f 89/89/89 87/87/87 88/88/88
f 90/90/90 87/87/87 89/89/89
f 91/91/91 87/87/87 90/90/90
f 92/92/92 94/94/94 93/93/93
f 93/93/93 94/94/94 95/95/95
f 95/95/95 94/94/94 96/96/96
f 96/96/96 94/94/94 97/97/97
f 97/97/97 94/94/94 98/98/98
f 99/99/99 101/101/101 100/100/100
f 99/99/99 102/102/102 101/101/101
f 100/100/100 101/101/101 103/103/103
f 100/100/100 103/103/103 104/104/104
f 105/105/105 107/107/107 106/106/106
f 105/105/105 108/108/108 107/107/107
f 109/109/109 111/111/111 110/110/110
f 109/109/109 112/112/112 111/111/111
f 110/110/110 111/111/111 113/113/113
f 110/110/110 113/113/113 114/114/114
f 115/115/115 117/117/117 116/116/116
f 115/115/115 118/118/118 117/117/117
f 116/116/116 117/117/117 119/119/119
f 116/116/116 119/119/119 120/120/120
f 121/121/121 123/123/123 122/122/122
f 121/121/121 124/124/124 123/123/123
f 122/122/122 123/123/123 125/125/125
f 122/122/122 125/125/125 126/126/126
f 126/126/126 125/125/125 127/127/127
f 126/126/126 127/127/127 128/128/128
f 122/122/122 129/129/129 121/121/121
f 122/122/122 130/130/130 129/129/129
f 131/131/131 133/133/133 132/132/132
f 131/131/131 135/135/135 134/134/134
f 136/136/136 138/138/138 137/137/137
f 136/136/136 140/140/140 139/139/139
