#Candlestick_01_(1)_7075_4.obj

v -0.02315329 0.7430087 -0.139811
v 2.00837E-07 0.7430087 -0.1629647
v 1.348546E-07 0.6660444 -0.1629648
v -0.03389874 0.6660444 -0.162966
v 0.03389818 0.6660444 -0.1629653
v 0.02315369 0.7430087 -0.1861184
v 7.675385E-07 0.8199731 -0.1290666
v 2.668195E-07 0.8199731 -0.1629647
v -1.069099E-06 0.8199732 -0.1968644
v 0.0231539 0.7430092 -0.1398112
v 2.00837E-07 0.7430087 -0.1629647
v 1.348546E-07 0.6660444 -0.1629648
v 6.355737E-07 0.6660444 -0.1290667
v 5.137024E-07 0.6660444 -0.1968654
v -0.0231535 0.7430088 -0.1861182
v 0.03389831 0.8199731 -0.1629652
v 2.668195E-07 0.8199731 -0.1629647
v -0.03389861 0.8199732 -0.1629659
v -0.02315329 0.7430087 -0.139811
v -0.03389874 0.6660444 -0.162966
v 1.348546E-07 0.6660444 -0.1629648
v 2.00837E-07 0.7430087 -0.1629647
v 0.03389818 0.6660444 -0.1629653
v 0.02315369 0.7430087 -0.1861184
v 7.675385E-07 0.8199731 -0.1290666
v 2.668195E-07 0.8199731 -0.1629647
v 6.456672E-07 0.8199732 -0.1968653
v 0.0231539 0.7430087 -0.1398112
v 6.355737E-07 0.6660444 -0.1290667
v 1.348546E-07 0.6660444 -0.1629648
v 2.00837E-07 0.7430087 -0.1629647
v 5.137024E-07 0.6660444 -0.1968654
v -0.0231535 0.7430088 -0.1861182
v 0.03389831 0.8199731 -0.1629652
v 2.668195E-07 0.8199731 -0.1629647
v -0.03389861 0.8199732 -0.1629659
v -0.02315254 0.743009 0.1864591
v 9.532357E-07 0.743009 0.1633054
v 8.872533E-07 0.6660446 0.1633054
v -0.03389971 0.6660446 0.163305
v 0.03389893 0.6660445 0.1633049
v 0.02315444 0.743009 0.1401517
v -1.948286E-07 0.8199733 0.1972044
v 1.019218E-06 0.8199733 0.1633055
v -3.166998E-07 0.8199733 0.1294057
v 0.02315466 0.7430089 0.1864589
v 9.532357E-07 0.743009 0.1633054
v 8.872533E-07 0.6660446 0.1633054
v -3.267934E-07 0.6660445 0.1972042
v -4.486651E-07 0.6660441 0.1294056
v -0.02315275 0.743009 0.1401519
v 0.03389907 0.8199733 0.163305
v 1.019218E-06 0.8199733 0.1633055
v -0.03389958 0.8199733 0.1633051
v -0.02315254 0.743009 0.1864591
v -0.03389971 0.6660446 0.163305
v 8.872533E-07 0.6660446 0.1633054
v 9.532357E-07 0.743009 0.1633054
v 0.03389893 0.6660445 0.1633049
v 0.02315444 0.743009 0.1401517
v -1.948286E-07 0.8199733 0.1972044
v 1.019218E-06 0.8199733 0.1633055
v -3.166998E-07 0.8199733 0.1294057
v 0.02315466 0.7430089 0.1864589
v -3.267938E-07 0.6660441 0.1972042
v 8.872529E-07 0.6660441 0.1633054
v 9.532357E-07 0.743009 0.1633054
v -4.486651E-07 0.6660441 0.1294056
v -0.02315275 0.743009 0.1401519
v 0.03389907 0.8199733 0.163305
v 1.019218E-06 0.8199733 0.1633055
v -0.03389958 0.8199733 0.1633051
v -0.02315362 0.8200293 0.02315264
v 7.030202E-07 0.8200293 6.540162E-07
v 6.370378E-07 0.7430649 5.926331E-07
v -0.03389996 0.7430649 2.137853E-07
v 0.03389868 0.7430649 9.191398E-08
v 0.02315419 0.8200293 -0.02315305
v -4.450436E-07 0.8969941 0.03389959
v -6.61958E-08 0.8969941 -9.993661E-07
v -5.669149E-07 0.8969941 -0.03389904
v 0.02315357 0.8200297 0.02315243
v 7.030202E-07 0.8200293 6.540162E-07
v 6.370382E-07 0.7430654 5.926335E-07
v -5.770084E-07 0.7430654 0.03389947
v -6.988801E-07 0.7430649 -0.03389917
v -0.023153 0.8200293 -0.02315284
v 0.03389882 0.8969941 2.146806E-07
v -6.61958E-08 0.8969941 -9.993661E-07
v -0.03389983 0.8969941 3.365519E-07
v -0.02315362 0.8200293 0.02315264
v -0.03389824 0.7430649 -6.214136E-07
v 6.370378E-07 0.7430649 5.926331E-07
v 7.030202E-07 0.8200293 6.540162E-07
v 0.03389868 0.7430649 9.191398E-08
v 0.02315419 0.8200293 -0.02315305
v -4.45044E-07 0.8969936 0.03389959
v -6.619621E-08 0.8969936 -9.993664E-07
v -5.669153E-07 0.8969936 -0.03389904
v 0.02315357 0.8200292 0.02315243
v -5.770088E-07 0.7430649 0.03389947
v 6.370378E-07 0.7430649 5.926331E-07
v -1.321786E-07 0.8200293 -1.06075E-06
v -6.988801E-07 0.7430649 -0.03389917
v -0.023153 0.8200293 -0.02315284
v 0.03389882 0.8969936 2.146802E-07
v -6.619621E-08 0.8969936 -9.993664E-07
v -0.03389983 0.8969936 3.365515E-07

vn 0.3210449 -0.177002 0.9306641
vn 0.3261719 1.192093E-06 0.9453125
vn -0.06768799 1.072884E-06 0.9975586
vn -0.06677246 -0.1634521 0.984375
vn -0.06677246 0.1634521 0.984375
vn 0.3210449 0.177002 0.9306641
vn 0.6591797 -0.1634521 0.7338867
vn 0.668457 1.072884E-06 0.7436523
vn 0.6591797 0.1634521 0.7338867
vn 0.9306641 -0.177002 -0.3210449
vn 0.9453125 5.960464E-08 -0.3261719
vn 0.9975586 4.768372E-07 0.06768799
vn 0.984375 -0.1634521 0.06677246
vn 0.984375 0.1634521 0.06677246
vn 0.9306641 0.177002 -0.3210449
vn 0.7338867 -0.1634521 -0.6591797
vn 0.7436523 -4.172325E-07 -0.668457
vn 0.7338867 0.1634521 -0.6591797
vn -0.3210449 0.177002 -0.9306641
vn 0.06677246 0.1634521 -0.984375
vn 0.06768799 -1.072884E-06 -0.9975586
vn -0.3261719 -1.192093E-06 -0.9453125
vn 0.06677246 -0.1634521 -0.984375
vn -0.3210449 -0.177002 -0.9306641
vn -0.6591797 0.1634521 -0.7338867
vn -0.668457 -1.072884E-06 -0.7436523
vn -0.6591797 -0.1634521 -0.7338867
vn -0.9306641 0.177002 0.3210449
vn -0.984375 0.1634521 -0.06677246
vn -0.9975586 -4.768372E-07 -0.06768799
vn -0.9453125 -5.960464E-08 0.3261719
vn -0.984375 -0.1634521 -0.06677246
vn -0.9306641 -0.177002 0.3210449
vn -0.7338867 0.1634521 0.6591797
vn -0.7436523 4.172325E-07 0.668457
vn -0.7338867 -0.1634521 0.6591797
vn 0.3210449 -0.177002 0.9306641
vn 0.3261719 1.192093E-06 0.9453125
vn -0.06768799 1.072884E-06 0.9975586
vn -0.06677246 -0.1634521 0.984375
vn -0.06677246 0.1634521 0.984375
vn 0.3210449 0.177002 0.9306641
vn 0.6591797 -0.1634521 0.7338867
vn 0.668457 1.072884E-06 0.7436523
vn 0.6591797 0.1634521 0.7338867
vn 0.9306641 -0.177002 -0.3210449
vn 0.9453125 5.960464E-08 -0.3261719
vn 0.9975586 4.768372E-07 0.06768799
vn 0.984375 -0.1634521 0.06677246
vn 0.984375 0.1634521 0.06677246
vn 0.9306641 0.177002 -0.3210449
vn 0.7338867 -0.1634521 -0.6591797
vn 0.7436523 -4.172325E-07 -0.668457
vn 0.7338867 0.1634521 -0.6591797
vn -0.3210449 0.177002 -0.9306641
vn 0.06677246 0.1634521 -0.984375
vn 0.06768799 -1.072884E-06 -0.9975586
vn -0.3261719 -1.192093E-06 -0.9453125
vn 0.06677246 -0.1634521 -0.984375
vn -0.3210449 -0.177002 -0.9306641
vn -0.6591797 0.1634521 -0.7338867
vn -0.668457 -1.072884E-06 -0.7436523
vn -0.6591797 -0.1634521 -0.7338867
vn -0.9306641 0.177002 0.3210449
vn -0.984375 0.1634521 -0.06677246
vn -0.9975586 -4.768372E-07 -0.06768799
vn -0.9453125 -5.960464E-08 0.3261719
vn -0.984375 -0.1634521 -0.06677246
vn -0.9306641 -0.177002 0.3210449
vn -0.7338867 0.1634521 0.6591797
vn -0.7436523 4.172325E-07 0.668457
vn -0.7338867 -0.1634521 0.6591797
vn 0.3210449 -0.177002 0.9306641
vn 0.3261719 1.192093E-06 0.9453125
vn -0.06768799 1.072884E-06 0.9975586
vn -0.06677246 -0.1634521 0.984375
vn -0.06677246 0.1634521 0.984375
vn 0.3210449 0.177002 0.9306641
vn 0.6591797 -0.1634521 0.7338867
vn 0.668457 1.072884E-06 0.7436523
vn 0.6591797 0.1634521 0.7338867
vn 0.9306641 -0.177002 -0.3210449
vn 0.9453125 5.960464E-08 -0.3261719
vn 0.9975586 4.768372E-07 0.06768799
vn 0.984375 -0.1634521 0.06677246
vn 0.984375 0.1634521 0.06677246
vn 0.9306641 0.177002 -0.3210449
vn 0.7338867 -0.1634521 -0.6591797
vn 0.7436523 -4.172325E-07 -0.668457
vn 0.7338867 0.1634521 -0.6591797
vn -0.3210449 0.177002 -0.9306641
vn 0.06677246 0.1634521 -0.984375
vn 0.06768799 -1.072884E-06 -0.9975586
vn -0.3261719 -1.192093E-06 -0.9453125
vn 0.06677246 -0.1634521 -0.984375
vn -0.3210449 -0.177002 -0.9306641
vn -0.6591797 0.1634521 -0.7338867
vn -0.668457 -1.072884E-06 -0.7436523
vn -0.6591797 -0.1634521 -0.7338867
vn -0.9306641 0.177002 0.3210449
vn -0.984375 0.1634521 -0.06677246
vn -0.9975586 -4.768372E-07 -0.06768799
vn -0.9453125 -5.960464E-08 0.3261719
vn -0.984375 -0.1634521 -0.06677246
vn -0.9306641 -0.177002 0.3210449
vn -0.7338867 0.1634521 0.6591797
vn -0.7436523 4.172325E-07 0.668457
vn -0.7338867 -0.1634521 0.6591797

vt 0 0.5
vt 0.5 0.5
vt 0.5 0
vt 0 0
vt 1 0
vt 1 0.5
vt 0 1
vt 0.5 1
vt 1 1
vt 0 0.5
vt 0.5 0.5
vt 0.5 0
vt 0 0
vt 1 0
vt 1 0.5
vt 0 1
vt 0.5 1
vt 1 1
vt 0 0.5
vt 0 0
vt 0.5 0
vt 0.5 0.5
vt 1 0
vt 1 0.5
vt 0 1
vt 0.5 1
vt 1 1
vt 0 0.5
vt 0 0
vt 0.5 0
vt 0.5 0.5
vt 1 0
vt 1 0.5
vt 0 1
vt 0.5 1
vt 1 1
vt 0 0.5
vt 0.5 0.5
vt 0.5 0
vt 0 0
vt 1 0
vt 1 0.5
vt 0 1
vt 0.5 1
vt 1 1
vt 0 0.5
vt 0.5 0.5
vt 0.5 0
vt 0 0
vt 1 0
vt 1 0.5
vt 0 1
vt 0.5 1
vt 1 1
vt 0 0.5
vt 0 0
vt 0.5 0
vt 0.5 0.5
vt 1 0
vt 1 0.5
vt 0 1
vt 0.5 1
vt 1 1
vt 0 0.5
vt 0 0
vt 0.5 0
vt 0.5 0.5
vt 1 0
vt 1 0.5
vt 0 1
vt 0.5 1
vt 1 1
vt 0 0.5
vt 0.5 0.5
vt 0.5 0
vt 0 0
vt 1 0
vt 1 0.5
vt 0 1
vt 0.5 1
vt 1 1
vt 0 0.5
vt 0.5 0.5
vt 0.5 0
vt 0 0
vt 1 0
vt 1 0.5
vt 0 1
vt 0.5 1
vt 1 1
vt 0 0.5
vt 0 0
vt 0.5 0
vt 0.5 0.5
vt 1 0
vt 1 0.5
vt 0 1
vt 0.5 1
vt 1 1
vt 0 0.5
vt 0 0
vt 0.5 0
vt 0.5 0.5
vt 1 0
vt 1 0.5
vt 0 1
vt 0.5 1
vt 1 1

g Candlestick_01_(1)_7075_4
usemtl Candlestick_01_(1)_7075_4
usemap Candlestick_01_(1)_7075_4
f 1/1/1 3/3/3 2/2/2
f 1/1/1 4/4/4 3/3/3
f 2/2/2 3/3/3 5/5/5
f 2/2/2 5/5/5 6/6/6
f 7/7/7 1/1/1 2/2/2
f 7/7/7 2/2/2 8/8/8
f 8/8/8 2/2/2 6/6/6
f 8/8/8 6/6/6 9/9/9
f 10/10/10 12/12/12 11/11/11
f 10/10/10 13/13/13 12/12/12
f 11/11/11 12/12/12 14/14/14
f 11/11/11 14/14/14 15/15/15
f 16/16/16 10/10/10 11/11/11
f 16/16/16 11/11/11 17/17/17
f 17/17/17 11/11/11 15/15/15
f 17/17/17 15/15/15 18/18/18
f 19/19/19 21/21/21 20/20/20
f 19/19/19 22/22/22 21/21/21
f 22/22/22 23/23/23 21/21/21
f 22/22/22 24/24/24 23/23/23
f 25/25/25 22/22/22 19/19/19
f 25/25/25 26/26/26 22/22/22
f 26/26/26 24/24/24 22/22/22
f 26/26/26 27/27/27 24/24/24
f 28/28/28 30/30/30 29/29/29
f 28/28/28 31/31/31 30/30/30
f 31/31/31 32/32/32 30/30/30
f 31/31/31 33/33/33 32/32/32
f 34/34/34 31/31/31 28/28/28
f 34/34/34 35/35/35 31/31/31
f 35/35/35 33/33/33 31/31/31
f 35/35/35 36/36/36 33/33/33
f 37/37/37 39/39/39 38/38/38
f 37/37/37 40/40/40 39/39/39
f 38/38/38 39/39/39 41/41/41
f 38/38/38 41/41/41 42/42/42
f 43/43/43 37/37/37 38/38/38
f 43/43/43 38/38/38 44/44/44
f 44/44/44 38/38/38 42/42/42
f 44/44/44 42/42/42 45/45/45
f 46/46/46 48/48/48 47/47/47
f 46/46/46 49/49/49 48/48/48
f 47/47/47 48/48/48 50/50/50
f 47/47/47 50/50/50 51/51/51
f 52/52/52 46/46/46 47/47/47
f 52/52/52 47/47/47 53/53/53
f 53/53/53 47/47/47 51/51/51
f 53/53/53 51/51/51 54/54/54
f 55/55/55 57/57/57 56/56/56
f 55/55/55 58/58/58 57/57/57
f 58/58/58 59/59/59 57/57/57
f 58/58/58 60/60/60 59/59/59
f 61/61/61 58/58/58 55/55/55
f 61/61/61 62/62/62 58/58/58
f 62/62/62 60/60/60 58/58/58
f 62/62/62 63/63/63 60/60/60
f 64/64/64 66/66/66 65/65/65
f 64/64/64 67/67/67 66/66/66
f 67/67/67 68/68/68 66/66/66
f 67/67/67 69/69/69 68/68/68
f 70/70/70 67/67/67 64/64/64
f 70/70/70 71/71/71 67/67/67
f 71/71/71 69/69/69 67/67/67
f 71/71/71 72/72/72 69/69/69
f 73/73/73 75/75/75 74/74/74
f 73/73/73 76/76/76 75/75/75
f 74/74/74 75/75/75 77/77/77
f 74/74/74 77/77/77 78/78/78
f 79/79/79 73/73/73 74/74/74
f 79/79/79 74/74/74 80/80/80
f 80/80/80 74/74/74 78/78/78
f 80/80/80 78/78/78 81/81/81
f 82/82/82 84/84/84 83/83/83
f 82/82/82 85/85/85 84/84/84
f 83/83/83 84/84/84 86/86/86
f 83/83/83 86/86/86 87/87/87
f 88/88/88 82/82/82 83/83/83
f 88/88/88 83/83/83 89/89/89
f 89/89/89 83/83/83 87/87/87
f 89/89/89 87/87/87 90/90/90
f 91/91/91 93/93/93 92/92/92
f 91/91/91 94/94/94 93/93/93
f 94/94/94 95/95/95 93/93/93
f 94/94/94 96/96/96 95/95/95
f 97/97/97 94/94/94 91/91/91
f 97/97/97 98/98/98 94/94/94
f 98/98/98 96/96/96 94/94/94
f 98/98/98 99/99/99 96/96/96
f 100/100/100 102/102/102 101/101/101
f 100/100/100 103/103/103 102/102/102
f 103/103/103 104/104/104 102/102/102
f 103/103/103 105/105/105 104/104/104
f 106/106/106 103/103/103 100/100/100
f 106/106/106 107/107/107 103/103/103
f 107/107/107 105/105/105 103/103/103
f 107/107/107 108/108/108 105/105/105
