#Candlestick_01_(4)_6982_59.obj

v -0.02315298 0.7430087 -0.1398106
v -1.016166E-07 0.7430087 -0.162966
v -1.67599E-07 0.6660444 -0.1629661
v -0.03389737 0.6660444 -0.1629653
v 0.03390045 0.6660444 -0.1629651
v 0.02315192 0.7430087 -0.1861197
v 1.549836E-06 0.8199736 -0.1290662
v -3.563381E-08 0.8199736 -0.1629659
v 1.785822E-06 0.8199732 -0.196864
v 0.02315276 0.7430092 -0.1398123
v -1.016166E-07 0.7430087 -0.162966
v -1.675986E-07 0.6660448 -0.1629661
v 1.417871E-06 0.6660448 -0.1290663
v 1.653857E-06 0.6660444 -0.1968641
v -0.02315382 0.7430088 -0.186118
v 0.03390058 0.8199736 -0.162965
v -3.563381E-08 0.8199736 -0.1629659
v -0.03389724 0.8199736 -0.1629652
v -0.02315298 0.7430087 -0.1398106
v -0.03389737 0.6660444 -0.1629653
v -1.67599E-07 0.6660444 -0.1629661
v -1.016166E-07 0.7430087 -0.162966
v 0.03390045 0.6660444 -0.1629651
v 0.02315192 0.7430087 -0.1861197
v 1.549835E-06 0.8199731 -0.1290662
v -3.563422E-08 0.8199731 -0.1629659
v 1.785822E-06 0.8199732 -0.196864
v 0.02315276 0.7430087 -0.1398123
v 1.41787E-06 0.6660444 -0.1290663
v -1.67599E-07 0.6660444 -0.1629661
v -1.016166E-07 0.7430087 -0.162966
v 1.653857E-06 0.6660444 -0.1968641
v -0.02315382 0.7430088 -0.186118
v 0.03390058 0.8199731 -0.162965
v -3.563422E-08 0.8199731 -0.1629659
v -0.03389724 0.8199732 -0.1629652
v -0.0231542 0.743009 0.1864587
v 1.227925E-06 0.743009 0.1633067
v 1.161942E-06 0.6660446 0.1633066
v -0.03389945 0.6660446 0.1633056
v 0.03389923 0.6660445 0.1633042
v 0.02315411 0.743009 0.1401512
v -5.275492E-07 0.8199733 0.1972048
v 1.293907E-06 0.8199733 0.1633067
v -2.915624E-07 0.8199733 0.129407
v 0.02315495 0.7430089 0.1864587
v 1.227925E-06 0.743009 0.1633067
v 1.161942E-06 0.6660446 0.1633066
v -6.595141E-07 0.6660445 0.1972047
v -4.235276E-07 0.6660441 0.1294068
v -0.02315504 0.743009 0.1401512
v 0.03389936 0.8199733 0.1633043
v 1.293907E-06 0.8199733 0.1633067
v -0.03389932 0.8199733 0.1633058
v -0.0231542 0.743009 0.1864587
v -0.03389945 0.6660446 0.1633056
v 1.161942E-06 0.6660446 0.1633066
v 1.227925E-06 0.743009 0.1633067
v 0.03389923 0.6660445 0.1633042
v 0.02315411 0.743009 0.1401512
v -5.275492E-07 0.8199733 0.1972048
v 1.293907E-06 0.8199733 0.1633067
v -2.915624E-07 0.8199733 0.129407
v 0.02315495 0.7430089 0.1864587
v -6.595141E-07 0.6660445 0.1972047
v 1.161942E-06 0.6660441 0.1633066
v 1.227925E-06 0.743009 0.1633067
v 4.344894E-07 0.6660441 0.1294051
v -0.02315504 0.743009 0.1401512
v 0.03389936 0.8199733 0.1633043
v 1.293907E-06 0.8199733 0.1633067
v -0.03389932 0.8199733 0.1633058
v -0.02315473 0.8200297 0.02315266
v 7.030205E-07 0.8200297 6.540163E-07
v 6.370381E-07 0.7430654 5.926332E-07
v -0.03389998 0.7430654 -3.833772E-07
v 0.03389785 0.7430654 -1.473904E-07
v 0.02315273 0.8200297 -0.02315307
v -1.052453E-06 0.8969941 0.03389877
v 7.69003E-07 0.8969941 7.153994E-07
v -8.164665E-07 0.8969941 -0.03389905
v 0.02315357 0.8200297 0.02315438
v 7.030201E-07 0.8200293 6.540159E-07
v 6.370381E-07 0.7430654 5.926332E-07
v -1.184418E-06 0.7430654 0.03389865
v -9.484317E-07 0.7430649 -0.03389918
v -0.02315216 0.8200293 -0.02315307
v 0.03389798 0.8969941 -2.462422E-08
v 7.69003E-07 0.8969941 7.153994E-07
v -0.03389985 0.8969941 -2.60611E-07
v -0.02315473 0.8200293 0.02315266
v -0.03389998 0.7430649 -3.833775E-07
v 6.370377E-07 0.7430649 5.926328E-07
v 7.030201E-07 0.8200293 6.540159E-07
v 0.03389785 0.7430649 -1.473908E-07
v 0.02315273 0.8200293 -0.02315307
v -1.052454E-06 0.8969936 0.03389877
v 7.690026E-07 0.8969936 7.15399E-07
v -8.164669E-07 0.8969936 -0.03389905
v 0.02315357 0.8200297 0.02315438
v -1.184419E-06 0.7430649 0.03389865
v 6.370377E-07 0.7430649 5.926328E-07
v 7.030205E-07 0.8200297 6.540163E-07
v -9.484317E-07 0.7430649 -0.03389918
v -0.02315216 0.8200298 -0.02315307
v 0.03389798 0.8969936 -2.46246E-08
v 7.690026E-07 0.8969936 7.15399E-07
v -0.03389985 0.8969936 -2.606114E-07

vn -0.3085938 -0.177002 0.9345703
vn -0.3134766 1.192093E-06 0.949707
vn -0.6582031 1.072884E-06 0.7524414
vn -0.6494141 -0.1634521 0.7426758
vn -0.6494141 0.1634521 0.7426758
vn -0.3085938 0.177002 0.9345703
vn 0.07989502 -0.1634521 0.9833984
vn 0.08099365 1.072884E-06 0.996582
vn 0.07989502 0.1634521 0.9833984
vn 0.9345703 -0.177002 0.3085938
vn 0.949707 5.960464E-08 0.3134766
vn 0.7524414 4.768372E-07 0.6582031
vn 0.7426758 -0.1634521 0.6494141
vn 0.7426758 0.1634521 0.6494141
vn 0.9345703 0.177002 0.3085938
vn 0.9833984 -0.1634521 -0.07989502
vn 0.996582 -4.172325E-07 -0.08099365
vn 0.9833984 0.1634521 -0.07989502
vn 0.3085938 0.177002 -0.9345703
vn 0.6494141 0.1634521 -0.7426758
vn 0.6582031 -1.072884E-06 -0.7524414
vn 0.3134766 -1.192093E-06 -0.949707
vn 0.6494141 -0.1634521 -0.7426758
vn 0.3085938 -0.177002 -0.9345703
vn -0.07989502 0.1634521 -0.9833984
vn -0.08099365 -1.072884E-06 -0.996582
vn -0.07989502 -0.1634521 -0.9833984
vn -0.9345703 0.177002 -0.3085938
vn -0.7426758 0.1634521 -0.6494141
vn -0.7524414 -4.768372E-07 -0.6582031
vn -0.949707 -5.960464E-08 -0.3134766
vn -0.7426758 -0.1634521 -0.6494141
vn -0.9345703 -0.177002 -0.3085938
vn -0.9833984 0.1634521 0.07989502
vn -0.996582 4.172325E-07 0.08099365
vn -0.9833984 -0.1634521 0.07989502
vn -0.3085938 -0.177002 0.9345703
vn -0.3134766 1.192093E-06 0.949707
vn -0.6582031 1.072884E-06 0.7524414
vn -0.6494141 -0.1634521 0.7426758
vn -0.6494141 0.1634521 0.7426758
vn -0.3085938 0.177002 0.9345703
vn 0.07989502 -0.1634521 0.9833984
vn 0.08099365 1.072884E-06 0.996582
vn 0.07989502 0.1634521 0.9833984
vn 0.9345703 -0.177002 0.3085938
vn 0.949707 5.960464E-08 0.3134766
vn 0.7524414 4.768372E-07 0.6582031
vn 0.7426758 -0.1634521 0.6494141
vn 0.7426758 0.1634521 0.6494141
vn 0.9345703 0.177002 0.3085938
vn 0.9833984 -0.1634521 -0.07989502
vn 0.996582 -4.172325E-07 -0.08099365
vn 0.9833984 0.1634521 -0.07989502
vn 0.3085938 0.177002 -0.9345703
vn 0.6494141 0.1634521 -0.7426758
vn 0.6582031 -1.072884E-06 -0.7524414
vn 0.3134766 -1.192093E-06 -0.949707
vn 0.6494141 -0.1634521 -0.7426758
vn 0.3085938 -0.177002 -0.9345703
vn -0.07989502 0.1634521 -0.9833984
vn -0.08099365 -1.072884E-06 -0.996582
vn -0.07989502 -0.1634521 -0.9833984
vn -0.9345703 0.177002 -0.3085938
vn -0.7426758 0.1634521 -0.6494141
vn -0.7524414 -4.768372E-07 -0.6582031
vn -0.949707 -5.960464E-08 -0.3134766
vn -0.7426758 -0.1634521 -0.6494141
vn -0.9345703 -0.177002 -0.3085938
vn -0.9833984 0.1634521 0.07989502
vn -0.996582 4.172325E-07 0.08099365
vn -0.9833984 -0.1634521 0.07989502
vn -0.3085938 -0.177002 0.9345703
vn -0.3134766 1.192093E-06 0.949707
vn -0.6582031 1.072884E-06 0.7524414
vn -0.6494141 -0.1634521 0.7426758
vn -0.6494141 0.1634521 0.7426758
vn -0.3085938 0.177002 0.9345703
vn 0.07989502 -0.1634521 0.9833984
vn 0.08099365 1.072884E-06 0.996582
vn 0.07989502 0.1634521 0.9833984
vn 0.9345703 -0.177002 0.3085938
vn 0.949707 5.960464E-08 0.3134766
vn 0.7524414 4.768372E-07 0.6582031
vn 0.7426758 -0.1634521 0.6494141
vn 0.7426758 0.1634521 0.6494141
vn 0.9345703 0.177002 0.3085938
vn 0.9833984 -0.1634521 -0.07989502
vn 0.996582 -4.172325E-07 -0.08099365
vn 0.9833984 0.1634521 -0.07989502
vn 0.3085938 0.177002 -0.9345703
vn 0.6494141 0.1634521 -0.7426758
vn 0.6582031 -1.072884E-06 -0.7524414
vn 0.3134766 -1.192093E-06 -0.949707
vn 0.6494141 -0.1634521 -0.7426758
vn 0.3085938 -0.177002 -0.9345703
vn -0.07989502 0.1634521 -0.9833984
vn -0.08099365 -1.072884E-06 -0.996582
vn -0.07989502 -0.1634521 -0.9833984
vn -0.9345703 0.177002 -0.3085938
vn -0.7426758 0.1634521 -0.6494141
vn -0.7524414 -4.768372E-07 -0.6582031
vn -0.949707 -5.960464E-08 -0.3134766
vn -0.7426758 -0.1634521 -0.6494141
vn -0.9345703 -0.177002 -0.3085938
vn -0.9833984 0.1634521 0.07989502
vn -0.996582 4.172325E-07 0.08099365
vn -0.9833984 -0.1634521 0.07989502

vt 0 0.5
vt 0.5 0.5
vt 0.5 0
vt 0 0
vt 1 0
vt 1 0.5
vt 0 1
vt 0.5 1
vt 1 1
vt 0 0.5
vt 0.5 0.5
vt 0.5 0
vt 0 0
vt 1 0
vt 1 0.5
vt 0 1
vt 0.5 1
vt 1 1
vt 0 0.5
vt 0 0
vt 0.5 0
vt 0.5 0.5
vt 1 0
vt 1 0.5
vt 0 1
vt 0.5 1
vt 1 1
vt 0 0.5
vt 0 0
vt 0.5 0
vt 0.5 0.5
vt 1 0
vt 1 0.5
vt 0 1
vt 0.5 1
vt 1 1
vt 0 0.5
vt 0.5 0.5
vt 0.5 0
vt 0 0
vt 1 0
vt 1 0.5
vt 0 1
vt 0.5 1
vt 1 1
vt 0 0.5
vt 0.5 0.5
vt 0.5 0
vt 0 0
vt 1 0
vt 1 0.5
vt 0 1
vt 0.5 1
vt 1 1
vt 0 0.5
vt 0 0
vt 0.5 0
vt 0.5 0.5
vt 1 0
vt 1 0.5
vt 0 1
vt 0.5 1
vt 1 1
vt 0 0.5
vt 0 0
vt 0.5 0
vt 0.5 0.5
vt 1 0
vt 1 0.5
vt 0 1
vt 0.5 1
vt 1 1
vt 0 0.5
vt 0.5 0.5
vt 0.5 0
vt 0 0
vt 1 0
vt 1 0.5
vt 0 1
vt 0.5 1
vt 1 1
vt 0 0.5
vt 0.5 0.5
vt 0.5 0
vt 0 0
vt 1 0
vt 1 0.5
vt 0 1
vt 0.5 1
vt 1 1
vt 0 0.5
vt 0 0
vt 0.5 0
vt 0.5 0.5
vt 1 0
vt 1 0.5
vt 0 1
vt 0.5 1
vt 1 1
vt 0 0.5
vt 0 0
vt 0.5 0
vt 0.5 0.5
vt 1 0
vt 1 0.5
vt 0 1
vt 0.5 1
vt 1 1

g Candlestick_01_(4)_6982_59
usemtl Candlestick_01_(4)_6982_59
usemap Candlestick_01_(4)_6982_59
f 1/1/1 3/3/3 2/2/2
f 1/1/1 4/4/4 3/3/3
f 2/2/2 3/3/3 5/5/5
f 2/2/2 5/5/5 6/6/6
f 7/7/7 1/1/1 2/2/2
f 7/7/7 2/2/2 8/8/8
f 8/8/8 2/2/2 6/6/6
f 8/8/8 6/6/6 9/9/9
f 10/10/10 12/12/12 11/11/11
f 10/10/10 13/13/13 12/12/12
f 11/11/11 12/12/12 14/14/14
f 11/11/11 14/14/14 15/15/15
f 16/16/16 10/10/10 11/11/11
f 16/16/16 11/11/11 17/17/17
f 17/17/17 11/11/11 15/15/15
f 17/17/17 15/15/15 18/18/18
f 19/19/19 21/21/21 20/20/20
f 19/19/19 22/22/22 21/21/21
f 22/22/22 23/23/23 21/21/21
f 22/22/22 24/24/24 23/23/23
f 25/25/25 22/22/22 19/19/19
f 25/25/25 26/26/26 22/22/22
f 26/26/26 24/24/24 22/22/22
f 26/26/26 27/27/27 24/24/24
f 28/28/28 30/30/30 29/29/29
f 28/28/28 31/31/31 30/30/30
f 31/31/31 32/32/32 30/30/30
f 31/31/31 33/33/33 32/32/32
f 34/34/34 31/31/31 28/28/28
f 34/34/34 35/35/35 31/31/31
f 35/35/35 33/33/33 31/31/31
f 35/35/35 36/36/36 33/33/33
f 37/37/37 39/39/39 38/38/38
f 37/37/37 40/40/40 39/39/39
f 38/38/38 39/39/39 41/41/41
f 38/38/38 41/41/41 42/42/42
f 43/43/43 37/37/37 38/38/38
f 43/43/43 38/38/38 44/44/44
f 44/44/44 38/38/38 42/42/42
f 44/44/44 42/42/42 45/45/45
f 46/46/46 48/48/48 47/47/47
f 46/46/46 49/49/49 48/48/48
f 47/47/47 48/48/48 50/50/50
f 47/47/47 50/50/50 51/51/51
f 52/52/52 46/46/46 47/47/47
f 52/52/52 47/47/47 53/53/53
f 53/53/53 47/47/47 51/51/51
f 53/53/53 51/51/51 54/54/54
f 55/55/55 57/57/57 56/56/56
f 55/55/55 58/58/58 57/57/57
f 58/58/58 59/59/59 57/57/57
f 58/58/58 60/60/60 59/59/59
f 61/61/61 58/58/58 55/55/55
f 61/61/61 62/62/62 58/58/58
f 62/62/62 60/60/60 58/58/58
f 62/62/62 63/63/63 60/60/60
f 64/64/64 66/66/66 65/65/65
f 64/64/64 67/67/67 66/66/66
f 67/67/67 68/68/68 66/66/66
f 67/67/67 69/69/69 68/68/68
f 70/70/70 67/67/67 64/64/64
f 70/70/70 71/71/71 67/67/67
f 71/71/71 69/69/69 67/67/67
f 71/71/71 72/72/72 69/69/69
f 73/73/73 75/75/75 74/74/74
f 73/73/73 76/76/76 75/75/75
f 74/74/74 75/75/75 77/77/77
f 74/74/74 77/77/77 78/78/78
f 79/79/79 73/73/73 74/74/74
f 79/79/79 74/74/74 80/80/80
f 80/80/80 74/74/74 78/78/78
f 80/80/80 78/78/78 81/81/81
f 82/82/82 84/84/84 83/83/83
f 82/82/82 85/85/85 84/84/84
f 83/83/83 84/84/84 86/86/86
f 83/83/83 86/86/86 87/87/87
f 88/88/88 82/82/82 83/83/83
f 88/88/88 83/83/83 89/89/89
f 89/89/89 83/83/83 87/87/87
f 89/89/89 87/87/87 90/90/90
f 91/91/91 93/93/93 92/92/92
f 91/91/91 94/94/94 93/93/93
f 94/94/94 95/95/95 93/93/93
f 94/94/94 96/96/96 95/95/95
f 97/97/97 94/94/94 91/91/91
f 97/97/97 98/98/98 94/94/94
f 98/98/98 96/96/96 94/94/94
f 98/98/98 99/99/99 96/96/96
f 100/100/100 102/102/102 101/101/101
f 100/100/100 103/103/103 102/102/102
f 103/103/103 104/104/104 102/102/102
f 103/103/103 105/105/105 104/104/104
f 106/106/106 103/103/103 100/100/100
f 106/106/106 107/107/107 103/103/103
f 107/107/107 105/105/105 103/103/103
f 107/107/107 108/108/108 105/105/105
