#Chair_Wooden_01_6749_45.obj

v 0.2745999 0.4746 -0.2701003
v 0.2745999 0.3857 -0.2701003
v 0.2649003 0.3857 0.2791002
v 0.2649003 0.4746 0.2791002
v -0.2745992 0.3708 -0.2726001
v -0.2745992 0.4746 -0.2726001
v -0.2649004 0.4746 0.2791001
v -0.2649004 0.3857 0.2791001
v -0.1168002 0.3796 -0.2276995
v -0.1189003 0 -0.2568008
v -0.1188999 0 -0.1151993
v -0.1167995 0.3796 -0.1130997
v -0.2605007 0 -0.1152002
v -0.2605005 0 -0.2567998
v -0.2313994 0.3796 -0.2277
v -0.2314005 0.3796 -0.1130996
v -0.1188999 0 -0.1151993
v -0.2605007 0 -0.1152002
v -0.2314005 0.3796 -0.1130996
v -0.1167995 0.3796 -0.1130997
v -0.2313994 0.3796 -0.2277
v -0.2605005 0 -0.2567998
v -0.1189003 0 -0.2568008
v -0.1168002 0.3796 -0.2276995
v 0.2322 0.3871 -0.1124002
v 0.2613006 0 -0.1144001
v 0.1197003 0 -0.1143992
v 0.1176002 0.3871 -0.1123006
v 0.1197 0 -0.2560006
v 0.2612996 0 -0.2560004
v 0.2322004 0.3871 -0.2269005
v 0.1176006 0.3871 -0.2268997
v 0.1197003 0 -0.1143992
v 0.1197 0 -0.2560006
v 0.1176006 0.3871 -0.2268997
v 0.1176002 0.3871 -0.1123006
v 0.2322004 0.3871 -0.2269005
v 0.2612996 0 -0.2560004
v 0.2613006 0 -0.1144001
v 0.2322 0.3871 -0.1124002
v 0.1167999 0.3871 0.2366006
v 0.1189 0 0.2658007
v 0.1189008 0 0.1241999
v 0.1168004 0.3871 0.1221003
v 0.2605004 0 0.1242001
v 0.2605002 0 0.2657997
v 0.2313997 0.3871 0.2365998
v 0.2314002 0.3871 0.1220995
v 0.1189008 0 0.1241999
v 0.2605004 0 0.1242001
v 0.2314002 0.3871 0.1220995
v 0.1168004 0.3871 0.1221003
v 0.2313997 0.3871 0.2365998
v 0.2605002 0 0.2657997
v 0.1189 0 0.2658007
v 0.1167999 0.3871 0.2366006
v -0.2321996 0.3796 0.1213
v -0.2612997 0 0.1234007
v -0.1196994 0 0.1233997
v -0.1176005 0.3796 0.1213005
v -0.1197003 0 0.2650005
v -0.2612999 0 0.2650003
v -0.2322001 0.3796 0.2358992
v -0.1175997 0.3796 0.2359003
v -0.1196994 0 0.1233997
v -0.1197003 0 0.2650005
v -0.1175997 0.3796 0.2359003
v -0.1176005 0.3796 0.1213005
v -0.2322001 0.3796 0.2358992
v -0.2612999 0 0.2650003
v -0.2612997 0 0.1234007
v -0.2321996 0.3796 0.1213
v -0.2745992 0.3708 -0.2726001
v -0.2649004 0.3857 0.2791001
v -0.09770028 0.3857 0.2717998
v -0.1112002 0.3751 -0.2791007
v -0.08929985 0.3759 -0.2720995
v 0.08649946 0.3806 -0.2646997
v 0.08769996 0.3857 0.2717995
v 0.2745999 0.3857 -0.2701003
v 0.2649003 0.3857 0.2791002
v -0.2745992 0.4746 -0.2726001
v -0.2745992 0.3708 -0.2726001
v -0.1112002 0.3751 -0.2791007
v -0.1120009 0.4746 -0.2790998
v -0.08929985 0.3759 -0.2720995
v -0.08630005 0.4746 -0.2721
v 0.08649946 0.3806 -0.2646997
v 0.08900008 0.4746 -0.2646997
v 0.2745999 0.3857 -0.2701003
v 0.2745999 0.4746 -0.2701003
v 0.08769996 0.3857 0.2717995
v 0.08419979 0.4746 0.2717999
v 0.2649003 0.4746 0.2791002
v 0.2649003 0.3857 0.2791002
v -0.09260017 0.4746 0.2717998
v -0.09770028 0.3857 0.2717998
v -0.2649004 0.4746 0.2791001
v -0.2649004 0.3857 0.2791001
v -0.09260017 0.4746 0.2717998
v -0.2649004 0.4746 0.2791001
v -0.2745992 0.4746 -0.2726001
v -0.1120009 0.4746 -0.2790998
v -0.08630005 0.4746 -0.2721
v 0.08900008 0.4746 -0.2646997
v 0.08419979 0.4746 0.2717999
v 0.2649003 0.4746 0.2791002
v 0.2745999 0.4746 -0.2701003

vn 0.8769531 0 -0.4802246
vn 0.8769531 0 -0.4802246
vn 0.8769531 0 -0.4802246
vn 0.8769531 0 -0.4802246
vn -0.859375 0 0.5112305
vn -0.859375 0 0.5112305
vn -0.859375 0 0.5112305
vn -0.859375 0 0.5112305
vn 0.8686523 -0.006298065 -0.4958496
vn 0.8686523 -0.006298065 -0.4958496
vn 0.8686523 -0.006298065 -0.4958496
vn 0.8686523 -0.006298065 -0.4958496
vn -0.8652344 0.08905029 0.4938965
vn -0.8652344 0.08905029 0.4938965
vn -0.8652344 0.08905029 0.4938965
vn -0.8652344 0.08905029 0.4938965
vn 0.4958496 -0.006534576 0.8686523
vn 0.4958496 -0.006534576 0.8686523
vn 0.4958496 -0.006534576 0.8686523
vn 0.4958496 -0.006534576 0.8686523
vn -0.4938965 0.08929443 -0.8647461
vn -0.4938965 0.08929443 -0.8647461
vn -0.4938965 0.08929443 -0.8647461
vn -0.4938965 0.08929443 -0.8647461
vn 0.4958496 -0.006183624 0.8686523
vn 0.4958496 -0.006183624 0.8686523
vn 0.4958496 -0.006183624 0.8686523
vn 0.4958496 -0.006183624 0.8686523
vn -0.4938965 0.08740234 -0.8652344
vn -0.4938965 0.08740234 -0.8652344
vn -0.4938965 0.08740234 -0.8652344
vn -0.4938965 0.08740234 -0.8652344
vn -0.8686523 -0.006416321 0.4958496
vn -0.8686523 -0.006416321 0.4958496
vn -0.8686523 -0.006416321 0.4958496
vn -0.8686523 -0.006416321 0.4958496
vn 0.8652344 0.08752441 -0.4938965
vn 0.8652344 0.08752441 -0.4938965
vn 0.8652344 0.08752441 -0.4938965
vn 0.8652344 0.08752441 -0.4938965
vn -0.8686523 -0.006183624 0.4958496
vn -0.8686523 -0.006183624 0.4958496
vn -0.8686523 -0.006183624 0.4958496
vn -0.8686523 -0.006183624 0.4958496
vn 0.8652344 0.08740234 -0.4938965
vn 0.8652344 0.08740234 -0.4938965
vn 0.8652344 0.08740234 -0.4938965
vn 0.8652344 0.08740234 -0.4938965
vn -0.4958496 -0.006416321 -0.8686523
vn -0.4958496 -0.006416321 -0.8686523
vn -0.4958496 -0.006416321 -0.8686523
vn -0.4958496 -0.006416321 -0.8686523
vn 0.4938965 0.08752441 0.8652344
vn 0.4938965 0.08752441 0.8652344
vn 0.4938965 0.08752441 0.8652344
vn 0.4938965 0.08752441 0.8652344
vn -0.4958496 -0.006298065 -0.8686523
vn -0.4958496 -0.006298065 -0.8686523
vn -0.4958496 -0.006298065 -0.8686523
vn -0.4958496 -0.006298065 -0.8686523
vn 0.4938965 0.08905029 0.8652344
vn 0.4938965 0.08905029 0.8652344
vn 0.4938965 0.08905029 0.8652344
vn 0.4938965 0.08905029 0.8652344
vn 0.8686523 -0.006534576 -0.4958496
vn 0.8686523 -0.006534576 -0.4958496
vn 0.8686523 -0.006534576 -0.4958496
vn 0.8686523 -0.006534576 -0.4958496
vn -0.8647461 0.08929443 0.4938965
vn -0.8647461 0.08929443 0.4938965
vn -0.8647461 0.08929443 0.4938965
vn -0.8647461 0.08929443 0.4938965
vn 0.02018738 -0.9995117 0.0109787
vn 0.02018738 -0.9995117 0.0109787
vn 0.02438354 -0.9995117 0.006408691
vn 0.02438354 -0.9995117 0.006408691
vn 0.02856445 -0.9995117 0.00195694
vn 0.01385498 -1 0.001270294
vn 0.01385498 -1 0.001270294
vn 0.01239014 -1 -0.002334595
vn 0.01239014 -1 -0.002334595
vn -0.5297852 -0.0002332926 -0.8481445
vn -0.5297852 -0.0002332926 -0.8481445
vn -0.3847656 -0.001983643 -0.9228516
vn -0.3847656 -0.001983643 -0.9228516
vn -0.3469238 -0.002567291 -0.9379883
vn -0.3469238 -0.002567291 -0.9379883
vn -0.4902344 -0.0004665852 -0.871582
vn -0.4902344 -0.0004665852 -0.871582
vn -0.5209961 0.0004665852 -0.8535156
vn -0.5209961 0.0004665852 -0.8535156
vn 0.4780273 -0.0004665852 0.878418
vn 0.4780273 -0.0004665852 0.878418
vn 0.4602051 -0.0009331703 0.8876953
vn 0.4602051 -0.0009331703 0.8876953
vn 0.5141602 -0.001399994 0.8579102
vn 0.5205078 -0.0009331703 0.8540039
vn 0.5327148 -0.001399994 0.8461914
vn 0.5332031 0 0.8461914
vn 0 1 0
vn 0 1 0
vn 0 1 0
vn 0 1 0
vn 0 1 0
vn 0 1 0
vn 0 1 0
vn 0 1 0
vn 0 1 0

vt 0.824707 0.109375
vt 0.824707 0.08978271
vt 0.7211914 0.08978271
vt 0.7211914 0.109375
vt 0.824707 0.08978271
vt 0.824707 0.109375
vt 0.7211914 0.109375
vt 0.7211914 0.08978271
vt 0.5693359 0.4309082
vt 0.7050781 0.4309082
vt 0.7050781 0.4577637
vt 0.5693359 0.4577637
vt 0.7050781 0.4833984
vt 0.7050781 0.4577637
vt 0.5693359 0.4577637
vt 0.5693359 0.4833984
vt 0.7050781 0.4577637
vt 0.7050781 0.4833984
vt 0.5693359 0.4833984
vt 0.5693359 0.4577637
vt 0.5693359 0.4577637
vt 0.7050781 0.4577637
vt 0.7050781 0.4309082
vt 0.5693359 0.4309082
vt 0.5693359 0.4309082
vt 0.7050781 0.4309082
vt 0.7050781 0.4577637
vt 0.5693359 0.4577637
vt 0.7050781 0.4833984
vt 0.7050781 0.4577637
vt 0.5693359 0.4577637
vt 0.5693359 0.4833984
vt 0.7050781 0.4577637
vt 0.7050781 0.4833984
vt 0.5693359 0.4833984
vt 0.5693359 0.4577637
vt 0.5693359 0.4577637
vt 0.7050781 0.4577637
vt 0.7050781 0.4309082
vt 0.5693359 0.4309082
vt 0.5693359 0.4309082
vt 0.7050781 0.4309082
vt 0.7050781 0.4577637
vt 0.5693359 0.4577637
vt 0.7050781 0.4833984
vt 0.7050781 0.4577637
vt 0.5693359 0.4577637
vt 0.5693359 0.4833984
vt 0.7050781 0.4577637
vt 0.7050781 0.4833984
vt 0.5693359 0.4833984
vt 0.5693359 0.4577637
vt 0.5693359 0.4577637
vt 0.7050781 0.4577637
vt 0.7050781 0.4309082
vt 0.5693359 0.4309082
vt 0.5693359 0.4309082
vt 0.7050781 0.4309082
vt 0.7050781 0.4577637
vt 0.5693359 0.4577637
vt 0.7050781 0.4833984
vt 0.7050781 0.4577637
vt 0.5693359 0.4577637
vt 0.5693359 0.4833984
vt 0.7050781 0.4577637
vt 0.7050781 0.4833984
vt 0.5693359 0.4833984
vt 0.5693359 0.4577637
vt 0.5693359 0.4577637
vt 0.7050781 0.4577637
vt 0.7050781 0.4309082
vt 0.5693359 0.4309082
vt 0.6943359 0.1794434
vt 0.6943359 0.2122803
vt 0.684082 0.2122803
vt 0.6845703 0.1794434
vt 0.6831055 0.1794434
vt 0.6728516 0.1794434
vt 0.6723633 0.2122803
vt 0.6616211 0.1794434
vt 0.6616211 0.2122803
vt 0.824707 0.2126465
vt 0.8442383 0.2126465
vt 0.8442383 0.1824951
vt 0.824707 0.1827393
vt 0.8442383 0.1773682
vt 0.824707 0.1768799
vt 0.8442383 0.1446533
vt 0.824707 0.144043
vt 0.8442383 0.109375
vt 0.824707 0.109375
vt 0.7016602 0.1439209
vt 0.7211914 0.1446533
vt 0.7211914 0.109375
vt 0.7016602 0.109375
vt 0.7211914 0.1790771
vt 0.7016602 0.1800537
vt 0.7211914 0.2126465
vt 0.7016602 0.2126465
vt 0.7211914 0.1790771
vt 0.7211914 0.2126465
vt 0.824707 0.2126465
vt 0.824707 0.1827393
vt 0.824707 0.1768799
vt 0.824707 0.144043
vt 0.7211914 0.1446533
vt 0.7211914 0.109375
vt 0.824707 0.109375

g Chair_Wooden_01_6749_45
usemtl Chair_Wooden_01_6749_45
usemap Chair_Wooden_01_6749_45
f 1/1/1 3/3/3 2/2/2
f 1/1/1 4/4/4 3/3/3
f 5/5/5 7/7/7 6/6/6
f 5/5/5 8/8/8 7/7/7
f 9/9/9 11/11/11 10/10/10
f 9/9/9 12/12/12 11/11/11
f 13/13/13 15/15/15 14/14/14
f 13/13/13 16/16/16 15/15/15
f 17/17/17 19/19/19 18/18/18
f 17/17/17 20/20/20 19/19/19
f 21/21/21 23/23/23 22/22/22
f 21/21/21 24/24/24 23/23/23
f 25/25/25 27/27/27 26/26/26
f 25/25/25 28/28/28 27/27/27
f 29/29/29 31/31/31 30/30/30
f 29/29/29 32/32/32 31/31/31
f 33/33/33 35/35/35 34/34/34
f 33/33/33 36/36/36 35/35/35
f 37/37/37 39/39/39 38/38/38
f 37/37/37 40/40/40 39/39/39
f 41/41/41 43/43/43 42/42/42
f 41/41/41 44/44/44 43/43/43
f 45/45/45 47/47/47 46/46/46
f 45/45/45 48/48/48 47/47/47
f 49/49/49 51/51/51 50/50/50
f 49/49/49 52/52/52 51/51/51
f 53/53/53 55/55/55 54/54/54
f 53/53/53 56/56/56 55/55/55
f 57/57/57 59/59/59 58/58/58
f 57/57/57 60/60/60 59/59/59
f 61/61/61 63/63/63 62/62/62
f 61/61/61 64/64/64 63/63/63
f 65/65/65 67/67/67 66/66/66
f 65/65/65 68/68/68 67/67/67
f 69/69/69 71/71/71 70/70/70
f 69/69/69 72/72/72 71/71/71
f 73/73/73 75/75/75 74/74/74
f 73/73/73 76/76/76 75/75/75
f 75/75/75 76/76/76 77/77/77
f 78/78/78 75/75/75 77/77/77
f 78/78/78 79/79/79 75/75/75
f 79/79/79 78/78/78 80/80/80
f 79/79/79 80/80/80 81/81/81
f 82/82/82 84/84/84 83/83/83
f 82/82/82 85/85/85 84/84/84
f 85/85/85 86/86/86 84/84/84
f 85/85/85 87/87/87 86/86/86
f 87/87/87 88/88/88 86/86/86
f 87/87/87 89/89/89 88/88/88
f 89/89/89 90/90/90 88/88/88
f 89/89/89 91/91/91 90/90/90
f 92/92/92 94/94/94 93/93/93
f 92/92/92 95/95/95 94/94/94
f 92/92/92 93/93/93 96/96/96
f 92/92/92 96/96/96 97/97/97
f 96/96/96 98/98/98 97/97/97
f 99/99/99 97/97/97 98/98/98
f 100/100/100 102/102/102 101/101/101
f 100/100/100 103/103/103 102/102/102
f 100/100/100 104/104/104 103/103/103
f 100/100/100 105/105/105 104/104/104
f 100/100/100 106/106/106 105/105/105
f 107/107/107 105/105/105 106/106/106
f 107/107/107 108/108/108 105/105/105
