#Chair_Wooden_01_6661_90.obj

v 0.2745996 0.4746 -0.2701003
v 0.2745996 0.3857 -0.2701003
v 0.2648993 0.3857 0.2790999
v 0.2648993 0.4746 0.2790999
v -0.2745998 0.3708 -0.2726
v -0.2745998 0.4746 -0.2726
v -0.2649005 0.4746 0.2791003
v -0.2649005 0.3857 0.2791003
v -0.1168001 0.3796 -0.2276997
v -0.1189008 0 -0.2567996
v -0.1188992 0 -0.1151998
v -0.1168007 0.3796 -0.1131002
v -0.2604998 0 -0.1151998
v -0.2604998 0 -0.2567996
v -0.2313996 0.3796 -0.2277003
v -0.2314002 0.3796 -0.1131
v -0.1188992 0 -0.1151998
v -0.2604998 0 -0.1151998
v -0.2314002 0.3796 -0.1131
v -0.1168007 0.3796 -0.1131002
v -0.2313996 0.3796 -0.2277003
v -0.2604998 0 -0.2567996
v -0.1189008 0 -0.2567996
v -0.1168001 0.3796 -0.2276997
v 0.2322003 0.3871 -0.1123996
v 0.2612994 0 -0.1144001
v 0.1197003 0 -0.1144002
v 0.1176 0.3871 -0.1123001
v 0.1197004 0 -0.256
v 0.2612994 0 -0.256
v 0.2322 0.3871 -0.2268997
v 0.1176006 0.3871 -0.2269004
v 0.1197003 0 -0.1144002
v 0.1197004 0 -0.256
v 0.1176006 0.3871 -0.2269004
v 0.1176 0.3871 -0.1123001
v 0.2322 0.3871 -0.2268997
v 0.2612994 0 -0.256
v 0.2612994 0 -0.1144001
v 0.2322003 0.3871 -0.1123996
v 0.1168001 0.3871 0.2365999
v 0.1188999 0 0.2658
v 0.1188999 0 0.1242002
v 0.1167998 0.3871 0.1220998
v 0.2605006 0 0.1242002
v 0.2605005 0 0.2658
v 0.2313995 0.3871 0.2365997
v 0.2313993 0.3871 0.1220996
v 0.1188999 0 0.1242002
v 0.2605006 0 0.1242002
v 0.2313993 0.3871 0.1220996
v 0.1167998 0.3871 0.1220998
v 0.2313995 0.3871 0.2365997
v 0.2605005 0 0.2658
v 0.1188999 0 0.2658
v 0.1168001 0.3871 0.2365999
v -0.2322003 0.3796 0.1212999
v -0.2613002 0 0.1233997
v -0.1196996 0 0.1233998
v -0.1175992 0.3796 0.1212997
v -0.1196997 0 0.2649996
v -0.2613003 0 0.2650003
v -0.2321993 0.3796 0.2359001
v -0.1175999 0.3796 0.2358999
v -0.1196996 0 0.1233998
v -0.1196997 0 0.2649996
v -0.1175999 0.3796 0.2358999
v -0.1175992 0.3796 0.1212997
v -0.2321993 0.3796 0.2359001
v -0.2613003 0 0.2650003
v -0.2613002 0 0.1233997
v -0.2322003 0.3796 0.1212999
v -0.2745998 0.3708 -0.2726
v -0.2649005 0.3857 0.2791003
v -0.0977002 0.3857 0.2717999
v -0.1111997 0.3751 -0.2791
v -0.08930045 0.3759 -0.2721002
v 0.0865002 0.3806 -0.2646997
v 0.08770034 0.3857 0.2717997
v 0.2745996 0.3857 -0.2701003
v 0.2648993 0.3857 0.2790999
v -0.2745998 0.4746 -0.2726
v -0.2745998 0.3708 -0.2726
v -0.1111997 0.3751 -0.2791
v -0.1119994 0.4746 -0.2791003
v -0.08930045 0.3759 -0.2721002
v -0.08630032 0.4746 -0.2721004
v 0.0865002 0.3806 -0.2646997
v 0.08899949 0.4746 -0.2647001
v 0.2745996 0.3857 -0.2701003
v 0.2745996 0.4746 -0.2701003
v 0.08770034 0.3857 0.2717997
v 0.0841994 0.4746 0.2717998
v 0.2648993 0.4746 0.2790999
v 0.2648993 0.3857 0.2790999
v -0.09259982 0.4746 0.2717998
v -0.0977002 0.3857 0.2717999
v -0.2649005 0.4746 0.2791003
v -0.2649005 0.3857 0.2791003
v -0.09259982 0.4746 0.2717998
v -0.2649005 0.4746 0.2791003
v -0.2745998 0.4746 -0.2726
v -0.1119994 0.4746 -0.2791003
v -0.08630032 0.4746 -0.2721004
v 0.08899949 0.4746 -0.2647001
v 0.0841994 0.4746 0.2717998
v 0.2648993 0.4746 0.2790999
v 0.2745996 0.4746 -0.2701003

vn 0.9990234 0 0.04107666
vn 0.9990234 0 0.04107666
vn 0.9990234 0 0.04107666
vn 0.9990234 0 0.04107666
vn -1 0 -0.005794525
vn -1 0 -0.005794525
vn -1 0 -0.005794525
vn -1 0 -0.005794525
vn 0.9995117 -0.005401611 0.02339172
vn 0.9995117 -0.005401611 0.02339172
vn 0.9995117 -0.005401611 0.02339172
vn 0.9995117 -0.005401611 0.02339172
vn -0.996582 0.07641602 -0.02333069
vn -0.996582 0.07641602 -0.02333069
vn -0.996582 0.07641602 -0.02333069
vn -0.996582 0.07641602 -0.02333069
vn -0.02339172 -0.005599976 0.9995117
vn -0.02339172 -0.005599976 0.9995117
vn -0.02339172 -0.005599976 0.9995117
vn -0.02339172 -0.005599976 0.9995117
vn 0.02333069 0.07659912 -0.996582
vn 0.02333069 0.07659912 -0.996582
vn 0.02333069 0.07659912 -0.996582
vn 0.02333069 0.07659912 -0.996582
vn -0.02339172 -0.005298615 0.9995117
vn -0.02339172 -0.005298615 0.9995117
vn -0.02339172 -0.005298615 0.9995117
vn -0.02339172 -0.005298615 0.9995117
vn 0.02333069 0.07501221 -0.9970703
vn 0.02333069 0.07501221 -0.9970703
vn 0.02333069 0.07501221 -0.9970703
vn 0.02333069 0.07501221 -0.9970703
vn -0.9995117 -0.005500793 -0.02339172
vn -0.9995117 -0.005500793 -0.02339172
vn -0.9995117 -0.005500793 -0.02339172
vn -0.9995117 -0.005500793 -0.02339172
vn 0.9970703 0.07507324 0.02333069
vn 0.9970703 0.07507324 0.02333069
vn 0.9970703 0.07507324 0.02333069
vn 0.9970703 0.07507324 0.02333069
vn -0.9995117 -0.005298615 -0.02339172
vn -0.9995117 -0.005298615 -0.02339172
vn -0.9995117 -0.005298615 -0.02339172
vn -0.9995117 -0.005298615 -0.02339172
vn 0.9970703 0.07501221 0.02333069
vn 0.9970703 0.07501221 0.02333069
vn 0.9970703 0.07501221 0.02333069
vn 0.9970703 0.07501221 0.02333069
vn 0.02339172 -0.005500793 -0.9995117
vn 0.02339172 -0.005500793 -0.9995117
vn 0.02339172 -0.005500793 -0.9995117
vn 0.02339172 -0.005500793 -0.9995117
vn -0.02333069 0.07507324 0.9970703
vn -0.02333069 0.07507324 0.9970703
vn -0.02333069 0.07507324 0.9970703
vn -0.02333069 0.07507324 0.9970703
vn 0.02339172 -0.005401611 -0.9995117
vn 0.02339172 -0.005401611 -0.9995117
vn 0.02339172 -0.005401611 -0.9995117
vn 0.02339172 -0.005401611 -0.9995117
vn -0.02333069 0.07641602 0.996582
vn -0.02333069 0.07641602 0.996582
vn -0.02333069 0.07641602 0.996582
vn -0.02333069 0.07641602 0.996582
vn 0.9995117 -0.005599976 0.02339172
vn 0.9995117 -0.005599976 0.02339172
vn 0.9995117 -0.005599976 0.02339172
vn 0.9995117 -0.005599976 0.02339172
vn -0.996582 0.07659912 -0.02333069
vn -0.996582 0.07659912 -0.02333069
vn -0.996582 0.07659912 -0.02333069
vn -0.996582 0.07659912 -0.02333069
vn 0.01356506 -0.9995117 0.02311707
vn 0.01356506 -0.9995117 0.02311707
vn 0.02050781 -0.9995117 0.02108765
vn 0.02050781 -0.9995117 0.02108765
vn 0.02735901 -0.9995117 0.01914978
vn 0.01307678 -1 0.009605408
vn 0.01307678 -1 0.009605408
vn 0.01378632 -1 0.005123138
vn 0.01378632 -1 0.005123138
vn -0.01611328 -0.0002000332 -1
vn -0.01611328 -0.0002000332 -1
vn 0.1466064 -0.001700401 -0.9892578
vn 0.1466064 -0.001700401 -0.9892578
vn 0.1867676 -0.002199173 -0.9824219
vn 0.1867676 -0.002199173 -0.9824219
vn 0.02989197 -0.0004000664 -0.9995117
vn 0.02989197 -0.0004000664 -0.9995117
vn -0.005607605 0.0004000664 -1
vn -0.005607605 0.0004000664 -1
vn -0.04367065 -0.0004000664 0.9990234
vn -0.04367065 -0.0004000664 0.9990234
vn -0.06396484 -0.0008001328 0.9980469
vn -0.06396484 -0.0008001328 0.9980469
vn -0.00229454 -0.001199722 1
vn 0.005207062 -0.0008001328 1
vn 0.01940918 -0.001199722 1
vn 0.02011108 0 1
vn 0 1 0
vn 0 1 0
vn 0 1 0
vn 0 1 0
vn 0 1 0
vn 0 1 0
vn 0 1 0
vn 0 1 0
vn 0 1 0

vt 0.824707 0.109375
vt 0.824707 0.08978271
vt 0.7211914 0.08978271
vt 0.7211914 0.109375
vt 0.824707 0.08978271
vt 0.824707 0.109375
vt 0.7211914 0.109375
vt 0.7211914 0.08978271
vt 0.5693359 0.4309082
vt 0.7050781 0.4309082
vt 0.7050781 0.4577637
vt 0.5693359 0.4577637
vt 0.7050781 0.4833984
vt 0.7050781 0.4577637
vt 0.5693359 0.4577637
vt 0.5693359 0.4833984
vt 0.7050781 0.4577637
vt 0.7050781 0.4833984
vt 0.5693359 0.4833984
vt 0.5693359 0.4577637
vt 0.5693359 0.4577637
vt 0.7050781 0.4577637
vt 0.7050781 0.4309082
vt 0.5693359 0.4309082
vt 0.5693359 0.4309082
vt 0.7050781 0.4309082
vt 0.7050781 0.4577637
vt 0.5693359 0.4577637
vt 0.7050781 0.4833984
vt 0.7050781 0.4577637
vt 0.5693359 0.4577637
vt 0.5693359 0.4833984
vt 0.7050781 0.4577637
vt 0.7050781 0.4833984
vt 0.5693359 0.4833984
vt 0.5693359 0.4577637
vt 0.5693359 0.4577637
vt 0.7050781 0.4577637
vt 0.7050781 0.4309082
vt 0.5693359 0.4309082
vt 0.5693359 0.4309082
vt 0.7050781 0.4309082
vt 0.7050781 0.4577637
vt 0.5693359 0.4577637
vt 0.7050781 0.4833984
vt 0.7050781 0.4577637
vt 0.5693359 0.4577637
vt 0.5693359 0.4833984
vt 0.7050781 0.4577637
vt 0.7050781 0.4833984
vt 0.5693359 0.4833984
vt 0.5693359 0.4577637
vt 0.5693359 0.4577637
vt 0.7050781 0.4577637
vt 0.7050781 0.4309082
vt 0.5693359 0.4309082
vt 0.5693359 0.4309082
vt 0.7050781 0.4309082
vt 0.7050781 0.4577637
vt 0.5693359 0.4577637
vt 0.7050781 0.4833984
vt 0.7050781 0.4577637
vt 0.5693359 0.4577637
vt 0.5693359 0.4833984
vt 0.7050781 0.4577637
vt 0.7050781 0.4833984
vt 0.5693359 0.4833984
vt 0.5693359 0.4577637
vt 0.5693359 0.4577637
vt 0.7050781 0.4577637
vt 0.7050781 0.4309082
vt 0.5693359 0.4309082
vt 0.6943359 0.1794434
vt 0.6943359 0.2122803
vt 0.684082 0.2122803
vt 0.6845703 0.1794434
vt 0.6831055 0.1794434
vt 0.6728516 0.1794434
vt 0.6723633 0.2122803
vt 0.6616211 0.1794434
vt 0.6616211 0.2122803
vt 0.824707 0.2126465
vt 0.8442383 0.2126465
vt 0.8442383 0.1824951
vt 0.824707 0.1827393
vt 0.8442383 0.1773682
vt 0.824707 0.1768799
vt 0.8442383 0.1446533
vt 0.824707 0.144043
vt 0.8442383 0.109375
vt 0.824707 0.109375
vt 0.7016602 0.1439209
vt 0.7211914 0.1446533
vt 0.7211914 0.109375
vt 0.7016602 0.109375
vt 0.7211914 0.1790771
vt 0.7016602 0.1800537
vt 0.7211914 0.2126465
vt 0.7016602 0.2126465
vt 0.7211914 0.1790771
vt 0.7211914 0.2126465
vt 0.824707 0.2126465
vt 0.824707 0.1827393
vt 0.824707 0.1768799
vt 0.824707 0.144043
vt 0.7211914 0.1446533
vt 0.7211914 0.109375
vt 0.824707 0.109375

g Chair_Wooden_01_6661_90
usemtl Chair_Wooden_01_6661_90
usemap Chair_Wooden_01_6661_90
f 1/1/1 3/3/3 2/2/2
f 1/1/1 4/4/4 3/3/3
f 5/5/5 7/7/7 6/6/6
f 5/5/5 8/8/8 7/7/7
f 9/9/9 11/11/11 10/10/10
f 9/9/9 12/12/12 11/11/11
f 13/13/13 15/15/15 14/14/14
f 13/13/13 16/16/16 15/15/15
f 17/17/17 19/19/19 18/18/18
f 17/17/17 20/20/20 19/19/19
f 21/21/21 23/23/23 22/22/22
f 21/21/21 24/24/24 23/23/23
f 25/25/25 27/27/27 26/26/26
f 25/25/25 28/28/28 27/27/27
f 29/29/29 31/31/31 30/30/30
f 29/29/29 32/32/32 31/31/31
f 33/33/33 35/35/35 34/34/34
f 33/33/33 36/36/36 35/35/35
f 37/37/37 39/39/39 38/38/38
f 37/37/37 40/40/40 39/39/39
f 41/41/41 43/43/43 42/42/42
f 41/41/41 44/44/44 43/43/43
f 45/45/45 47/47/47 46/46/46
f 45/45/45 48/48/48 47/47/47
f 49/49/49 51/51/51 50/50/50
f 49/49/49 52/52/52 51/51/51
f 53/53/53 55/55/55 54/54/54
f 53/53/53 56/56/56 55/55/55
f 57/57/57 59/59/59 58/58/58
f 57/57/57 60/60/60 59/59/59
f 61/61/61 63/63/63 62/62/62
f 61/61/61 64/64/64 63/63/63
f 65/65/65 67/67/67 66/66/66
f 65/65/65 68/68/68 67/67/67
f 69/69/69 71/71/71 70/70/70
f 69/69/69 72/72/72 71/71/71
f 73/73/73 75/75/75 74/74/74
f 73/73/73 76/76/76 75/75/75
f 75/75/75 76/76/76 77/77/77
f 78/78/78 75/75/75 77/77/77
f 78/78/78 79/79/79 75/75/75
f 79/79/79 78/78/78 80/80/80
f 79/79/79 80/80/80 81/81/81
f 82/82/82 84/84/84 83/83/83
f 82/82/82 85/85/85 84/84/84
f 85/85/85 86/86/86 84/84/84
f 85/85/85 87/87/87 86/86/86
f 87/87/87 88/88/88 86/86/86
f 87/87/87 89/89/89 88/88/88
f 89/89/89 90/90/90 88/88/88
f 89/89/89 91/91/91 90/90/90
f 92/92/92 94/94/94 93/93/93
f 92/92/92 95/95/95 94/94/94
f 92/92/92 93/93/93 96/96/96
f 92/92/92 96/96/96 97/97/97
f 96/96/96 98/98/98 97/97/97
f 99/99/99 97/97/97 98/98/98
f 100/100/100 102/102/102 101/101/101
f 100/100/100 103/103/103 102/102/102
f 100/100/100 104/104/104 103/103/103
f 100/100/100 105/105/105 104/104/104
f 100/100/100 106/106/106 105/105/105
f 107/107/107 105/105/105 106/106/106
f 107/107/107 108/108/108 105/105/105
