#Chair_Wooden_01_5958_41.obj

v 0.2746003 0.4746 -0.2701003
v 0.2746003 0.3857 -0.2701003
v 0.2648993 0.3857 0.2790996
v 0.2648993 0.4746 0.2790996
v -0.2746006 0.3708001 -0.2726011
v -0.2746006 0.4746 -0.2726011
v -0.2648991 0.4746 0.2791008
v -0.2648991 0.3857 0.2791008
v -0.116801 0.3796001 -0.2277013
v -0.1189002 0 -0.2567984
v -0.1188988 0 -0.1151989
v -0.1167997 0.3796001 -0.1130984
v -0.2604989 0 -0.1151989
v -0.2604989 0 -0.2567991
v -0.2314002 0.3796001 -0.2276996
v -0.2314001 0.3796001 -0.1130998
v -0.1188988 0 -0.1151989
v -0.2604989 0 -0.1151989
v -0.2314001 0.3796001 -0.1130998
v -0.1167997 0.3796001 -0.1130984
v -0.2314002 0.3796001 -0.2276996
v -0.2604989 0 -0.2567991
v -0.1189002 0 -0.2567984
v -0.116801 0.3796001 -0.2277013
v 0.2322003 0.3871 -0.1123986
v 0.2613 0 -0.1143999
v 0.1196998 0 -0.1143999
v 0.1175994 0.3871 -0.1123008
v 0.1196999 0 -0.2560001
v 0.2613 0 -0.256
v 0.2321997 0.3871 -0.2268993
v 0.1175993 0.3871 -0.2269007
v 0.1196998 0 -0.1143999
v 0.1196999 0 -0.2560001
v 0.1175993 0.3871 -0.2269007
v 0.1175994 0.3871 -0.1123008
v 0.2321997 0.3871 -0.2268993
v 0.2613 0 -0.256
v 0.2613 0 -0.1143999
v 0.2322003 0.3871 -0.1123986
v 0.1168 0.3871 0.2366016
v 0.1189 0 0.2658009
v 0.1189 0 0.1242008
v 0.1168009 0.3871 0.1221003
v 0.2605002 0 0.1242008
v 0.2605001 0 0.265801
v 0.2313992 0.3871 0.2366
v 0.2314001 0.3871 0.1220987
v 0.1189 0 0.1242008
v 0.2605002 0 0.1242008
v 0.2314001 0.3871 0.1220987
v 0.1168009 0.3871 0.1221003
v 0.2313992 0.3871 0.2366
v 0.2605001 0 0.265801
v 0.1189 0 0.2658009
v 0.1168 0.3871 0.2366016
v -0.2322013 0.3796001 0.121299
v -0.2613 0 0.1233988
v -0.1196998 0 0.1233988
v -0.1175994 0.3796001 0.1212997
v -0.1196998 0 0.264999
v -0.2613 0 0.264999
v -0.2322011 0.3796001 0.2358988
v -0.1176007 0.3796001 0.2359002
v -0.1196998 0 0.1233988
v -0.1196998 0 0.264999
v -0.1176007 0.3796001 0.2359002
v -0.1175994 0.3796001 0.1212997
v -0.2322011 0.3796001 0.2358988
v -0.2613 0 0.264999
v -0.2613 0 0.1233988
v -0.2322013 0.3796001 0.121299
v -0.2746006 0.3708001 -0.2726011
v -0.2648991 0.3857 0.2791008
v -0.09769963 0.3857 0.2717993
v -0.111201 0.3751 -0.2791011
v -0.08930024 0.3758999 -0.2721014
v 0.08649921 0.3805999 -0.2647002
v 0.08770031 0.3857 0.2717992
v 0.2746003 0.3857 -0.2701003
v 0.2648993 0.3857 0.2790996
v -0.2746006 0.4746 -0.2726011
v -0.2746006 0.3708001 -0.2726011
v -0.111201 0.3751 -0.2791011
v -0.1119991 0.4746 -0.2790993
v -0.08930024 0.3758999 -0.2721014
v -0.0863011 0.4746 -0.2721012
v 0.08649921 0.3805999 -0.2647002
v 0.08900012 0.4746 -0.2646996
v 0.2746003 0.3857 -0.2701003
v 0.2746003 0.4746 -0.2701003
v 0.08770031 0.3857 0.2717992
v 0.08419997 0.4746 0.2718007
v 0.2648993 0.4746 0.2790996
v 0.2648993 0.3857 0.2790996
v -0.0926007 0.4746 0.2718002
v -0.09769963 0.3857 0.2717993
v -0.2648991 0.4746 0.2791008
v -0.2648991 0.3857 0.2791008
v -0.0926007 0.4746 0.2718002
v -0.2648991 0.4746 0.2791008
v -0.2746006 0.4746 -0.2726011
v -0.1119991 0.4746 -0.2790993
v -0.0863011 0.4746 -0.2721012
v 0.08900012 0.4746 -0.2646996
v 0.08419997 0.4746 0.2718007
v 0.2648993 0.4746 0.2790996
v 0.2746003 0.4746 -0.2701003

vn 0.9248047 0 0.3811035
vn 0.9248047 0 0.3811035
vn 0.9248047 0 0.3811035
vn 0.9248047 0 0.3811035
vn -0.9375 0 -0.3481445
vn -0.9375 0 -0.3481445
vn -0.9375 0 -0.3481445
vn -0.9375 0 -0.3481445
vn 0.9311523 -0.005401611 0.364502
vn 0.9311523 -0.005401611 0.364502
vn 0.9311523 -0.005401611 0.364502
vn 0.9311523 -0.005401611 0.364502
vn -0.9282227 0.07641602 -0.3635254
vn -0.9282227 0.07641602 -0.3635254
vn -0.9282227 0.07641602 -0.3635254
vn -0.9282227 0.07641602 -0.3635254
vn -0.364502 -0.005599976 0.9311523
vn -0.364502 -0.005599976 0.9311523
vn -0.364502 -0.005599976 0.9311523
vn -0.364502 -0.005599976 0.9311523
vn 0.3635254 0.07659912 -0.9282227
vn 0.3635254 0.07659912 -0.9282227
vn 0.3635254 0.07659912 -0.9282227
vn 0.3635254 0.07659912 -0.9282227
vn -0.364502 -0.005298615 0.9311523
vn -0.364502 -0.005298615 0.9311523
vn -0.364502 -0.005298615 0.9311523
vn -0.364502 -0.005298615 0.9311523
vn 0.3635254 0.07501221 -0.9287109
vn 0.3635254 0.07501221 -0.9287109
vn 0.3635254 0.07501221 -0.9287109
vn 0.3635254 0.07501221 -0.9287109
vn -0.9311523 -0.005500793 -0.364502
vn -0.9311523 -0.005500793 -0.364502
vn -0.9311523 -0.005500793 -0.364502
vn -0.9311523 -0.005500793 -0.364502
vn 0.9287109 0.07507324 0.3635254
vn 0.9287109 0.07507324 0.3635254
vn 0.9287109 0.07507324 0.3635254
vn 0.9287109 0.07507324 0.3635254
vn -0.9311523 -0.005298615 -0.364502
vn -0.9311523 -0.005298615 -0.364502
vn -0.9311523 -0.005298615 -0.364502
vn -0.9311523 -0.005298615 -0.364502
vn 0.9287109 0.07501221 0.3635254
vn 0.9287109 0.07501221 0.3635254
vn 0.9287109 0.07501221 0.3635254
vn 0.9287109 0.07501221 0.3635254
vn 0.364502 -0.005500793 -0.9311523
vn 0.364502 -0.005500793 -0.9311523
vn 0.364502 -0.005500793 -0.9311523
vn 0.364502 -0.005500793 -0.9311523
vn -0.3635254 0.07507324 0.9287109
vn -0.3635254 0.07507324 0.9287109
vn -0.3635254 0.07507324 0.9287109
vn -0.3635254 0.07507324 0.9287109
vn 0.364502 -0.005401611 -0.9311523
vn 0.364502 -0.005401611 -0.9311523
vn 0.364502 -0.005401611 -0.9311523
vn 0.364502 -0.005401611 -0.9311523
vn -0.3635254 0.07641602 0.9282227
vn -0.3635254 0.07641602 0.9282227
vn -0.3635254 0.07641602 0.9282227
vn -0.3635254 0.07641602 0.9282227
vn 0.9311523 -0.005599976 0.364502
vn 0.9311523 -0.005599976 0.364502
vn 0.9311523 -0.005599976 0.364502
vn 0.9311523 -0.005599976 0.364502
vn -0.9282227 0.07659912 -0.3635254
vn -0.9282227 0.07659912 -0.3635254
vn -0.9282227 0.07659912 -0.3635254
vn -0.9282227 0.07659912 -0.3635254
vn 0.004817963 -0.9995117 0.02636719
vn 0.004817963 -0.9995117 0.02636719
vn 0.01204681 -0.9995117 0.02684021
vn 0.01204681 -0.9995117 0.02684021
vn 0.01914978 -0.9995117 0.02735901
vn 0.008995056 -1 0.01351166
vn 0.008995056 -1 0.01351166
vn 0.01119232 -1 0.009536743
vn 0.01119232 -1 0.009536743
vn 0.3273926 -0.0002000332 -0.9448242
vn 0.3273926 -0.0002000332 -0.9448242
vn 0.4765625 -0.001700401 -0.8789063
vn 0.4765625 -0.001700401 -0.8789063
vn 0.512207 -0.002199173 -0.8588867
vn 0.512207 -0.002199173 -0.8588867
vn 0.3706055 -0.0004000664 -0.9287109
vn 0.3706055 -0.0004000664 -0.9287109
vn 0.3374023 0.0004000664 -0.9414063
vn 0.3374023 0.0004000664 -0.9414063
vn -0.3833008 -0.0004000664 0.9238281
vn -0.3833008 -0.0004000664 0.9238281
vn -0.4020996 -0.0008001328 0.9155273
vn -0.4020996 -0.0008001328 0.9155273
vn -0.3447266 -0.001199722 0.9384766
vn -0.3378906 -0.0008001328 0.9414063
vn -0.3244629 -0.001199722 0.9458008
vn -0.3237305 0 0.9462891
vn 0 1 0
vn 0 1 0
vn 0 1 0
vn 0 1 0
vn 0 1 0
vn 0 1 0
vn 0 1 0
vn 0 1 0
vn 0 1 0

vt 0.824707 0.109375
vt 0.824707 0.08978271
vt 0.7211914 0.08978271
vt 0.7211914 0.109375
vt 0.824707 0.08978271
vt 0.824707 0.109375
vt 0.7211914 0.109375
vt 0.7211914 0.08978271
vt 0.5693359 0.4309082
vt 0.7050781 0.4309082
vt 0.7050781 0.4577637
vt 0.5693359 0.4577637
vt 0.7050781 0.4833984
vt 0.7050781 0.4577637
vt 0.5693359 0.4577637
vt 0.5693359 0.4833984
vt 0.7050781 0.4577637
vt 0.7050781 0.4833984
vt 0.5693359 0.4833984
vt 0.5693359 0.4577637
vt 0.5693359 0.4577637
vt 0.7050781 0.4577637
vt 0.7050781 0.4309082
vt 0.5693359 0.4309082
vt 0.5693359 0.4309082
vt 0.7050781 0.4309082
vt 0.7050781 0.4577637
vt 0.5693359 0.4577637
vt 0.7050781 0.4833984
vt 0.7050781 0.4577637
vt 0.5693359 0.4577637
vt 0.5693359 0.4833984
vt 0.7050781 0.4577637
vt 0.7050781 0.4833984
vt 0.5693359 0.4833984
vt 0.5693359 0.4577637
vt 0.5693359 0.4577637
vt 0.7050781 0.4577637
vt 0.7050781 0.4309082
vt 0.5693359 0.4309082
vt 0.5693359 0.4309082
vt 0.7050781 0.4309082
vt 0.7050781 0.4577637
vt 0.5693359 0.4577637
vt 0.7050781 0.4833984
vt 0.7050781 0.4577637
vt 0.5693359 0.4577637
vt 0.5693359 0.4833984
vt 0.7050781 0.4577637
vt 0.7050781 0.4833984
vt 0.5693359 0.4833984
vt 0.5693359 0.4577637
vt 0.5693359 0.4577637
vt 0.7050781 0.4577637
vt 0.7050781 0.4309082
vt 0.5693359 0.4309082
vt 0.5693359 0.4309082
vt 0.7050781 0.4309082
vt 0.7050781 0.4577637
vt 0.5693359 0.4577637
vt 0.7050781 0.4833984
vt 0.7050781 0.4577637
vt 0.5693359 0.4577637
vt 0.5693359 0.4833984
vt 0.7050781 0.4577637
vt 0.7050781 0.4833984
vt 0.5693359 0.4833984
vt 0.5693359 0.4577637
vt 0.5693359 0.4577637
vt 0.7050781 0.4577637
vt 0.7050781 0.4309082
vt 0.5693359 0.4309082
vt 0.6943359 0.1794434
vt 0.6943359 0.2122803
vt 0.684082 0.2122803
vt 0.6845703 0.1794434
vt 0.6831055 0.1794434
vt 0.6728516 0.1794434
vt 0.6723633 0.2122803
vt 0.6616211 0.1794434
vt 0.6616211 0.2122803
vt 0.824707 0.2126465
vt 0.8442383 0.2126465
vt 0.8442383 0.1824951
vt 0.824707 0.1827393
vt 0.8442383 0.1773682
vt 0.824707 0.1768799
vt 0.8442383 0.1446533
vt 0.824707 0.144043
vt 0.8442383 0.109375
vt 0.824707 0.109375
vt 0.7016602 0.1439209
vt 0.7211914 0.1446533
vt 0.7211914 0.109375
vt 0.7016602 0.109375
vt 0.7211914 0.1790771
vt 0.7016602 0.1800537
vt 0.7211914 0.2126465
vt 0.7016602 0.2126465
vt 0.7211914 0.1790771
vt 0.7211914 0.2126465
vt 0.824707 0.2126465
vt 0.824707 0.1827393
vt 0.824707 0.1768799
vt 0.824707 0.144043
vt 0.7211914 0.1446533
vt 0.7211914 0.109375
vt 0.824707 0.109375

g Chair_Wooden_01_5958_41
usemtl Chair_Wooden_01_5958_41
usemap Chair_Wooden_01_5958_41
f 1/1/1 3/3/3 2/2/2
f 1/1/1 4/4/4 3/3/3
f 5/5/5 7/7/7 6/6/6
f 5/5/5 8/8/8 7/7/7
f 9/9/9 11/11/11 10/10/10
f 9/9/9 12/12/12 11/11/11
f 13/13/13 15/15/15 14/14/14
f 13/13/13 16/16/16 15/15/15
f 17/17/17 19/19/19 18/18/18
f 17/17/17 20/20/20 19/19/19
f 21/21/21 23/23/23 22/22/22
f 21/21/21 24/24/24 23/23/23
f 25/25/25 27/27/27 26/26/26
f 25/25/25 28/28/28 27/27/27
f 29/29/29 31/31/31 30/30/30
f 29/29/29 32/32/32 31/31/31
f 33/33/33 35/35/35 34/34/34
f 33/33/33 36/36/36 35/35/35
f 37/37/37 39/39/39 38/38/38
f 37/37/37 40/40/40 39/39/39
f 41/41/41 43/43/43 42/42/42
f 41/41/41 44/44/44 43/43/43
f 45/45/45 47/47/47 46/46/46
f 45/45/45 48/48/48 47/47/47
f 49/49/49 51/51/51 50/50/50
f 49/49/49 52/52/52 51/51/51
f 53/53/53 55/55/55 54/54/54
f 53/53/53 56/56/56 55/55/55
f 57/57/57 59/59/59 58/58/58
f 57/57/57 60/60/60 59/59/59
f 61/61/61 63/63/63 62/62/62
f 61/61/61 64/64/64 63/63/63
f 65/65/65 67/67/67 66/66/66
f 65/65/65 68/68/68 67/67/67
f 69/69/69 71/71/71 70/70/70
f 69/69/69 72/72/72 71/71/71
f 73/73/73 75/75/75 74/74/74
f 73/73/73 76/76/76 75/75/75
f 75/75/75 76/76/76 77/77/77
f 78/78/78 75/75/75 77/77/77
f 78/78/78 79/79/79 75/75/75
f 79/79/79 78/78/78 80/80/80
f 79/79/79 80/80/80 81/81/81
f 82/82/82 84/84/84 83/83/83
f 82/82/82 85/85/85 84/84/84
f 85/85/85 86/86/86 84/84/84
f 85/85/85 87/87/87 86/86/86
f 87/87/87 88/88/88 86/86/86
f 87/87/87 89/89/89 88/88/88
f 89/89/89 90/90/90 88/88/88
f 89/89/89 91/91/91 90/90/90
f 92/92/92 94/94/94 93/93/93
f 92/92/92 95/95/95 94/94/94
f 92/92/92 93/93/93 96/96/96
f 92/92/92 96/96/96 97/97/97
f 96/96/96 98/98/98 97/97/97
f 99/99/99 97/97/97 98/98/98
f 100/100/100 102/102/102 101/101/101
f 100/100/100 103/103/103 102/102/102
f 100/100/100 104/104/104 103/103/103
f 100/100/100 105/105/105 104/104/104
f 100/100/100 106/106/106 105/105/105
f 107/107/107 105/105/105 106/106/106
f 107/107/107 108/108/108 105/105/105
