#Chair_Wooden_01_(2)_7234_139.obj

v 0.2746005 0.4746 -0.2701
v 0.2746005 0.3857 -0.2701
v 0.2649004 0.3857 0.2791
v 0.2649004 0.4746 0.2791
v -0.2745997 0.3707999 -0.2726007
v -0.2745997 0.4746 -0.2726007
v -0.2649 0.4746 0.2791007
v -0.2649 0.3857 0.2791007
v -0.1168007 0.3795999 -0.2277001
v -0.1189 0 -0.2568006
v -0.1189005 0 -0.1152001
v -0.1168006 0.3795999 -0.1130999
v -0.2604993 0 -0.1151998
v -0.2605001 0 -0.2567998
v -0.2313996 0.3795999 -0.2277004
v -0.2313995 0.3795999 -0.1131003
v -0.1189005 0 -0.1152001
v -0.2604993 0 -0.1151998
v -0.2313995 0.3795999 -0.1131003
v -0.1168006 0.3795999 -0.1130999
v -0.2313996 0.3795999 -0.2277004
v -0.2605001 0 -0.2567998
v -0.1189 0 -0.2568006
v -0.1168007 0.3795999 -0.2277001
v 0.2321994 0.3871 -0.1124
v 0.2612993 0 -0.1144001
v 0.1197005 0 -0.1143998
v 0.1176003 0.3871 -0.1122999
v 0.1196997 0 -0.2559998
v 0.2612997 0 -0.2560006
v 0.2322004 0.3871 -0.2269002
v 0.1176002 0.3871 -0.2269
v 0.1197005 0 -0.1143998
v 0.1196997 0 -0.2559998
v 0.1176002 0.3871 -0.2269
v 0.1176003 0.3871 -0.1122999
v 0.2322004 0.3871 -0.2269002
v 0.2612997 0 -0.2560006
v 0.2612993 0 -0.1144001
v 0.2321994 0.3871 -0.1124
v 0.1168 0.3871 0.2365995
v 0.1189005 0 0.2658
v 0.1188997 0 0.1241999
v 0.1167998 0.3871 0.1220998
v 0.2605003 0 0.1242004
v 0.2604993 0 0.2657997
v 0.2314002 0.3871 0.2365994
v 0.2314 0.3871 0.1220996
v 0.1188997 0 0.1241999
v 0.2605003 0 0.1242004
v 0.2314 0.3871 0.1220996
v 0.1167998 0.3871 0.1220998
v 0.2314002 0.3871 0.2365994
v 0.2604993 0 0.2657997
v 0.1189005 0 0.2658
v 0.1168 0.3871 0.2365995
v -0.2322 0.3795999 0.1212994
v -0.2613001 0 0.1234
v -0.1196995 0 0.1234004
v -0.1175999 0.3795999 0.1212992
v -0.1197005 0 0.2649997
v -0.2612993 0 0.265
v -0.2321999 0.3795999 0.2358996
v -0.1175997 0.3795999 0.2358994
v -0.1196995 0 0.1234004
v -0.1197005 0 0.2649997
v -0.1175997 0.3795999 0.2358994
v -0.1175999 0.3795999 0.1212992
v -0.2321999 0.3795999 0.2358996
v -0.2612993 0 0.265
v -0.2613001 0 0.1234
v -0.2322 0.3795999 0.1212994
v -0.2745997 0.3707999 -0.2726007
v -0.2649 0.3857 0.2791007
v -0.09769964 0.3857 0.2717997
v -0.1112007 0.3751 -0.2790999
v -0.08929925 0.3759001 -0.2720996
v 0.08649967 0.3806001 -0.2647004
v 0.08769929 0.3857 0.2717996
v 0.2746005 0.3857 -0.2701
v 0.2649004 0.3857 0.2791
v -0.2745997 0.4746 -0.2726007
v -0.2745997 0.3707999 -0.2726007
v -0.1112007 0.3751 -0.2790999
v -0.1119996 0.4746 -0.2790997
v -0.08929925 0.3759001 -0.2720996
v -0.08629989 0.4746 -0.2720996
v 0.08649967 0.3806001 -0.2647004
v 0.08900025 0.4746 -0.2646994
v 0.2746005 0.3857 -0.2701
v 0.2746005 0.4746 -0.2701
v 0.08769929 0.3857 0.2717996
v 0.08419939 0.4746 0.2717999
v 0.2649004 0.4746 0.2791
v 0.2649004 0.3857 0.2791
v -0.09260024 0.4746 0.2717998
v -0.09769964 0.3857 0.2717997
v -0.2649 0.4746 0.2791007
v -0.2649 0.3857 0.2791007
v -0.09260024 0.4746 0.2717998
v -0.2649 0.4746 0.2791007
v -0.2745997 0.4746 -0.2726007
v -0.1119996 0.4746 -0.2790997
v -0.08629989 0.4746 -0.2720996
v 0.08900025 0.4746 -0.2646994
v 0.08419939 0.4746 0.2717999
v 0.2649004 0.4746 0.2791
v 0.2746005 0.4746 -0.2701

vn 0.3681641 0 -0.9296875
vn 0.3681641 0 -0.9296875
vn 0.3681641 0 -0.9296875
vn 0.3681641 0 -0.9296875
vn -0.3349609 0 0.9423828
vn -0.3349609 0 0.9423828
vn -0.3349609 0 0.9423828
vn -0.3349609 0 0.9423828
vn 0.3515625 -0.006298065 -0.9360352
vn 0.3515625 -0.006298065 -0.9360352
vn 0.3515625 -0.006298065 -0.9360352
vn 0.3515625 -0.006298065 -0.9360352
vn -0.3500977 0.08905029 0.9326172
vn -0.3500977 0.08905029 0.9326172
vn -0.3500977 0.08905029 0.9326172
vn -0.3500977 0.08905029 0.9326172
vn 0.9360352 -0.006534576 0.3515625
vn 0.9360352 -0.006534576 0.3515625
vn 0.9360352 -0.006534576 0.3515625
vn 0.9360352 -0.006534576 0.3515625
vn -0.9326172 0.08929443 -0.3500977
vn -0.9326172 0.08929443 -0.3500977
vn -0.9326172 0.08929443 -0.3500977
vn -0.9326172 0.08929443 -0.3500977
vn 0.9360352 -0.006183624 0.3515625
vn 0.9360352 -0.006183624 0.3515625
vn 0.9360352 -0.006183624 0.3515625
vn 0.9360352 -0.006183624 0.3515625
vn -0.9326172 0.08740234 -0.3503418
vn -0.9326172 0.08740234 -0.3503418
vn -0.9326172 0.08740234 -0.3503418
vn -0.9326172 0.08740234 -0.3503418
vn -0.3515625 -0.006416321 0.9360352
vn -0.3515625 -0.006416321 0.9360352
vn -0.3515625 -0.006416321 0.9360352
vn -0.3515625 -0.006416321 0.9360352
vn 0.3503418 0.08752441 -0.9326172
vn 0.3503418 0.08752441 -0.9326172
vn 0.3503418 0.08752441 -0.9326172
vn 0.3503418 0.08752441 -0.9326172
vn -0.3515625 -0.006183624 0.9360352
vn -0.3515625 -0.006183624 0.9360352
vn -0.3515625 -0.006183624 0.9360352
vn -0.3515625 -0.006183624 0.9360352
vn 0.3503418 0.08740234 -0.9326172
vn 0.3503418 0.08740234 -0.9326172
vn 0.3503418 0.08740234 -0.9326172
vn 0.3503418 0.08740234 -0.9326172
vn -0.9360352 -0.006416321 -0.3515625
vn -0.9360352 -0.006416321 -0.3515625
vn -0.9360352 -0.006416321 -0.3515625
vn -0.9360352 -0.006416321 -0.3515625
vn 0.9326172 0.08752441 0.3503418
vn 0.9326172 0.08752441 0.3503418
vn 0.9326172 0.08752441 0.3503418
vn 0.9326172 0.08752441 0.3503418
vn -0.9360352 -0.006298065 -0.3515625
vn -0.9360352 -0.006298065 -0.3515625
vn -0.9360352 -0.006298065 -0.3515625
vn -0.9360352 -0.006298065 -0.3515625
vn 0.9326172 0.08905029 0.3500977
vn 0.9326172 0.08905029 0.3500977
vn 0.9326172 0.08905029 0.3500977
vn 0.9326172 0.08905029 0.3500977
vn 0.3515625 -0.006534576 -0.9360352
vn 0.3515625 -0.006534576 -0.9360352
vn 0.3515625 -0.006534576 -0.9360352
vn 0.3515625 -0.006534576 -0.9360352
vn -0.3500977 0.08929443 0.9326172
vn -0.3500977 0.08929443 0.9326172
vn -0.3500977 0.08929443 0.9326172
vn -0.3500977 0.08929443 0.9326172
vn 0.02255249 -0.9995117 -0.004444122
vn 0.02255249 -0.9995117 -0.004444122
vn 0.02285767 -0.9995117 -0.01064301
vn 0.02285767 -0.9995117 -0.01064301
vn 0.02322388 -0.9995117 -0.01673889
vn 0.01146698 -1 -0.007873535
vn 0.01146698 -1 -0.007873535
vn 0.008041382 -1 -0.00970459
vn 0.008041382 -1 -0.00970459
vn -0.9492188 -0.0002332926 -0.314209
vn -0.9492188 -0.0002332926 -0.314209
vn -0.8857422 -0.001983643 -0.4643555
vn -0.8857422 -0.001983643 -0.4643555
vn -0.8662109 -0.002567291 -0.5
vn -0.8662109 -0.002567291 -0.5
vn -0.934082 -0.0004665852 -0.357666
vn -0.934082 -0.0004665852 -0.357666
vn -0.9458008 0.0004665852 -0.3242188
vn -0.9458008 0.0004665852 -0.3242188
vn 0.9287109 -0.0004665852 0.3706055
vn 0.9287109 -0.0004665852 0.3706055
vn 0.9208984 -0.0009331703 0.3894043
vn 0.9208984 -0.0009331703 0.3894043
vn 0.9433594 -0.001399994 0.3317871
vn 0.9458008 -0.0009331703 0.324707
vn 0.9501953 -0.001399994 0.3112793
vn 0.9506836 0 0.3105469
vn 0 1 0
vn 0 1 0
vn 0 1 0
vn 0 1 0
vn 0 1 0
vn 0 1 0
vn 0 1 0
vn 0 1 0
vn 0 1 0

vt 0.824707 0.109375
vt 0.824707 0.08978271
vt 0.7211914 0.08978271
vt 0.7211914 0.109375
vt 0.824707 0.08978271
vt 0.824707 0.109375
vt 0.7211914 0.109375
vt 0.7211914 0.08978271
vt 0.5693359 0.4309082
vt 0.7050781 0.4309082
vt 0.7050781 0.4577637
vt 0.5693359 0.4577637
vt 0.7050781 0.4833984
vt 0.7050781 0.4577637
vt 0.5693359 0.4577637
vt 0.5693359 0.4833984
vt 0.7050781 0.4577637
vt 0.7050781 0.4833984
vt 0.5693359 0.4833984
vt 0.5693359 0.4577637
vt 0.5693359 0.4577637
vt 0.7050781 0.4577637
vt 0.7050781 0.4309082
vt 0.5693359 0.4309082
vt 0.5693359 0.4309082
vt 0.7050781 0.4309082
vt 0.7050781 0.4577637
vt 0.5693359 0.4577637
vt 0.7050781 0.4833984
vt 0.7050781 0.4577637
vt 0.5693359 0.4577637
vt 0.5693359 0.4833984
vt 0.7050781 0.4577637
vt 0.7050781 0.4833984
vt 0.5693359 0.4833984
vt 0.5693359 0.4577637
vt 0.5693359 0.4577637
vt 0.7050781 0.4577637
vt 0.7050781 0.4309082
vt 0.5693359 0.4309082
vt 0.5693359 0.4309082
vt 0.7050781 0.4309082
vt 0.7050781 0.4577637
vt 0.5693359 0.4577637
vt 0.7050781 0.4833984
vt 0.7050781 0.4577637
vt 0.5693359 0.4577637
vt 0.5693359 0.4833984
vt 0.7050781 0.4577637
vt 0.7050781 0.4833984
vt 0.5693359 0.4833984
vt 0.5693359 0.4577637
vt 0.5693359 0.4577637
vt 0.7050781 0.4577637
vt 0.7050781 0.4309082
vt 0.5693359 0.4309082
vt 0.5693359 0.4309082
vt 0.7050781 0.4309082
vt 0.7050781 0.4577637
vt 0.5693359 0.4577637
vt 0.7050781 0.4833984
vt 0.7050781 0.4577637
vt 0.5693359 0.4577637
vt 0.5693359 0.4833984
vt 0.7050781 0.4577637
vt 0.7050781 0.4833984
vt 0.5693359 0.4833984
vt 0.5693359 0.4577637
vt 0.5693359 0.4577637
vt 0.7050781 0.4577637
vt 0.7050781 0.4309082
vt 0.5693359 0.4309082
vt 0.6943359 0.1794434
vt 0.6943359 0.2122803
vt 0.684082 0.2122803
vt 0.6845703 0.1794434
vt 0.6831055 0.1794434
vt 0.6728516 0.1794434
vt 0.6723633 0.2122803
vt 0.6616211 0.1794434
vt 0.6616211 0.2122803
vt 0.824707 0.2126465
vt 0.8442383 0.2126465
vt 0.8442383 0.1824951
vt 0.824707 0.1827393
vt 0.8442383 0.1773682
vt 0.824707 0.1768799
vt 0.8442383 0.1446533
vt 0.824707 0.144043
vt 0.8442383 0.109375
vt 0.824707 0.109375
vt 0.7016602 0.1439209
vt 0.7211914 0.1446533
vt 0.7211914 0.109375
vt 0.7016602 0.109375
vt 0.7211914 0.1790771
vt 0.7016602 0.1800537
vt 0.7211914 0.2126465
vt 0.7016602 0.2126465
vt 0.7211914 0.1790771
vt 0.7211914 0.2126465
vt 0.824707 0.2126465
vt 0.824707 0.1827393
vt 0.824707 0.1768799
vt 0.824707 0.144043
vt 0.7211914 0.1446533
vt 0.7211914 0.109375
vt 0.824707 0.109375

g Chair_Wooden_01_(2)_7234_139
usemtl Chair_Wooden_01_(2)_7234_139
usemap Chair_Wooden_01_(2)_7234_139
f 1/1/1 3/3/3 2/2/2
f 1/1/1 4/4/4 3/3/3
f 5/5/5 7/7/7 6/6/6
f 5/5/5 8/8/8 7/7/7
f 9/9/9 11/11/11 10/10/10
f 9/9/9 12/12/12 11/11/11
f 13/13/13 15/15/15 14/14/14
f 13/13/13 16/16/16 15/15/15
f 17/17/17 19/19/19 18/18/18
f 17/17/17 20/20/20 19/19/19
f 21/21/21 23/23/23 22/22/22
f 21/21/21 24/24/24 23/23/23
f 25/25/25 27/27/27 26/26/26
f 25/25/25 28/28/28 27/27/27
f 29/29/29 31/31/31 30/30/30
f 29/29/29 32/32/32 31/31/31
f 33/33/33 35/35/35 34/34/34
f 33/33/33 36/36/36 35/35/35
f 37/37/37 39/39/39 38/38/38
f 37/37/37 40/40/40 39/39/39
f 41/41/41 43/43/43 42/42/42
f 41/41/41 44/44/44 43/43/43
f 45/45/45 47/47/47 46/46/46
f 45/45/45 48/48/48 47/47/47
f 49/49/49 51/51/51 50/50/50
f 49/49/49 52/52/52 51/51/51
f 53/53/53 55/55/55 54/54/54
f 53/53/53 56/56/56 55/55/55
f 57/57/57 59/59/59 58/58/58
f 57/57/57 60/60/60 59/59/59
f 61/61/61 63/63/63 62/62/62
f 61/61/61 64/64/64 63/63/63
f 65/65/65 67/67/67 66/66/66
f 65/65/65 68/68/68 67/67/67
f 69/69/69 71/71/71 70/70/70
f 69/69/69 72/72/72 71/71/71
f 73/73/73 75/75/75 74/74/74
f 73/73/73 76/76/76 75/75/75
f 75/75/75 76/76/76 77/77/77
f 78/78/78 75/75/75 77/77/77
f 78/78/78 79/79/79 75/75/75
f 79/79/79 78/78/78 80/80/80
f 79/79/79 80/80/80 81/81/81
f 82/82/82 84/84/84 83/83/83
f 82/82/82 85/85/85 84/84/84
f 85/85/85 86/86/86 84/84/84
f 85/85/85 87/87/87 86/86/86
f 87/87/87 88/88/88 86/86/86
f 87/87/87 89/89/89 88/88/88
f 89/89/89 90/90/90 88/88/88
f 89/89/89 91/91/91 90/90/90
f 92/92/92 94/94/94 93/93/93
f 92/92/92 95/95/95 94/94/94
f 92/92/92 93/93/93 96/96/96
f 92/92/92 96/96/96 97/97/97
f 96/96/96 98/98/98 97/97/97
f 99/99/99 97/97/97 98/98/98
f 100/100/100 102/102/102 101/101/101
f 100/100/100 103/103/103 102/102/102
f 100/100/100 104/104/104 103/103/103
f 100/100/100 105/105/105 104/104/104
f 100/100/100 106/106/106 105/105/105
f 107/107/107 105/105/105 106/106/106
f 107/107/107 108/108/108 105/105/105
