#Chair_Wooden_01_(1)_6248_47.obj

v 0.2745998 0.4746 -0.2700998
v 0.2745998 0.3857 -0.2700998
v 0.2649002 0.3857 0.2790995
v 0.2649002 0.4746 0.2790995
v -0.2746 0.3708 -0.2726
v -0.2746 0.4746 -0.2726
v -0.2648994 0.4746 0.2790998
v -0.2648994 0.3857 0.2790998
v -0.1168001 0.3796 -0.2277004
v -0.1189004 0 -0.2567995
v -0.1188994 0 -0.1152005
v -0.1167993 0.3796 -0.1131002
v -0.2605002 0 -0.1151996
v -0.2605001 0 -0.2568
v -0.2313995 0.3796 -0.2276999
v -0.2314006 0.3796 -0.1130999
v -0.1188994 0 -0.1152005
v -0.2605002 0 -0.1151996
v -0.2314006 0.3796 -0.1130999
v -0.1167993 0.3796 -0.1131002
v -0.2313995 0.3796 -0.2276999
v -0.2605001 0 -0.2568
v -0.1189004 0 -0.2567995
v -0.1168001 0.3796 -0.2277004
v 0.2321994 0.3871 -0.1123997
v 0.2613001 0 -0.1144
v 0.1197005 0 -0.1144004
v 0.1175994 0.3871 -0.1123001
v 0.1196994 0 -0.2559994
v 0.2613002 0 -0.2560003
v 0.2322002 0.3871 -0.2268998
v 0.1176005 0.3871 -0.2269001
v 0.1197005 0 -0.1144004
v 0.1196994 0 -0.2559994
v 0.1176005 0.3871 -0.2269001
v 0.1175994 0.3871 -0.1123001
v 0.2322002 0.3871 -0.2268998
v 0.2613002 0 -0.2560003
v 0.2613001 0 -0.1144
v 0.2321994 0.3871 -0.1123997
v 0.1167998 0.3871 0.2366
v 0.1189002 0 0.2657999
v 0.1189004 0 0.1241995
v 0.1168006 0.3871 0.1220999
v 0.2605 0 0.1241999
v 0.2604999 0 0.2658003
v 0.2313996 0.3871 0.2366003
v 0.2314004 0.3871 0.1221002
v 0.1189004 0 0.1241995
v 0.2605 0 0.1241999
v 0.2314004 0.3871 0.1221002
v 0.1168006 0.3871 0.1220999
v 0.2313996 0.3871 0.2366003
v 0.2604999 0 0.2658003
v 0.1189002 0 0.2657999
v 0.1167998 0.3871 0.2366
v -0.2321994 0.3796 0.1213001
v -0.2613003 0 0.1234003
v -0.1196995 0 0.1233994
v -0.1175999 0.3796 0.1212996
v -0.1196996 0 0.2649997
v -0.2613007 0 0.2649999
v -0.2322004 0.3796 0.2359001
v -0.1176006 0.3796 0.2359004
v -0.1196995 0 0.1233994
v -0.1196996 0 0.2649997
v -0.1176006 0.3796 0.2359004
v -0.1175999 0.3796 0.1212996
v -0.2322004 0.3796 0.2359001
v -0.2613007 0 0.2649999
v -0.2613003 0 0.1234003
v -0.2321994 0.3796 0.1213001
v -0.2746 0.3708 -0.2726
v -0.2648994 0.3857 0.2790998
v -0.09770028 0.3857 0.2718005
v -0.1111994 0.3751 -0.2791001
v -0.08929974 0.3759 -0.2721
v 0.08649997 0.3806 -0.2646996
v 0.08769975 0.3857 0.2718
v 0.2745998 0.3857 -0.2700998
v 0.2649002 0.3857 0.2790995
v -0.2746 0.4746 -0.2726
v -0.2746 0.3708 -0.2726
v -0.1111994 0.3751 -0.2791001
v -0.1119996 0.4746 -0.2790999
v -0.08929974 0.3759 -0.2721
v -0.08629998 0.4746 -0.2721001
v 0.08649997 0.3806 -0.2646996
v 0.08899972 0.4746 -0.2646998
v 0.2745998 0.3857 -0.2700998
v 0.2745998 0.4746 -0.2700998
v 0.08769975 0.3857 0.2718
v 0.08419998 0.4746 0.2718
v 0.2649002 0.4746 0.2790995
v 0.2649002 0.3857 0.2790995
v -0.09260011 0.4746 0.2718001
v -0.09770028 0.3857 0.2718005
v -0.2648994 0.4746 0.2790998
v -0.2648994 0.3857 0.2790998
v -0.09260011 0.4746 0.2718001
v -0.2648994 0.4746 0.2790998
v -0.2746 0.4746 -0.2726
v -0.1119996 0.4746 -0.2790999
v -0.08629998 0.4746 -0.2721001
v 0.08899972 0.4746 -0.2646998
v 0.08419998 0.4746 0.2718
v 0.2649002 0.4746 0.2790995
v 0.2745998 0.4746 -0.2700998

vn 0.9248047 0 0.380127
vn 0.9248047 0 0.380127
vn 0.9248047 0 0.380127
vn 0.9248047 0 0.380127
vn -0.9379883 0 -0.3474121
vn -0.9379883 0 -0.3474121
vn -0.9379883 0 -0.3474121
vn -0.9379883 0 -0.3474121
vn 0.9316406 -0.005401611 0.3637695
vn 0.9316406 -0.005401611 0.3637695
vn 0.9316406 -0.005401611 0.3637695
vn 0.9316406 -0.005401611 0.3637695
vn -0.9287109 0.07641602 -0.362793
vn -0.9287109 0.07641602 -0.362793
vn -0.9287109 0.07641602 -0.362793
vn -0.9287109 0.07641602 -0.362793
vn -0.3637695 -0.005599976 0.9316406
vn -0.3637695 -0.005599976 0.9316406
vn -0.3637695 -0.005599976 0.9316406
vn -0.3637695 -0.005599976 0.9316406
vn 0.362793 0.07659912 -0.9287109
vn 0.362793 0.07659912 -0.9287109
vn 0.362793 0.07659912 -0.9287109
vn 0.362793 0.07659912 -0.9287109
vn -0.3637695 -0.005298615 0.9316406
vn -0.3637695 -0.005298615 0.9316406
vn -0.3637695 -0.005298615 0.9316406
vn -0.3637695 -0.005298615 0.9316406
vn 0.362793 0.07501221 -0.9287109
vn 0.362793 0.07501221 -0.9287109
vn 0.362793 0.07501221 -0.9287109
vn 0.362793 0.07501221 -0.9287109
vn -0.9316406 -0.005500793 -0.3637695
vn -0.9316406 -0.005500793 -0.3637695
vn -0.9316406 -0.005500793 -0.3637695
vn -0.9316406 -0.005500793 -0.3637695
vn 0.9287109 0.07507324 0.362793
vn 0.9287109 0.07507324 0.362793
vn 0.9287109 0.07507324 0.362793
vn 0.9287109 0.07507324 0.362793
vn -0.9316406 -0.005298615 -0.3637695
vn -0.9316406 -0.005298615 -0.3637695
vn -0.9316406 -0.005298615 -0.3637695
vn -0.9316406 -0.005298615 -0.3637695
vn 0.9287109 0.07501221 0.362793
vn 0.9287109 0.07501221 0.362793
vn 0.9287109 0.07501221 0.362793
vn 0.9287109 0.07501221 0.362793
vn 0.3637695 -0.005500793 -0.9316406
vn 0.3637695 -0.005500793 -0.9316406
vn 0.3637695 -0.005500793 -0.9316406
vn 0.3637695 -0.005500793 -0.9316406
vn -0.362793 0.07507324 0.9287109
vn -0.362793 0.07507324 0.9287109
vn -0.362793 0.07507324 0.9287109
vn -0.362793 0.07507324 0.9287109
vn 0.3637695 -0.005401611 -0.9316406
vn 0.3637695 -0.005401611 -0.9316406
vn 0.3637695 -0.005401611 -0.9316406
vn 0.3637695 -0.005401611 -0.9316406
vn -0.362793 0.07641602 0.9287109
vn -0.362793 0.07641602 0.9287109
vn -0.362793 0.07641602 0.9287109
vn -0.362793 0.07641602 0.9287109
vn 0.9316406 -0.005599976 0.3637695
vn 0.9316406 -0.005599976 0.3637695
vn 0.9316406 -0.005599976 0.3637695
vn 0.9316406 -0.005599976 0.3637695
vn -0.9287109 0.07659912 -0.362793
vn -0.9287109 0.07659912 -0.362793
vn -0.9287109 0.07659912 -0.362793
vn -0.9287109 0.07659912 -0.362793
vn 0.004840851 -0.9995117 0.02636719
vn 0.004840851 -0.9995117 0.02636719
vn 0.0120697 -0.9995117 0.02682495
vn 0.0120697 -0.9995117 0.02682495
vn 0.01916504 -0.9995117 0.02734375
vn 0.009002686 -1 0.01350403
vn 0.009002686 -1 0.01350403
vn 0.01119995 -1 0.009529114
vn 0.01119995 -1 0.009529114
vn 0.3266602 -0.0002000332 -0.9453125
vn 0.3266602 -0.0002000332 -0.9453125
vn 0.4758301 -0.001700401 -0.8793945
vn 0.4758301 -0.001700401 -0.8793945
vn 0.5112305 -0.002199173 -0.859375
vn 0.5112305 -0.002199173 -0.859375
vn 0.369873 -0.0004000664 -0.9291992
vn 0.369873 -0.0004000664 -0.9291992
vn 0.3366699 0.0004000664 -0.9414063
vn 0.3366699 0.0004000664 -0.9414063
vn -0.3825684 -0.0004000664 0.9238281
vn -0.3825684 -0.0004000664 0.9238281
vn -0.4013672 -0.0008001328 0.9160156
vn -0.4013672 -0.0008001328 0.9160156
vn -0.3439941 -0.001199722 0.9389648
vn -0.3369141 -0.0008001328 0.9414063
vn -0.3234863 -0.001199722 0.9462891
vn -0.322998 0 0.9462891
vn 0 1 0
vn 0 1 0
vn 0 1 0
vn 0 1 0
vn 0 1 0
vn 0 1 0
vn 0 1 0
vn 0 1 0
vn 0 1 0

vt 0.824707 0.109375
vt 0.824707 0.08978271
vt 0.7211914 0.08978271
vt 0.7211914 0.109375
vt 0.824707 0.08978271
vt 0.824707 0.109375
vt 0.7211914 0.109375
vt 0.7211914 0.08978271
vt 0.5693359 0.4309082
vt 0.7050781 0.4309082
vt 0.7050781 0.4577637
vt 0.5693359 0.4577637
vt 0.7050781 0.4833984
vt 0.7050781 0.4577637
vt 0.5693359 0.4577637
vt 0.5693359 0.4833984
vt 0.7050781 0.4577637
vt 0.7050781 0.4833984
vt 0.5693359 0.4833984
vt 0.5693359 0.4577637
vt 0.5693359 0.4577637
vt 0.7050781 0.4577637
vt 0.7050781 0.4309082
vt 0.5693359 0.4309082
vt 0.5693359 0.4309082
vt 0.7050781 0.4309082
vt 0.7050781 0.4577637
vt 0.5693359 0.4577637
vt 0.7050781 0.4833984
vt 0.7050781 0.4577637
vt 0.5693359 0.4577637
vt 0.5693359 0.4833984
vt 0.7050781 0.4577637
vt 0.7050781 0.4833984
vt 0.5693359 0.4833984
vt 0.5693359 0.4577637
vt 0.5693359 0.4577637
vt 0.7050781 0.4577637
vt 0.7050781 0.4309082
vt 0.5693359 0.4309082
vt 0.5693359 0.4309082
vt 0.7050781 0.4309082
vt 0.7050781 0.4577637
vt 0.5693359 0.4577637
vt 0.7050781 0.4833984
vt 0.7050781 0.4577637
vt 0.5693359 0.4577637
vt 0.5693359 0.4833984
vt 0.7050781 0.4577637
vt 0.7050781 0.4833984
vt 0.5693359 0.4833984
vt 0.5693359 0.4577637
vt 0.5693359 0.4577637
vt 0.7050781 0.4577637
vt 0.7050781 0.4309082
vt 0.5693359 0.4309082
vt 0.5693359 0.4309082
vt 0.7050781 0.4309082
vt 0.7050781 0.4577637
vt 0.5693359 0.4577637
vt 0.7050781 0.4833984
vt 0.7050781 0.4577637
vt 0.5693359 0.4577637
vt 0.5693359 0.4833984
vt 0.7050781 0.4577637
vt 0.7050781 0.4833984
vt 0.5693359 0.4833984
vt 0.5693359 0.4577637
vt 0.5693359 0.4577637
vt 0.7050781 0.4577637
vt 0.7050781 0.4309082
vt 0.5693359 0.4309082
vt 0.6943359 0.1794434
vt 0.6943359 0.2122803
vt 0.684082 0.2122803
vt 0.6845703 0.1794434
vt 0.6831055 0.1794434
vt 0.6728516 0.1794434
vt 0.6723633 0.2122803
vt 0.6616211 0.1794434
vt 0.6616211 0.2122803
vt 0.824707 0.2126465
vt 0.8442383 0.2126465
vt 0.8442383 0.1824951
vt 0.824707 0.1827393
vt 0.8442383 0.1773682
vt 0.824707 0.1768799
vt 0.8442383 0.1446533
vt 0.824707 0.144043
vt 0.8442383 0.109375
vt 0.824707 0.109375
vt 0.7016602 0.1439209
vt 0.7211914 0.1446533
vt 0.7211914 0.109375
vt 0.7016602 0.109375
vt 0.7211914 0.1790771
vt 0.7016602 0.1800537
vt 0.7211914 0.2126465
vt 0.7016602 0.2126465
vt 0.7211914 0.1790771
vt 0.7211914 0.2126465
vt 0.824707 0.2126465
vt 0.824707 0.1827393
vt 0.824707 0.1768799
vt 0.824707 0.144043
vt 0.7211914 0.1446533
vt 0.7211914 0.109375
vt 0.824707 0.109375

g Chair_Wooden_01_(1)_6248_47
usemtl Chair_Wooden_01_(1)_6248_47
usemap Chair_Wooden_01_(1)_6248_47
f 1/1/1 3/3/3 2/2/2
f 1/1/1 4/4/4 3/3/3
f 5/5/5 7/7/7 6/6/6
f 5/5/5 8/8/8 7/7/7
f 9/9/9 11/11/11 10/10/10
f 9/9/9 12/12/12 11/11/11
f 13/13/13 15/15/15 14/14/14
f 13/13/13 16/16/16 15/15/15
f 17/17/17 19/19/19 18/18/18
f 17/17/17 20/20/20 19/19/19
f 21/21/21 23/23/23 22/22/22
f 21/21/21 24/24/24 23/23/23
f 25/25/25 27/27/27 26/26/26
f 25/25/25 28/28/28 27/27/27
f 29/29/29 31/31/31 30/30/30
f 29/29/29 32/32/32 31/31/31
f 33/33/33 35/35/35 34/34/34
f 33/33/33 36/36/36 35/35/35
f 37/37/37 39/39/39 38/38/38
f 37/37/37 40/40/40 39/39/39
f 41/41/41 43/43/43 42/42/42
f 41/41/41 44/44/44 43/43/43
f 45/45/45 47/47/47 46/46/46
f 45/45/45 48/48/48 47/47/47
f 49/49/49 51/51/51 50/50/50
f 49/49/49 52/52/52 51/51/51
f 53/53/53 55/55/55 54/54/54
f 53/53/53 56/56/56 55/55/55
f 57/57/57 59/59/59 58/58/58
f 57/57/57 60/60/60 59/59/59
f 61/61/61 63/63/63 62/62/62
f 61/61/61 64/64/64 63/63/63
f 65/65/65 67/67/67 66/66/66
f 65/65/65 68/68/68 67/67/67
f 69/69/69 71/71/71 70/70/70
f 69/69/69 72/72/72 71/71/71
f 73/73/73 75/75/75 74/74/74
f 73/73/73 76/76/76 75/75/75
f 75/75/75 76/76/76 77/77/77
f 78/78/78 75/75/75 77/77/77
f 78/78/78 79/79/79 75/75/75
f 79/79/79 78/78/78 80/80/80
f 79/79/79 80/80/80 81/81/81
f 82/82/82 84/84/84 83/83/83
f 82/82/82 85/85/85 84/84/84
f 85/85/85 86/86/86 84/84/84
f 85/85/85 87/87/87 86/86/86
f 87/87/87 88/88/88 86/86/86
f 87/87/87 89/89/89 88/88/88
f 89/89/89 90/90/90 88/88/88
f 89/89/89 91/91/91 90/90/90
f 92/92/92 94/94/94 93/93/93
f 92/92/92 95/95/95 94/94/94
f 92/92/92 93/93/93 96/96/96
f 92/92/92 96/96/96 97/97/97
f 96/96/96 98/98/98 97/97/97
f 99/99/99 97/97/97 98/98/98
f 100/100/100 102/102/102 101/101/101
f 100/100/100 103/103/103 102/102/102
f 100/100/100 104/104/104 103/103/103
f 100/100/100 105/105/105 104/104/104
f 100/100/100 106/106/106 105/105/105
f 107/107/107 105/105/105 106/106/106
f 107/107/107 108/108/108 105/105/105
