#Chair_Wooden_01_(7)_6584_127.obj

v 0.2746007 0.4746 -0.2700998
v 0.2746007 0.3857 -0.2700998
v 0.2649004 0.3857001 0.2790998
v 0.2649004 0.4746 0.2790998
v -0.2746 0.3708001 -0.2725994
v -0.2746 0.4746 -0.2725994
v -0.2648995 0.4746 0.2790997
v -0.2648995 0.3857 0.2790997
v -0.1168007 0.3795999 -0.2276999
v -0.1188998 -1.379961E-08 -0.2568003
v -0.1188995 -7.832988E-09 -0.1151998
v -0.1167998 0.3795999 -0.1130997
v -0.2605 -1.138052E-08 -0.1151995
v -0.2605003 -1.734715E-08 -0.2568
v -0.2313998 0.3795999 -0.2276999
v -0.2313997 0.3795999 -0.1131008
v -0.1188995 -7.832988E-09 -0.1151998
v -0.2605 -1.138052E-08 -0.1151995
v -0.2313997 0.3795999 -0.1131008
v -0.1167998 0.3795999 -0.1130997
v -0.2313998 0.3795999 -0.2276999
v -0.2605003 -1.734715E-08 -0.2568
v -0.1188998 -1.379961E-08 -0.2568003
v -0.1168007 0.3795999 -0.2276999
v 0.2322004 0.3871 -0.1124007
v 0.2613001 1.725924E-09 -0.1144004
v 0.1196995 -1.821613E-09 -0.1144001
v 0.1175994 0.3871 -0.1123004
v 0.1197 -7.788171E-09 -0.2559995
v 0.2613005 -4.240635E-09 -0.2559998
v 0.2321996 0.3871 -0.2269003
v 0.1176005 0.3871 -0.2269003
v 0.1196995 -1.821613E-09 -0.1144001
v 0.1197 -7.788171E-09 -0.2559995
v 0.1176005 0.3871 -0.2269003
v 0.1175994 0.3871 -0.1123004
v 0.2321996 0.3871 -0.2269003
v 0.2613005 -4.240635E-09 -0.2559998
v 0.2613001 1.725924E-09 -0.1144004
v 0.2322004 0.3871 -0.1124007
v 0.1168006 0.3871 0.2366004
v 0.1189001 1.417882E-08 0.2657995
v 0.1189006 8.21226E-09 0.1242001
v 0.1167998 0.3871 0.1221008
v 0.2605 1.17598E-08 0.1242006
v 0.2604995 1.772636E-08 0.2658
v 0.2313997 0.3871 0.2366004
v 0.2314 0.3871 0.1220999
v 0.1189006 8.21226E-09 0.1242001
v 0.2605 1.17598E-08 0.1242006
v 0.2314 0.3871 0.1220999
v 0.1167998 0.3871 0.1221008
v 0.2313997 0.3871 0.2366004
v 0.2604995 1.772636E-08 0.2658
v 0.1189001 1.417882E-08 0.2657995
v 0.1168006 0.3871 0.2366004
v -0.2322001 0.3795999 0.1212993
v -0.2612998 -1.346717E-09 0.1233996
v -0.1197003 2.200825E-09 0.1234001
v -0.1176002 0.3795999 0.1213004
v -0.1197 8.16745E-09 0.2650006
v -0.2612994 4.619908E-09 0.2650001
v -0.2322004 0.3795999 0.2359003
v -0.1176002 0.3795999 0.2358995
v -0.1197003 2.200825E-09 0.1234001
v -0.1197 8.16745E-09 0.2650006
v -0.1176002 0.3795999 0.2358995
v -0.1176002 0.3795999 0.1213004
v -0.2322004 0.3795999 0.2359003
v -0.2612994 4.619908E-09 0.2650001
v -0.2612998 -1.346717E-09 0.1233996
v -0.2322001 0.3795999 0.1212993
v -0.2746 0.3708001 -0.2725994
v -0.2648995 0.3857 0.2790997
v -0.09769986 0.3857 0.2718007
v -0.1111993 0.3751 -0.2790998
v -0.0893003 0.3759 -0.2720995
v 0.08649974 0.3806001 -0.2646993
v 0.08769966 0.3857001 0.2717996
v 0.2746007 0.3857 -0.2700998
v 0.2649004 0.3857001 0.2790998
v -0.2746 0.4746 -0.2725994
v -0.2746 0.3708001 -0.2725994
v -0.1111993 0.3751 -0.2790998
v -0.1119997 0.4746 -0.2791004
v -0.0893003 0.3759 -0.2720995
v -0.08630019 0.4746 -0.2720999
v 0.08649974 0.3806001 -0.2646993
v 0.08900001 0.4746 -0.2646998
v 0.2746007 0.3857 -0.2700998
v 0.2746007 0.4746 -0.2700998
v 0.08769966 0.3857001 0.2717996
v 0.08419972 0.4746 0.2717998
v 0.2649004 0.4746 0.2790998
v 0.2649004 0.3857001 0.2790998
v -0.09259986 0.4746 0.2718005
v -0.09769986 0.3857 0.2718007
v -0.2648995 0.4746 0.2790997
v -0.2648995 0.3857 0.2790997
v -0.09259986 0.4746 0.2718005
v -0.2648995 0.4746 0.2790997
v -0.2746 0.4746 -0.2725994
v -0.1119997 0.4746 -0.2791004
v -0.08630019 0.4746 -0.2720999
v 0.08900001 0.4746 -0.2646998
v 0.08419972 0.4746 0.2717998
v 0.2649004 0.4746 0.2790998
v 0.2746007 0.4746 -0.2700998

vn 0.5976563 0 -0.8017578
vn 0.5976563 0 -0.8017578
vn 0.5976563 0 -0.8017578
vn 0.5976563 0 -0.8017578
vn -0.5688477 0 0.8222656
vn -0.5688477 0 0.8222656
vn -0.5688477 0 0.8222656
vn -0.5688477 0 0.8222656
vn 0.5830078 -0.006298065 -0.8125
vn 0.5830078 -0.006298065 -0.8125
vn 0.5830078 -0.006298065 -0.8125
vn 0.5830078 -0.006298065 -0.8125
vn -0.5810547 0.08905029 0.809082
vn -0.5810547 0.08905029 0.809082
vn -0.5810547 0.08905029 0.809082
vn -0.5810547 0.08905029 0.809082
vn 0.8125 -0.006534576 0.5830078
vn 0.8125 -0.006534576 0.5830078
vn 0.8125 -0.006534576 0.5830078
vn 0.8125 -0.006534576 0.5830078
vn -0.809082 0.08929443 -0.5810547
vn -0.809082 0.08929443 -0.5810547
vn -0.809082 0.08929443 -0.5810547
vn -0.809082 0.08929443 -0.5810547
vn 0.8125 -0.006183624 0.5830078
vn 0.8125 -0.006183624 0.5830078
vn 0.8125 -0.006183624 0.5830078
vn 0.8125 -0.006183624 0.5830078
vn -0.809082 0.08740234 -0.5810547
vn -0.809082 0.08740234 -0.5810547
vn -0.809082 0.08740234 -0.5810547
vn -0.809082 0.08740234 -0.5810547
vn -0.5830078 -0.006416321 0.8125
vn -0.5830078 -0.006416321 0.8125
vn -0.5830078 -0.006416321 0.8125
vn -0.5830078 -0.006416321 0.8125
vn 0.5810547 0.08752441 -0.809082
vn 0.5810547 0.08752441 -0.809082
vn 0.5810547 0.08752441 -0.809082
vn 0.5810547 0.08752441 -0.809082
vn -0.5830078 -0.006183624 0.8125
vn -0.5830078 -0.006183624 0.8125
vn -0.5830078 -0.006183624 0.8125
vn -0.5830078 -0.006183624 0.8125
vn 0.5810547 0.08740234 -0.809082
vn 0.5810547 0.08740234 -0.809082
vn 0.5810547 0.08740234 -0.809082
vn 0.5810547 0.08740234 -0.809082
vn -0.8125 -0.006416321 -0.5830078
vn -0.8125 -0.006416321 -0.5830078
vn -0.8125 -0.006416321 -0.5830078
vn -0.8125 -0.006416321 -0.5830078
vn 0.809082 0.08752441 0.5810547
vn 0.809082 0.08752441 0.5810547
vn 0.809082 0.08752441 0.5810547
vn 0.809082 0.08752441 0.5810547
vn -0.8125 -0.006298065 -0.5830078
vn -0.8125 -0.006298065 -0.5830078
vn -0.8125 -0.006298065 -0.5830078
vn -0.8125 -0.006298065 -0.5830078
vn 0.809082 0.08905029 0.5810547
vn 0.809082 0.08905029 0.5810547
vn 0.809082 0.08905029 0.5810547
vn 0.809082 0.08905029 0.5810547
vn 0.5830078 -0.006534576 -0.8125
vn 0.5830078 -0.006534576 -0.8125
vn 0.5830078 -0.006534576 -0.8125
vn 0.5830078 -0.006534576 -0.8125
vn -0.5810547 0.08929443 0.809082
vn -0.5810547 0.08929443 0.809082
vn -0.5810547 0.08929443 0.809082
vn -0.5810547 0.08929443 0.809082
vn 0.02293396 -0.9995117 0.001579285
vn 0.02293396 -0.9995117 0.001579285
vn 0.02484131 -0.9995117 -0.004325867
vn 0.02484131 -0.9995117 -0.004325867
vn 0.02677917 -0.9995117 -0.01010895
vn 0.01312256 -1 -0.004611969
vn 0.01312256 -1 -0.004611969
vn 0.01029205 -1 -0.007278442
vn 0.01029205 -1 -0.007278442
vn -0.8349609 -0.0002332926 -0.5507813
vn -0.8349609 -0.0002332926 -0.5507813
vn -0.734375 -0.001983643 -0.6791992
vn -0.734375 -0.001983643 -0.6791992
vn -0.7060547 -0.002567291 -0.7084961
vn -0.7060547 -0.002567291 -0.7084961
vn -0.8085938 -0.0004665852 -0.5883789
vn -0.8085938 -0.0004665852 -0.5883789
vn -0.8291016 0.0004665852 -0.5595703
vn -0.8291016 0.0004665852 -0.5595703
vn 0.800293 -0.0004665852 0.5996094
vn 0.800293 -0.0004665852 0.5996094
vn 0.7880859 -0.0009331703 0.6157227
vn 0.7880859 -0.0009331703 0.6157227
vn 0.824707 -0.001399994 0.565918
vn 0.8286133 -0.0009331703 0.5595703
vn 0.8364258 -0.001399994 0.5478516
vn 0.8369141 -5.960464E-08 0.5473633
vn 5.960464E-08 1 0
vn 5.960464E-08 1 0
vn 5.960464E-08 1 0
vn 5.960464E-08 1 0
vn 5.960464E-08 1 0
vn 5.960464E-08 1 0
vn 5.960464E-08 1 0
vn 5.960464E-08 1 0
vn 5.960464E-08 1 0

vt 0.824707 0.109375
vt 0.824707 0.08978271
vt 0.7211914 0.08978271
vt 0.7211914 0.109375
vt 0.824707 0.08978271
vt 0.824707 0.109375
vt 0.7211914 0.109375
vt 0.7211914 0.08978271
vt 0.5693359 0.4309082
vt 0.7050781 0.4309082
vt 0.7050781 0.4577637
vt 0.5693359 0.4577637
vt 0.7050781 0.4833984
vt 0.7050781 0.4577637
vt 0.5693359 0.4577637
vt 0.5693359 0.4833984
vt 0.7050781 0.4577637
vt 0.7050781 0.4833984
vt 0.5693359 0.4833984
vt 0.5693359 0.4577637
vt 0.5693359 0.4577637
vt 0.7050781 0.4577637
vt 0.7050781 0.4309082
vt 0.5693359 0.4309082
vt 0.5693359 0.4309082
vt 0.7050781 0.4309082
vt 0.7050781 0.4577637
vt 0.5693359 0.4577637
vt 0.7050781 0.4833984
vt 0.7050781 0.4577637
vt 0.5693359 0.4577637
vt 0.5693359 0.4833984
vt 0.7050781 0.4577637
vt 0.7050781 0.4833984
vt 0.5693359 0.4833984
vt 0.5693359 0.4577637
vt 0.5693359 0.4577637
vt 0.7050781 0.4577637
vt 0.7050781 0.4309082
vt 0.5693359 0.4309082
vt 0.5693359 0.4309082
vt 0.7050781 0.4309082
vt 0.7050781 0.4577637
vt 0.5693359 0.4577637
vt 0.7050781 0.4833984
vt 0.7050781 0.4577637
vt 0.5693359 0.4577637
vt 0.5693359 0.4833984
vt 0.7050781 0.4577637
vt 0.7050781 0.4833984
vt 0.5693359 0.4833984
vt 0.5693359 0.4577637
vt 0.5693359 0.4577637
vt 0.7050781 0.4577637
vt 0.7050781 0.4309082
vt 0.5693359 0.4309082
vt 0.5693359 0.4309082
vt 0.7050781 0.4309082
vt 0.7050781 0.4577637
vt 0.5693359 0.4577637
vt 0.7050781 0.4833984
vt 0.7050781 0.4577637
vt 0.5693359 0.4577637
vt 0.5693359 0.4833984
vt 0.7050781 0.4577637
vt 0.7050781 0.4833984
vt 0.5693359 0.4833984
vt 0.5693359 0.4577637
vt 0.5693359 0.4577637
vt 0.7050781 0.4577637
vt 0.7050781 0.4309082
vt 0.5693359 0.4309082
vt 0.6943359 0.1794434
vt 0.6943359 0.2122803
vt 0.684082 0.2122803
vt 0.6845703 0.1794434
vt 0.6831055 0.1794434
vt 0.6728516 0.1794434
vt 0.6723633 0.2122803
vt 0.6616211 0.1794434
vt 0.6616211 0.2122803
vt 0.824707 0.2126465
vt 0.8442383 0.2126465
vt 0.8442383 0.1824951
vt 0.824707 0.1827393
vt 0.8442383 0.1773682
vt 0.824707 0.1768799
vt 0.8442383 0.1446533
vt 0.824707 0.144043
vt 0.8442383 0.109375
vt 0.824707 0.109375
vt 0.7016602 0.1439209
vt 0.7211914 0.1446533
vt 0.7211914 0.109375
vt 0.7016602 0.109375
vt 0.7211914 0.1790771
vt 0.7016602 0.1800537
vt 0.7211914 0.2126465
vt 0.7016602 0.2126465
vt 0.7211914 0.1790771
vt 0.7211914 0.2126465
vt 0.824707 0.2126465
vt 0.824707 0.1827393
vt 0.824707 0.1768799
vt 0.824707 0.144043
vt 0.7211914 0.1446533
vt 0.7211914 0.109375
vt 0.824707 0.109375

g Chair_Wooden_01_(7)_6584_127
usemtl Chair_Wooden_01_(7)_6584_127
usemap Chair_Wooden_01_(7)_6584_127
f 1/1/1 3/3/3 2/2/2
f 1/1/1 4/4/4 3/3/3
f 5/5/5 7/7/7 6/6/6
f 5/5/5 8/8/8 7/7/7
f 9/9/9 11/11/11 10/10/10
f 9/9/9 12/12/12 11/11/11
f 13/13/13 15/15/15 14/14/14
f 13/13/13 16/16/16 15/15/15
f 17/17/17 19/19/19 18/18/18
f 17/17/17 20/20/20 19/19/19
f 21/21/21 23/23/23 22/22/22
f 21/21/21 24/24/24 23/23/23
f 25/25/25 27/27/27 26/26/26
f 25/25/25 28/28/28 27/27/27
f 29/29/29 31/31/31 30/30/30
f 29/29/29 32/32/32 31/31/31
f 33/33/33 35/35/35 34/34/34
f 33/33/33 36/36/36 35/35/35
f 37/37/37 39/39/39 38/38/38
f 37/37/37 40/40/40 39/39/39
f 41/41/41 43/43/43 42/42/42
f 41/41/41 44/44/44 43/43/43
f 45/45/45 47/47/47 46/46/46
f 45/45/45 48/48/48 47/47/47
f 49/49/49 51/51/51 50/50/50
f 49/49/49 52/52/52 51/51/51
f 53/53/53 55/55/55 54/54/54
f 53/53/53 56/56/56 55/55/55
f 57/57/57 59/59/59 58/58/58
f 57/57/57 60/60/60 59/59/59
f 61/61/61 63/63/63 62/62/62
f 61/61/61 64/64/64 63/63/63
f 65/65/65 67/67/67 66/66/66
f 65/65/65 68/68/68 67/67/67
f 69/69/69 71/71/71 70/70/70
f 69/69/69 72/72/72 71/71/71
f 73/73/73 75/75/75 74/74/74
f 73/73/73 76/76/76 75/75/75
f 75/75/75 76/76/76 77/77/77
f 78/78/78 75/75/75 77/77/77
f 78/78/78 79/79/79 75/75/75
f 79/79/79 78/78/78 80/80/80
f 79/79/79 80/80/80 81/81/81
f 82/82/82 84/84/84 83/83/83
f 82/82/82 85/85/85 84/84/84
f 85/85/85 86/86/86 84/84/84
f 85/85/85 87/87/87 86/86/86
f 87/87/87 88/88/88 86/86/86
f 87/87/87 89/89/89 88/88/88
f 89/89/89 90/90/90 88/88/88
f 89/89/89 91/91/91 90/90/90
f 92/92/92 94/94/94 93/93/93
f 92/92/92 95/95/95 94/94/94
f 92/92/92 93/93/93 96/96/96
f 92/92/92 96/96/96 97/97/97
f 96/96/96 98/98/98 97/97/97
f 99/99/99 97/97/97 98/98/98
f 100/100/100 102/102/102 101/101/101
f 100/100/100 103/103/103 102/102/102
f 100/100/100 104/104/104 103/103/103
f 100/100/100 105/105/105 104/104/104
f 100/100/100 106/106/106 105/105/105
f 107/107/107 105/105/105 106/106/106
f 107/107/107 108/108/108 105/105/105
