#Jug_02_6191_19.obj

v -0.1906237 0.06193765 0.3308304
v -0.1178134 0.1621585 0.3308315
v -0.1081923 0.1489183 0.4579881
v -0.175064 0.05688098 0.4579877
v 1.134569E-07 0.1840729 0.4579876
v -3.487078E-07 0.2004374 0.3308314
v 0.1081919 0.1489182 0.4579879
v 0.1178125 0.1621585 0.3308312
v 0.1750639 0.05688218 0.4579885
v 0.190624 0.06193901 0.3308305
v 0.1750637 -0.05688065 0.4579884
v 0.1906238 -0.06193573 0.330831
v -4.612756E-07 0.1228245 0.6457162
v -0.07219274 0.0993658 0.6457161
v 0.0721935 0.09936558 0.6457157
v 0.1168099 0.03795509 0.6457164
v 0.1168097 -0.03795258 0.6457177
v -0.1168103 0.03795546 0.6457176
v 0.1016204 0.1398695 0.1384839
v 0.1644251 0.05342586 0.138484
v 0.07863569 0.1082344 -0.002602925
v 0.1272352 0.04134273 -0.002602962
v 0.1644251 -0.05342515 0.138484
v 0.1272353 -0.04134135 -0.002603216
v -2.198993E-07 0.1337852 -0.002602885
v 3.752207E-07 0.1728876 0.1384837
v -0.1016198 0.1398697 0.1384837
v -0.07863609 0.1082341 -0.002603271
v -0.1272348 0.04134279 -0.002603346
v -0.164425 0.05342507 0.1384844
v -0.1272348 0.04134279 -0.002603346
v 3.484161E-07 -3.719252E-07 -0.002603565
v -0.07863609 0.1082341 -0.002603271
v -2.198993E-07 0.1337852 -0.002602885
v 0.07863569 0.1082344 -0.002602925
v 0.1272352 0.04134273 -0.002602962
v 0.1272353 -0.04134135 -0.002603216
v -0.1248439 0.04056401 0.7269698
v -0.07715599 0.1061991 0.7269701
v -0.06098612 0.08394025 0.7269697
v -0.09867491 0.03206202 0.7269701
v 3.131655E-07 0.1037557 0.7269694
v -2.718818E-07 0.1312703 0.7269709
v 0.06098594 0.08394016 0.7269705
v 0.07715584 0.1061992 0.7269705
v 0.09867533 0.03206272 0.7269697
v 0.1248442 0.04056477 0.7269701
v 0.09867527 -0.03206028 0.7269702
v 0.1248438 -0.04056275 0.7269705
v -0.06098612 0.08394025 0.7269697
v -3.889481E-07 4.192416E-07 0.02807724
v -0.09867491 0.03206202 0.7269701
v 3.131655E-07 0.1037557 0.7269694
v 0.06098594 0.08394016 0.7269705
v 0.09867533 0.03206272 0.7269697
v 0.09867527 -0.03206028 0.7269702
v 0.1906238 -0.06193573 0.330831
v 0.1178126 -0.1621566 0.3308315
v 0.1081918 -0.1489158 0.4579885
v 0.1750637 -0.05688065 0.4579884
v 8.251278E-08 -0.1840721 0.4579884
v 2.425411E-07 -0.2004372 0.330831
v -3.29004E-07 -0.1228226 0.6457174
v 0.07219297 -0.09936292 0.6457176
v 0.1168097 -0.03795258 0.6457177
v 0.1644251 -0.05342515 0.138484
v 0.1016201 -0.1398681 0.1384836
v 0.1272353 -0.04134135 -0.002603216
v 0.07863549 -0.1082315 -0.002602725
v -5.987496E-08 -0.133783 -0.002602551
v -2.634275E-07 -0.1728877 0.1384847
v 0.07715573 -0.1061987 0.7269707
v 0.1248438 -0.04056275 0.7269705
v 0.06098631 -0.08394022 0.7269695
v 0.09867527 -0.03206028 0.7269702
v -3.344621E-07 -0.1037535 0.7269704
v 1.289516E-07 -0.131269 0.7269694
v -0.1906239 -0.06193705 0.3308309
v -0.1906237 0.06193765 0.3308304
v -0.175064 0.05688098 0.4579877
v -0.1750643 -0.05688266 0.4579881
v -0.1178126 -0.1621574 0.3308307
v -0.1081923 -0.1489157 0.4579887
v 2.425411E-07 -0.2004372 0.330831
v 8.251278E-08 -0.1840721 0.4579884
v -0.07219251 -0.09936352 0.6457168
v -3.29004E-07 -0.1228226 0.6457174
v -0.1168096 -0.03795439 0.6457167
v -0.1168103 0.03795546 0.6457176
v -0.1016198 -0.1398683 0.138484
v -0.1644247 -0.05342726 0.1384833
v -0.07863628 -0.1082317 -0.002603071
v -0.1272348 -0.04134218 -0.00260304
v -0.164425 0.05342507 0.1384844
v -0.1272348 0.04134279 -0.002603346
v -5.987496E-08 -0.133783 -0.002602551
v -2.634275E-07 -0.1728877 0.1384847
v -0.1248439 0.04056401 0.7269698
v -0.1248439 -0.0405631 0.7269703
v -0.09867491 0.03206202 0.7269701
v -0.09867484 -0.0320601 0.7269701
v -0.07715611 -0.1061988 0.7269704
v -0.06098621 -0.08393978 0.7269704
v 1.289516E-07 -0.131269 0.7269694
v -3.344621E-07 -0.1037535 0.7269704
v 0.1272353 -0.04134135 -0.002603216
v 3.484161E-07 -3.719252E-07 -0.002603565
v 0.07863549 -0.1082315 -0.002602725
v -5.987496E-08 -0.133783 -0.002602551
v -0.07863628 -0.1082317 -0.002603071
v -0.1272348 -0.04134218 -0.00260304
v -0.1272348 0.04134279 -0.002603346
v 0.06098631 -0.08394022 0.7269695
v -3.889481E-07 4.192416E-07 0.02807724
v 0.09867527 -0.03206028 0.7269702
v -3.344621E-07 -0.1037535 0.7269704
v -0.06098621 -0.08393978 0.7269704
v -0.09867484 -0.0320601 0.7269701
v -0.09867491 0.03206202 0.7269701

vn -0.6123047 -0.4824219 -0.6264648
vn -0.6943359 0.1246948 -0.7084961
vn -0.8383789 0.1216431 -0.53125
vn -0.7583008 -0.470459 -0.4509277
vn -0.6577148 0.6674805 -0.3496094
vn -0.5092773 0.684082 -0.5224609
vn -0.2854004 0.9580078 0.02503967
vn -0.1274414 0.9819336 -0.1384277
vn 0.1363525 0.8828125 0.4492188
vn 0.3046875 0.9052734 0.2966309
vn 0.4462891 0.470459 0.7612305
vn 0.6225586 0.4824219 0.6162109
vn -0.5864258 0.6801758 -0.4396973
vn -0.7709961 0.1239624 -0.625
vn -0.2070313 0.9765625 -0.05776978
vn 0.2227783 0.8999023 0.3747559
vn 0.5385742 0.4794922 0.6923828
vn -0.6894531 -0.4794922 -0.5429688
vn 0.01561737 0.9614258 -0.2749023
vn 0.4387207 0.8857422 0.1507568
vn 0.06170654 0.9462891 -0.3168945
vn 0.4782715 0.8720703 0.102356
vn 0.75 0.472168 0.463623
vn 0.784668 0.4648438 0.4104004
vn -0.3061523 0.6591797 -0.6870117
vn -0.3579102 0.6694336 -0.6508789
vn -0.5390625 0.1220703 -0.8330078
vn -0.4846191 0.1201782 -0.8662109
vn -0.4057617 -0.4648438 -0.7871094
vn -0.4589844 -0.472168 -0.7524414
vn 0.7094727 5.960464E-08 -0.7050781
vn 0.7094727 5.960464E-08 -0.7050781
vn 0.7094727 5.960464E-08 -0.7050781
vn 0.7094727 5.960464E-08 -0.7050781
vn 0.7094727 5.960464E-08 -0.7050781
vn 0.7094727 5.960464E-08 -0.7050781
vn 0.7094727 5.960464E-08 -0.7050781
vn -0.9365234 -0.3491211 0.03637695
vn -0.9956055 0.090271 -0.02328491
vn -0.7094727 -5.960464E-08 0.7050781
vn -0.7094727 -5.960464E-08 0.7050781
vn -0.7094727 -5.960464E-08 0.7050781
vn -0.8613281 0.4953613 0.1116943
vn -0.7094727 -5.960464E-08 0.7050781
vn -0.5849609 0.7109375 0.3896484
vn -0.7094727 -5.960464E-08 0.7050781
vn -0.2722168 0.6552734 0.7045898
vn -0.7094727 -5.960464E-08 0.7050781
vn -0.04208374 0.3491211 0.9360352
vn 0.5878906 -0.123291 0.7998047
vn -0.7094727 -5.960464E-08 0.7050781
vn 0.5068359 0.4770508 0.7182617
vn 0.404541 -0.6767578 0.6152344
vn 0.02694702 -0.9716797 0.2354736
vn -0.4006348 -0.8955078 -0.1948242
vn -0.7148438 -0.4770508 -0.5112305
vn 0.6225586 0.4824219 0.6162109
vn 0.7045898 -0.1246948 0.6987305
vn 0.5263672 -0.1216431 0.8417969
vn 0.4462891 0.470459 0.7612305
vn 0.345459 -0.6674805 0.659668
vn 0.519043 -0.684082 0.512207
vn 0.4360352 -0.6801758 0.5893555
vn 0.6201172 -0.1239624 0.7744141
vn 0.5385742 0.4794922 0.6923828
vn 0.75 0.472168 0.463623
vn 0.8300781 -0.1220093 0.5444336
vn 0.784668 0.4648438 0.4104004
vn 0.8632813 -0.1201782 0.4899902
vn 0.6850586 -0.6591797 0.3103027
vn 0.6484375 -0.6694336 0.3618164
vn 0.01722717 -0.090271 0.9956055
vn -0.04208374 0.3491211 0.9360352
vn -0.7094727 -5.960464E-08 0.7050781
vn -0.7094727 -5.960464E-08 0.7050781
vn -0.7094727 -5.960464E-08 0.7050781
vn -0.1168823 -0.4953613 0.8608398
vn -0.2946777 -0.9052734 -0.3066406
vn -0.6123047 -0.4824219 -0.6264648
vn -0.7583008 -0.470459 -0.4509277
vn -0.4484863 -0.8828125 -0.1390381
vn 0.1375732 -0.9819336 0.1282959
vn -0.02677917 -0.9580078 0.2851563
vn 0.519043 -0.684082 0.512207
vn 0.345459 -0.6674805 0.659668
vn 0.05651855 -0.9765625 0.2073975
vn 0.4360352 -0.6801758 0.5893555
vn -0.373291 -0.8999023 -0.2250977
vn -0.6894531 -0.4794922 -0.5429688
vn 0.2751465 -0.9614258 -0.01394653
vn -0.1480713 -0.8857422 -0.4396973
vn 0.3171387 -0.9462891 -0.05978394
vn -0.09942627 -0.8720703 -0.4790039
vn -0.4589844 -0.472168 -0.7524414
vn -0.4057617 -0.4648438 -0.7871094
vn 0.6850586 -0.6591797 0.3103027
vn 0.6484375 -0.6694336 0.3618164
vn -0.9365234 -0.3491211 0.03637695
vn -0.7060547 -0.6552734 0.2678223
vn -0.7094727 -5.960464E-08 0.7050781
vn -0.7094727 -5.960464E-08 0.7050781
vn -0.3933105 -0.7109375 0.5830078
vn -0.7094727 -5.960464E-08 0.7050781
vn -0.1168823 -0.4953613 0.8608398
vn -0.7094727 -5.960464E-08 0.7050781
vn 0.7094727 5.960464E-08 -0.7050781
vn 0.7094727 5.960464E-08 -0.7050781
vn 0.7094727 5.960464E-08 -0.7050781
vn 0.7094727 5.960464E-08 -0.7050781
vn 0.7094727 5.960464E-08 -0.7050781
vn 0.7094727 5.960464E-08 -0.7050781
vn 0.7094727 5.960464E-08 -0.7050781
vn -0.7958984 0.1233521 -0.5927734
vn -0.7094727 -5.960464E-08 0.7050781
vn -0.7148438 -0.4770508 -0.5112305
vn -0.612793 0.6767578 -0.4082031
vn -0.2352295 0.9716797 -0.02838135
vn 0.1923828 0.8955078 0.4018555
vn 0.5068359 0.4770508 0.7182617

vt 0.550293 0.5625
vt 0.5126953 0.5625
vt 0.5126953 0.5981445
vt 0.550293 0.5981445
vt 0.4719238 0.5981445
vt 0.4719238 0.5625
vt 0.4311523 0.5981445
vt 0.4311523 0.5625
vt 0.3933105 0.5981445
vt 0.3933105 0.5625
vt 0.3557129 0.5981445
vt 0.3557129 0.5625
vt 0.4719238 0.6396484
vt 0.5126953 0.6401367
vt 0.4311523 0.6396484
vt 0.3933105 0.6396484
vt 0.3557129 0.6401367
vt 0.550293 0.6401367
vt 0.4311523 0.5073242
vt 0.3933105 0.5073242
vt 0.4311523 0.4614258
vt 0.3933105 0.4614258
vt 0.3557129 0.5073242
vt 0.3557129 0.4614258
vt 0.4719238 0.4614258
vt 0.4719238 0.5073242
vt 0.5126953 0.5073242
vt 0.5126953 0.4614258
vt 0.550293 0.4614258
vt 0.550293 0.5073242
vt 0.4870605 0.489502
vt 0.4360352 0.4719238
vt 0.465332 0.5063477
vt 0.4433594 0.5126953
vt 0.4223633 0.5112305
vt 0.4025879 0.5019531
vt 0.3840332 0.482666
vt 0.550293 0.6621094
vt 0.5126953 0.6621094
vt 0.5126953 0.6728516
vt 0.550293 0.6728516
vt 0.4719238 0.6728516
vt 0.4719238 0.6621094
vt 0.4311523 0.6728516
vt 0.4311523 0.6621094
vt 0.3933105 0.6728516
vt 0.3933105 0.6621094
vt 0.3557129 0.6728516
vt 0.3557129 0.6621094
vt 0.4650879 0.5693359
vt 0.4567871 0.4746094
vt 0.4702148 0.5693359
vt 0.4567871 0.5693359
vt 0.4484863 0.5693359
vt 0.4433594 0.5693359
vt 0.4433594 0.5693359
vt 0.550293 0.5625
vt 0.5126953 0.5625
vt 0.5126953 0.5981445
vt 0.550293 0.5981445
vt 0.4719238 0.5981445
vt 0.4719238 0.5625
vt 0.4719238 0.6396484
vt 0.5126953 0.6401367
vt 0.550293 0.6401367
vt 0.550293 0.5073242
vt 0.5126953 0.5073242
vt 0.550293 0.4614258
vt 0.5126953 0.4614258
vt 0.4719238 0.4614258
vt 0.4719238 0.5073242
vt 0.5126953 0.6621094
vt 0.550293 0.6621094
vt 0.5126953 0.6728516
vt 0.550293 0.6728516
vt 0.4719238 0.6728516
vt 0.4719238 0.6621094
vt 0.3933105 0.5625
vt 0.3557129 0.5625
vt 0.3557129 0.5981445
vt 0.3933105 0.5981445
vt 0.4311523 0.5625
vt 0.4311523 0.5981445
vt 0.4719238 0.5625
vt 0.4719238 0.5981445
vt 0.4311523 0.6396484
vt 0.4719238 0.6396484
vt 0.3933105 0.6396484
vt 0.3557129 0.6401367
vt 0.4311523 0.5073242
vt 0.3933105 0.5073242
vt 0.4311523 0.4614258
vt 0.3933105 0.4614258
vt 0.3557129 0.5073242
vt 0.3557129 0.4614258
vt 0.4719238 0.4614258
vt 0.4719238 0.5073242
vt 0.3557129 0.6621094
vt 0.3933105 0.6621094
vt 0.3557129 0.6728516
vt 0.3933105 0.6728516
vt 0.4311523 0.6621094
vt 0.4311523 0.6728516
vt 0.4719238 0.6621094
vt 0.4719238 0.6728516
vt 0.4870605 0.489502
vt 0.4360352 0.4719238
vt 0.465332 0.5063477
vt 0.4433594 0.5126953
vt 0.4223633 0.5112305
vt 0.4025879 0.5019531
vt 0.3840332 0.482666
vt 0.4650879 0.5693359
vt 0.4567871 0.4746094
vt 0.4702148 0.5693359
vt 0.4567871 0.5693359
vt 0.4484863 0.5693359
vt 0.4433594 0.5693359
vt 0.4433594 0.5693359

g Jug_02_6191_19
usemtl Jug_02_6191_19
usemap Jug_02_6191_19
f 1/1/1 3/3/3 2/2/2
f 1/1/1 4/4/4 3/3/3
f 2/2/2 3/3/3 5/5/5
f 2/2/2 5/5/5 6/6/6
f 6/6/6 5/5/5 7/7/7
f 6/6/6 7/7/7 8/8/8
f 8/8/8 7/7/7 9/9/9
f 8/8/8 9/9/9 10/10/10
f 10/10/10 9/9/9 11/11/11
f 10/10/10 11/11/11 12/12/12
f 3/3/3 13/13/13 5/5/5
f 3/3/3 14/14/14 13/13/13
f 4/4/4 14/14/14 3/3/3
f 5/5/5 15/15/15 7/7/7
f 5/5/5 13/13/13 15/15/15
f 7/7/7 16/16/16 9/9/9
f 7/7/7 15/15/15 16/16/16
f 9/9/9 17/17/17 11/11/11
f 9/9/9 16/16/16 17/17/17
f 4/4/4 18/18/18 14/14/14
f 19/19/19 8/8/8 10/10/10
f 19/19/19 10/10/10 20/20/20
f 20/20/20 10/10/10 12/12/12
f 20/20/20 21/21/21 19/19/19
f 20/20/20 22/22/22 21/21/21
f 23/23/23 22/22/22 20/20/20
f 20/20/20 12/12/12 23/23/23
f 23/23/23 24/24/24 22/22/22
f 19/19/19 21/21/21 25/25/25
f 19/19/19 25/25/25 26/26/26
f 27/27/27 26/26/26 25/25/25
f 27/27/27 25/25/25 28/28/28
f 27/27/27 28/28/28 29/29/29
f 27/27/27 29/29/29 30/30/30
f 30/30/30 2/2/2 27/27/27
f 30/30/30 1/1/1 2/2/2
f 27/27/27 6/6/6 26/26/26
f 27/27/27 2/2/2 6/6/6
f 26/26/26 8/8/8 19/19/19
f 26/26/26 6/6/6 8/8/8
f 31/31/31 33/33/33 32/32/32
f 33/33/33 34/34/34 32/32/32
f 34/34/34 35/35/35 32/32/32
f 35/35/35 36/36/36 32/32/32
f 36/36/36 37/37/37 32/32/32
f 38/38/38 40/40/40 39/39/39
f 38/38/38 41/41/41 40/40/40
f 39/39/39 40/40/40 42/42/42
f 39/39/39 42/42/42 43/43/43
f 43/43/43 42/42/42 44/44/44
f 43/43/43 44/44/44 45/45/45
f 45/45/45 44/44/44 46/46/46
f 45/45/45 46/46/46 47/47/47
f 47/47/47 46/46/46 48/48/48
f 47/47/47 48/48/48 49/49/49
f 18/18/18 38/38/38 39/39/39
f 18/18/18 39/39/39 14/14/14
f 16/16/16 47/47/47 49/49/49
f 16/16/16 49/49/49 17/17/17
f 15/15/15 47/47/47 16/16/16
f 15/15/15 45/45/45 47/47/47
f 13/13/13 45/45/45 15/15/15
f 13/13/13 43/43/43 45/45/45
f 13/13/13 39/39/39 43/43/43
f 13/13/13 14/14/14 39/39/39
f 50/50/50 52/52/52 51/51/51
f 53/53/53 50/50/50 51/51/51
f 54/54/54 53/53/53 51/51/51
f 55/55/55 54/54/54 51/51/51
f 56/56/56 55/55/55 51/51/51
f 57/57/57 59/59/59 58/58/58
f 57/57/57 60/60/60 59/59/59
f 58/58/58 59/59/59 61/61/61
f 58/58/58 61/61/61 62/62/62
f 59/59/59 63/63/63 61/61/61
f 59/59/59 64/64/64 63/63/63
f 60/60/60 64/64/64 59/59/59
f 60/60/60 65/65/65 64/64/64
f 66/66/66 57/57/57 58/58/58
f 66/66/66 58/58/58 67/67/67
f 67/67/67 58/58/58 62/62/62
f 67/67/67 68/68/68 66/66/66
f 67/67/67 69/69/69 68/68/68
f 67/67/67 70/70/70 69/69/69
f 67/67/67 71/71/71 70/70/70
f 67/67/67 62/62/62 71/71/71
f 65/65/65 72/72/72 64/64/64
f 63/63/63 64/64/64 72/72/72
f 65/65/65 73/73/73 72/72/72
f 73/73/73 74/74/74 72/72/72
f 73/73/73 75/75/75 74/74/74
f 72/72/72 74/74/74 76/76/76
f 72/72/72 76/76/76 77/77/77
f 63/63/63 72/72/72 77/77/77
f 78/78/78 80/80/80 79/79/79
f 78/78/78 81/81/81 80/80/80
f 82/82/82 81/81/81 78/78/78
f 82/82/82 83/83/83 81/81/81
f 84/84/84 83/83/83 82/82/82
f 84/84/84 85/85/85 83/83/83
f 85/85/85 86/86/86 83/83/83
f 85/85/85 87/87/87 86/86/86
f 83/83/83 88/88/88 81/81/81
f 83/83/83 86/86/86 88/88/88
f 81/81/81 89/89/89 80/80/80
f 81/81/81 88/88/88 89/89/89
f 90/90/90 82/82/82 78/78/78
f 90/90/90 78/78/78 91/91/91
f 91/91/91 78/78/78 79/79/79
f 91/91/91 92/92/92 90/90/90
f 91/91/91 93/93/93 92/92/92
f 94/94/94 93/93/93 91/91/91
f 91/91/91 79/79/79 94/94/94
f 94/94/94 95/95/95 93/93/93
f 90/90/90 92/92/92 96/96/96
f 90/90/90 96/96/96 97/97/97
f 97/97/97 82/82/82 90/90/90
f 97/97/97 84/84/84 82/82/82
f 88/88/88 98/98/98 89/89/89
f 88/88/88 99/99/99 98/98/98
f 86/86/86 99/99/99 88/88/88
f 99/99/99 100/100/100 98/98/98
f 99/99/99 101/101/101 100/100/100
f 102/102/102 101/101/101 99/99/99
f 102/102/102 103/103/103 101/101/101
f 104/104/104 103/103/103 102/102/102
f 104/104/104 105/105/105 103/103/103
f 86/86/86 102/102/102 99/99/99
f 87/87/87 102/102/102 86/86/86
f 87/87/87 104/104/104 102/102/102
f 106/106/106 108/108/108 107/107/107
f 108/108/108 109/109/109 107/107/107
f 109/109/109 110/110/110 107/107/107
f 110/110/110 111/111/111 107/107/107
f 111/111/111 112/112/112 107/107/107
f 113/113/113 115/115/115 114/114/114
f 116/116/116 113/113/113 114/114/114
f 117/117/117 116/116/116 114/114/114
f 118/118/118 117/117/117 114/114/114
f 119/119/119 118/118/118 114/114/114
