#Paper_Preset_01_7016_120.obj

v -0.1353666 0.1507468 -0.08864584
v 0.1548557 0.1233726 -0.1038793
v -0.1235477 0.1278715 0.1366846
v 0.1667156 0.1279638 0.1214512
v -0.1201286 1.259066E-18 -0.1098478
v -0.1353666 0.1507468 -0.08864584
v -0.1414327 3.137642E-17 0.1147843
v -0.1235477 0.1278715 0.1366846
v -0.1414327 3.137642E-17 0.1147843
v -0.1235477 0.1278715 0.1366846
v 0.1479181 -6.971672E-19 0.1422258
v 0.1667156 0.1279638 0.1214512
v 0.1692002 -3.08123E-17 -0.08241005
v 0.1548557 0.1233726 -0.1038793
v -0.1201286 1.259066E-18 -0.1098478
v -0.1353666 0.1507468 -0.08864584
v 0.1548557 0.1233726 -0.1038793
v 0.1692002 -3.08123E-17 -0.08241005
v 0.1667156 0.1279638 0.1214512
v 0.1479181 -6.971672E-19 0.1422258
v -0.1201286 1.259066E-18 -0.1098478
v -0.1414327 3.137642E-17 0.1147843
v 0.1692002 -3.08123E-17 -0.08241005
v 0.1479181 -6.971672E-19 0.1422258
v -0.1532554 0.09231722 0.05425257
v -0.1313481 0.09224093 -0.1023062
v 0.1077225 0.08773518 0.09222437
v 0.1371976 0.08764446 -0.1103759
v -0.123952 0.0822742 -0.1483648
v 0.1184992 0.04272437 0.1359962
v 0.1075025 0.01726508 0.1770289
v -0.1071274 0.0465945 0.1473297
v 0.147952 0.042575 -0.03798426
v -0.1438243 0.04724085 0.1410256
v -0.1388656 0.04762471 -0.08653634
v -0.1767226 0.03828919 0.1361043
v -0.1624369 0.004097581 -0.1618215
v 0.1414163 0.004097581 -0.1846098
v -0.1447497 0.004097581 0.07402613
v 0.1591026 0.004097581 0.05124541
v 0.1453867 0.1342409 0.06103763
v 0.1265252 0.1612816 0.1466202
v 0.05980998 0.1404734 0.1430891
v 0.1528787 0.1296095 0.02198282
v -0.02153214 0.1320226 0.1322929
v 0.1656158 0.1247169 -0.06942485
v -0.1533994 0.1339586 0.1138992
v -0.1222195 0.152091 -0.109577
v -0.03849814 0.01625931 0.2038526
v 0.07178321 0.009535313 0.2181663
v -0.02499775 0.03724337 0.2399798
v -0.05199845 0.00315249 0.1591309
v 0.1146214 0.00315249 0.2043079
v 0.2258783 0.00315249 -0.1094729
v -0.103411 0.00315249 -0.008453001
v 0.304291 0.00315249 0.1461201

vn 0.09539795 0.9907227 -0.09844971
vn 0.02856445 0.9985352 -0.04083252
vn 0.04705811 0.9970703 -0.05679321
vn -0.02029419 1 0.001382828
vn -0.09405518 -0.08703613 0.9916992
vn -0.04122925 -0.01546478 0.9990234
vn 0.006568909 0.04904175 0.9985352
vn 0.06481934 0.1273193 0.9897461
vn 0.9833984 -0.1553955 0.09326172
vn 0.9956055 -0.07653809 0.05636597
vn 0.9970703 0.07373047 -0.01438141
vn 0.9868164 0.1525879 -0.05175781
vn -0.9829102 -0.1601563 -0.09320068
vn -0.9956055 -0.07525635 -0.05535889
vn -0.9980469 0.06060791 0.005527496
vn -0.9902344 0.1352539 0.03921509
vn -0.05441284 0.105957 -0.9926758
vn -0.006641388 0.02996826 -0.9995117
vn 0.04718018 -0.05581665 -0.9975586
vn 0.09350586 -0.1298828 -0.9873047
vn 0 -1 0
vn 0 -1 0
vn 0 -1 0
vn 0 -1 0
vn 0.001930237 1 -0.01727295
vn -0.09234619 0.9956055 -0.01429749
vn 0.002008438 1 -0.01721191
vn -0.02201843 0.9995117 -0.01644897
vn -0.2098389 0.9775391 -0.01042938
vn 0.2366943 0.9711914 -0.02854919
vn 0.534668 0.84375 -0.04135132
vn 0.03991699 0.9990234 -0.01913452
vn 0.002061844 1 -0.01725769
vn -0.0007538795 0.9936523 0.1115723
vn 0.001476288 1 0.009674072
vn -0.004077911 0.9648438 0.2619629
vn 0 1 0
vn 0 1 0
vn 0 1 0
vn 0 1 0
vn -0.1713867 0.980957 0.09295654
vn -0.3430176 0.9018555 0.2631836
vn -0.2060547 0.9692383 0.1328125
vn -0.078125 0.996582 0.03305054
vn -0.05258179 0.9985352 0.008125305
vn 0.01303101 0.9995117 -0.02929688
vn 0.0451355 0.9975586 -0.05484009
vn 0.09191895 0.9921875 -0.08154297
vn -0.3942871 0.9125977 -0.1068115
vn -0.2888184 0.9541016 -0.07672119
vn -0.5317383 0.8383789 -0.1201172
vn -0.09765625 0.9946289 -0.03036499
vn -0.04553223 0.9990234 -0.01234436
vn 0 1 0
vn 0 1 0
vn 0 1 0

vt 0.6665039 0.7143555
vt 0.6665039 0.8266602
vt 0.7539063 0.7143555
vt 0.7539063 0.8266602
vt 0.6665039 0.6694336
vt 0.6665039 0.7143555
vt 0.7539063 0.6694336
vt 0.7539063 0.7143555
vt 0.7988281 0.7143555
vt 0.7539063 0.7143555
vt 0.7988281 0.8266602
vt 0.7539063 0.8266602
vt 0.621582 0.8266602
vt 0.6665039 0.8266602
vt 0.621582 0.7143555
vt 0.6665039 0.7143555
vt 0.6665039 0.7143555
vt 0.6665039 0.6694336
vt 0.7539063 0.7143555
vt 0.7539063 0.6694336
vt 0.6665039 0.7143555
vt 0.7539063 0.7143555
vt 0.6665039 0.8266602
vt 0.7539063 0.8266602
vt 0.6103516 0.7143555
vt 0.5429688 0.7138672
vt 0.6103516 0.8266602
vt 0.5229492 0.8266602
vt 0.5229492 0.7143555
vt 0.4926758 0.8276367
vt 0.5117188 0.8276367
vt 0.5112305 0.7426758
vt 0.4245605 0.8276367
vt 0.5112305 0.7280273
vt 0.4245605 0.715332
vt 0.5117188 0.715332
vt 0.4245605 0.715332
vt 0.4245605 0.8276367
vt 0.5117188 0.715332
vt 0.5117188 0.8276367
vt 0.7177734 0.8266602
vt 0.7539063 0.8266602
vt 0.7539063 0.7983398
vt 0.7021484 0.8266602
vt 0.7539063 0.765625
vt 0.6665039 0.8266602
vt 0.7539063 0.7143555
vt 0.6665039 0.7143555
vt 0.4968262 0.715332
vt 0.5117188 0.7480469
vt 0.5117188 0.715332
vt 0.4816895 0.715332
vt 0.5117188 0.7626953
vt 0.4245605 0.8276367
vt 0.4245605 0.715332
vt 0.5117188 0.8276367

g Paper_Preset_01_7016_120
usemtl Paper_Preset_01_7016_120
usemap Paper_Preset_01_7016_120
f 1/1/1 3/3/3 2/2/2
f 2/2/2 3/3/3 4/4/4
f 5/5/5 7/7/7 6/6/6
f 6/6/6 7/7/7 8/8/8
f 9/9/9 11/11/11 10/10/10
f 10/10/10 11/11/11 12/12/12
f 13/13/13 15/15/15 14/14/14
f 14/14/14 15/15/15 16/16/16
f 17/17/17 19/19/19 18/18/18
f 18/18/18 19/19/19 20/20/20
f 21/21/21 23/23/23 22/22/22
f 22/22/22 23/23/23 24/24/24
f 25/25/25 27/27/27 26/26/26
f 26/26/26 27/27/27 28/28/28
f 29/29/29 26/26/26 28/28/28
f 30/30/30 32/32/32 31/31/31
f 32/32/32 30/30/30 33/33/33
f 34/34/34 32/32/32 33/33/33
f 35/35/35 34/34/34 33/33/33
f 35/35/35 36/36/36 34/34/34
f 37/37/37 39/39/39 38/38/38
f 38/38/38 39/39/39 40/40/40
f 41/41/41 43/43/43 42/42/42
f 44/44/44 43/43/43 41/41/41
f 45/45/45 43/43/43 44/44/44
f 45/45/45 44/44/44 46/46/46
f 47/47/47 45/45/45 46/46/46
f 48/48/48 47/47/47 46/46/46
f 49/49/49 51/51/51 50/50/50
f 49/49/49 50/50/50 52/52/52
f 52/52/52 50/50/50 53/53/53
f 52/52/52 53/53/53 54/54/54
f 55/55/55 52/52/52 54/54/54
f 53/53/53 56/56/56 54/54/54
