#Shelf_Preset_01_(1)_6179_35.obj

v -0.44653 -0.08743548 0.4504959
v -0.4008441 -0.2647738 0.404808
v -0.4677337 -0.2647738 0.404809
v -0.4008441 -0.08743548 0.404808
v -0.3339531 -0.2647738 0.4048084
v -0.3551561 -0.08743548 0.3591209
v -0.4008431 0.08990288 0.4716991
v -0.4008441 0.08990288 0.404808
v -0.400843 0.08990288 0.3379177
v -0.3551569 -0.08743548 0.4504947
v -0.4008441 -0.2647738 0.404808
v -0.4008431 -0.2647738 0.4716991
v -0.4008441 -0.08743548 0.404808
v -0.400843 -0.2647738 0.3379177
v -0.4465305 -0.08743548 0.3591207
v -0.3339531 0.08990288 0.4048084
v -0.4008441 0.08990288 0.404808
v -0.4677337 0.08990288 0.404809
v -0.44653 -0.08743525 0.4504959
v -0.4008441 -0.2647734 0.404808
v -0.4008441 -0.08743525 0.404808
v -0.4677331 -0.2647734 0.4048084
v -0.3339531 -0.2647734 0.4048084
v -0.3551561 -0.08743525 0.3591209
v -0.4008431 0.0899024 0.4716991
v -0.4008441 0.0899024 0.404808
v -0.400843 0.0899024 0.3379177
v -0.3551569 -0.08743525 0.4504947
v -0.4008441 -0.2647736 0.404808
v -0.4008441 -0.08743525 0.404808
v -0.4008431 -0.2647736 0.4716991
v -0.400843 -0.2647736 0.3379177
v -0.4465305 -0.08743525 0.3591207
v -0.3339531 0.08990312 0.4048084
v -0.4008441 0.08990312 0.404808
v -0.4677337 0.08990312 0.404809

vn 0.9853516 -0.15979 0.05563354
vn 0.7749023 -0.1057129 0.6230469
vn 0.7041016 -0.2495117 0.6650391
vn 0.9995117 0 -0.02851868
vn 0.8266602 0.0607605 0.559082
vn 0.980957 0.15979 -0.1117554
vn 0.793457 -0.0607605 -0.6054688
vn 0.737793 0.1057129 -0.6665039
vn 0.6650391 0.2495117 -0.7041016
vn 0.05563354 -0.15979 -0.9853516
vn 0.6230469 -0.1057129 -0.7749023
vn 0.6650391 -0.2495117 -0.7041016
vn -0.02851868 0 -0.9995117
vn 0.559082 0.0607605 -0.8266602
vn -0.1117554 0.15979 -0.980957
vn -0.6054688 -0.0607605 -0.793457
vn -0.6665039 0.1057129 -0.737793
vn -0.7041016 0.2495117 -0.6650391
vn -0.9853516 0.15979 -0.05560303
vn -0.7749023 0.1057129 -0.6230469
vn -0.9995117 0 0.02853394
vn -0.7041016 0.2495117 -0.6650391
vn -0.8266602 -0.0607605 -0.559082
vn -0.980957 -0.15979 0.1117554
vn -0.793457 0.0607605 0.6054688
vn -0.737793 -0.1057129 0.6665039
vn -0.6650391 -0.2495117 0.7041016
vn -0.05560303 0.15979 0.9853516
vn -0.6230469 0.1057129 0.7749023
vn 0.02851868 0 0.9995117
vn -0.6650391 0.2495117 0.7041016
vn -0.559082 -0.0607605 0.8266602
vn 0.1117554 -0.15979 0.980957
vn 0.6054688 0.0607605 0.793457
vn 0.6665039 -0.1057129 0.737793
vn 0.7041016 -0.2495117 0.6650391

vt 0 0.5
vt 0.5 0
vt 0 0
vt 0.5 0.5
vt 1 0
vt 1 0.5
vt 0 1
vt 0.5 1
vt 1 1
vt 0 0.5
vt 0.5 0
vt 0 0
vt 0.5 0.5
vt 1 0
vt 1 0.5
vt 0 1
vt 0.5 1
vt 1 1
vt 0 0.5
vt 0.5 0
vt 0.5 0.5
vt 0 0
vt 1 0
vt 1 0.5
vt 0 1
vt 0.5 1
vt 1 1
vt 0 0.5
vt 0.5 0
vt 0.5 0.5
vt 0 0
vt 1 0
vt 1 0.5
vt 0 1
vt 0.5 1
vt 1 1

g Shelf_Preset_01_(1)_6179_35
usemtl Shelf_Preset_01_(1)_6179_35
usemap Shelf_Preset_01_(1)_6179_35
f 1/1/1 3/3/3 2/2/2
f 2/2/2 4/4/4 1/1/1
f 4/4/4 2/2/2 5/5/5
f 5/5/5 6/6/6 4/4/4
f 7/7/7 1/1/1 4/4/4
f 4/4/4 8/8/8 7/7/7
f 8/8/8 4/4/4 6/6/6
f 6/6/6 9/9/9 8/8/8
f 10/10/10 12/12/12 11/11/11
f 11/11/11 13/13/13 10/10/10
f 13/13/13 11/11/11 14/14/14
f 14/14/14 15/15/15 13/13/13
f 16/16/16 10/10/10 13/13/13
f 13/13/13 17/17/17 16/16/16
f 17/17/17 13/13/13 15/15/15
f 15/15/15 18/18/18 17/17/17
f 19/19/19 21/21/21 20/20/20
f 20/20/20 22/22/22 19/19/19
f 23/23/23 20/20/20 21/21/21
f 21/21/21 24/24/24 23/23/23
f 21/21/21 19/19/19 25/25/25
f 25/25/25 26/26/26 21/21/21
f 24/24/24 21/21/21 26/26/26
f 26/26/26 27/27/27 24/24/24
f 28/28/28 30/30/30 29/29/29
f 29/29/29 31/31/31 28/28/28
f 32/32/32 29/29/29 30/30/30
f 30/30/30 33/33/33 32/32/32
f 30/30/30 28/28/28 34/34/34
f 34/34/34 35/35/35 30/30/30
f 33/33/33 30/30/30 35/35/35
f 35/35/35 36/36/36 33/33/33
