#Shield_19lvl_(1)_2069_20.obj

v 0.2712598 -0.05102362 9.536743E-07
v 0.2791341 -0.02977377 9.536743E-07
v 0.2578853 -0.02977365 -0.1068192
v 0.250611 -0.05102348 -0.1038065
v 0.1973767 -0.02977362 -0.1973763
v 0.1918109 -0.05102362 -0.1918087
v 0.1068205 -0.02977373 -0.257885
v 0.1038064 -0.05102348 -0.2506104
v 1.608655E-07 -0.02977367 -0.2791328
v 2.382846E-07 -0.05102365 -0.2712593
v -0.1068192 -0.02977365 -0.257885
v -0.1038068 -0.05102359 -0.2506104
v -0.1973763 -0.0297736 -0.1973763
v -0.1918084 -0.05102365 -0.1918087
v -0.257885 -0.02977369 -0.1068192
v -0.2506104 -0.05102353 -0.1038065
v -0.2791328 -0.02977367 0
v -0.2712593 -0.05102349 0
v -0.257885 -0.02977369 0.1068201
v -0.2506104 -0.05102353 0.1038065
v -0.1973763 -0.0297736 0.1973772
v -0.1918086 -0.05102411 0.1918097
v -0.1068192 -0.02977365 0.257885
v -0.103807 -0.05102405 0.2506113
v 1.608655E-07 -0.02977367 0.2791328
v 1.142287E-07 -0.05102417 0.2712593
v 0.1068205 -0.02977373 0.2578859
v 0.1038082 -0.05102415 0.2506113
v 0.1973767 -0.02977362 0.1973772
v 0.1918108 -0.05102409 0.1918097
v 0.2578853 -0.02977365 0.1068201
v 0.250611 -0.05102348 0.1038065
v 0.2791341 -0.02977377 9.536743E-07
v 0.1527437 0.0567806 0
v 0.141117 0.05678059 -0.05845261
v 0.2578853 -0.02977365 -0.1068192
v 0.1080062 0.0567804 -0.1080055
v 0.1973767 -0.02977362 -0.1973763
v 0.05845295 0.05678109 -0.1411161
v 0.1068205 -0.02977373 -0.257885
v -1.277071E-07 0.05678103 -0.1527433
v 1.608655E-07 -0.02977367 -0.2791328
v -0.05845222 0.05678099 -0.1411161
v -0.1068192 -0.02977365 -0.257885
v -0.1080057 0.05678052 -0.1080055
v -0.1973763 -0.0297736 -0.1973763
v -0.1411165 0.05678057 -0.05845261
v -0.257885 -0.02977369 -0.1068192
v -0.1527431 0.05678102 0
v -0.2791328 -0.02977367 0
v -0.1411165 0.05678057 0.05845261
v -0.257885 -0.02977369 0.1068201
v -0.1080057 0.05678052 0.1080065
v -0.1973763 -0.0297736 0.1973772
v -0.05845233 0.05678053 0.1411171
v -0.1068192 -0.02977365 0.257885
v -2.379791E-07 0.05678057 0.1527433
v 1.608655E-07 -0.02977367 0.2791328
v 0.05845283 0.05678062 0.1411171
v 0.1068205 -0.02977373 0.2578859
v 0.1080062 0.0567804 0.1080065
v 0.1973767 -0.02977362 0.1973772
v 0.141117 0.05678059 0.05845261
v 0.2578853 -0.02977365 0.1068201
v -2.44875E-07 0.1000523 0
v 0.250611 -0.05102348 -0.1038065
v -2.379791E-07 0.05678057 0
v 0.2712598 -0.05102362 9.536743E-07
v 0.250611 -0.05102348 0.1038065
v 0.1918108 -0.05102409 0.1918097
v 0.1038082 -0.05102415 0.2506113
v 1.142287E-07 -0.05102417 0.2712593
v -0.103807 -0.05102405 0.2506113
v -0.1918086 -0.05102411 0.1918097
v -0.2506104 -0.05102353 0.1038065
v -0.2712593 -0.05102349 0
v -0.2506104 -0.05102353 -0.1038065
v -0.1918084 -0.05102365 -0.1918087
v -0.1038068 -0.05102359 -0.2506104
v 2.382846E-07 -0.05102365 -0.2712593
v 0.1038064 -0.05102348 -0.2506104
v 0.1918109 -0.05102362 -0.1918087
v 0.07835349 -0.0697616 0.0737257
v 0.07731089 0.02781077 0.07259464
v 0.07731301 0.02768773 0.06569481
v 0.07832097 -0.06689627 0.06678963
v 0.07850651 -0.08665257 0.06467342
v 0.07841183 -0.07976809 0.06137753
v 0.07851491 -0.08722341 -0.06083679
v 0.07841927 -0.08031004 -0.05789185
v 0.07832572 -0.06732166 -0.07394028
v 0.07828795 -0.06403296 -0.06704044
v 0.07722709 0.03504199 -0.07394028
v 0.07722709 0.03504199 -0.06704044
v 0.07832097 -0.06689627 0.06678963
v 0.07731301 0.02768773 0.06569481
v 0.04281608 0.02712231 0.06569481
v 0.04382405 -0.06746163 0.06678963
v 0.07841183 -0.07976809 0.06137753
v 0.04391499 -0.08024243 0.06137753
v 0.04382405 -0.06746163 0.06678963
v 0.04281608 0.02712231 0.06569481
v 0.04281399 0.02724546 0.07259464
v 0.04385658 -0.07032696 0.0737257
v 0.04391499 -0.08024243 0.06137753
v 0.04401059 -0.08712713 0.06467342
v 0.04392323 -0.08078513 -0.05789185
v 0.04401804 -0.08769787 -0.06083679
v 0.04379102 -0.06459838 -0.06704044
v 0.0438288 -0.06788702 -0.07394028
v 0.04273097 0.03447589 -0.06704044
v 0.04273097 0.03447589 -0.07394028
v 0.04385658 -0.07032696 0.0737257
v 0.04281399 0.02724546 0.07259464
v 0.07731089 0.02781077 0.07259464
v 0.07835349 -0.0697616 0.0737257
v 0.04401059 -0.08712713 0.06467342
v 0.07850651 -0.08665257 0.06467342
v 0.07841927 -0.08031004 -0.05789185
v 0.07841183 -0.07976809 0.06137753
v 0.04391499 -0.08024243 0.06137753
v 0.04392323 -0.08078513 -0.05789185
v 0.04401804 -0.08769787 -0.06083679
v 0.04401059 -0.08712713 0.06467342
v 0.07850651 -0.08665257 0.06467342
v 0.07851491 -0.08722341 -0.06083679
v 0.07828795 -0.06403296 -0.06704044
v 0.07841927 -0.08031004 -0.05789185
v 0.04392323 -0.08078513 -0.05789185
v 0.04379102 -0.06459838 -0.06704044
v 0.07722709 0.03504199 -0.06704044
v 0.04273097 0.03447589 -0.06704044
v 0.0438288 -0.06788702 -0.07394028
v 0.04401804 -0.08769787 -0.06083679
v 0.07851491 -0.08722341 -0.06083679
v 0.07832572 -0.06732166 -0.07394028
v 0.04273097 0.03447589 -0.07394028
v 0.07722709 0.03504199 -0.07394028
v -0.04609161 -0.0479212 0.07373238
v -0.04685896 0.02579786 0.07259369
v -0.04685672 0.02562995 0.06569576
v -0.04612486 -0.04507542 0.066782
v -0.04593794 -0.06833533 0.06467342
v -0.0460326 -0.0614508 0.06137753
v -0.04593037 -0.06890555 -0.06083679
v -0.04602518 -0.0619928 -0.05789185
v -0.04611982 -0.04549133 -0.07394028
v -0.04615747 -0.04220217 -0.06704044
v -0.04694225 0.03300654 -0.07394028
v -0.04694225 0.03300654 -0.06704044
v -0.04612486 -0.04507542 0.066782
v -0.04685672 0.02562995 0.06569576
v -0.08135363 0.02506464 0.06569576
v -0.08062086 -0.04564101 0.066782
v -0.0460326 -0.0614508 0.06137753
v -0.08052944 -0.06192514 0.06137753
v -0.08062086 -0.04564101 0.066782
v -0.08135363 0.02506464 0.06569576
v -0.08135592 0.02523232 0.07259369
v -0.08058856 -0.04848668 0.07373238
v -0.08052944 -0.06192514 0.06137753
v -0.08043575 -0.06880957 0.06467342
v -0.08052201 -0.06246708 -0.05789185
v -0.08042721 -0.06937989 -0.06083679
v -0.08065441 -0.04276765 -0.06704044
v -0.08061673 -0.04605669 -0.07394028
v -0.08143929 0.03244065 -0.06704044
v -0.08143929 0.03244065 -0.07394028
v -0.08058856 -0.04848668 0.07373238
v -0.08135592 0.02523232 0.07259369
v -0.04685896 0.02579786 0.07259369
v -0.04609161 -0.0479212 0.07373238
v -0.08043575 -0.06880957 0.06467342
v -0.04593794 -0.06833533 0.06467342
v -0.04602518 -0.0619928 -0.05789185
v -0.0460326 -0.0614508 0.06137753
v -0.08052944 -0.06192514 0.06137753
v -0.08052201 -0.06246708 -0.05789185
v -0.08042721 -0.06937989 -0.06083679
v -0.08043575 -0.06880957 0.06467342
v -0.04593794 -0.06833533 0.06467342
v -0.04593037 -0.06890555 -0.06083679
v -0.04615747 -0.04220217 -0.06704044
v -0.04602518 -0.0619928 -0.05789185
v -0.08052201 -0.06246708 -0.05789185
v -0.08065441 -0.04276765 -0.06704044
v -0.04694225 0.03300654 -0.06704044
v -0.08143929 0.03244065 -0.06704044
v -0.08061673 -0.04605669 -0.07394028
v -0.08042721 -0.06937989 -0.06083679
v -0.04593037 -0.06890555 -0.06083679
v -0.04611982 -0.04549133 -0.07394028
v -0.08143929 0.03244065 -0.07394028
v -0.04694225 0.03300654 -0.07394028

vn 0.9921875 -0.1208496 0.02804565
vn 0.9921875 -0.1208496 0.02804565
vn 0.9238281 -0.137085 -0.3574219
vn 0.9238281 -0.137085 -0.3574219
vn 0.7260742 -0.184082 -0.6625977
vn 0.7260742 -0.184082 -0.6625977
vn 0.4291992 -0.2546387 -0.8666992
vn 0.4291992 -0.2546387 -0.8666992
vn 0.07928467 -0.3378906 -0.9379883
vn 0.07928467 -0.3378906 -0.9379883
vn -0.2687988 -0.4206543 -0.8666992
vn -0.2687988 -0.4206543 -0.8666992
vn -0.5654297 -0.4912109 -0.6625977
vn -0.5654297 -0.4912109 -0.6625977
vn -0.7631836 -0.5380859 -0.3574219
vn -0.7631836 -0.5380859 -0.3574219
vn -0.831543 -0.5541992 -0.02804565
vn -0.831543 -0.5541992 -0.02804565
vn -0.7631836 -0.5380859 0.3574219
vn -0.7631836 -0.5380859 0.3574219
vn -0.5654297 -0.4912109 0.6625977
vn -0.5654297 -0.4912109 0.6625977
vn -0.2687988 -0.4206543 0.8666992
vn -0.2687988 -0.4206543 0.8666992
vn 0.07928467 -0.3378906 0.9379883
vn 0.07928467 -0.3378906 0.9379883
vn 0.4291992 -0.2546387 0.8666992
vn 0.4291992 -0.2546387 0.8666992
vn 0.7260742 -0.184082 0.6625977
vn 0.7260742 -0.184082 0.6625977
vn 0.9238281 -0.137085 0.3574219
vn 0.9238281 -0.137085 0.3574219
vn 0.3591309 0.9331055 0
vn 0.2210693 0.9750977 0
vn 0.1888428 0.9682617 -0.1638184
vn 0.3178711 0.9243164 -0.2103271
vn 0.09564209 0.9462891 -0.3093262
vn 0.197998 0.8959961 -0.3972168
vn -0.04321289 0.9130859 -0.4055176
vn 0.01914978 0.8535156 -0.5205078
vn -0.2087402 0.8735352 -0.439209
vn -0.1920166 0.8032227 -0.5634766
vn -0.3723145 0.8349609 -0.4055176
vn -0.401123 0.753418 -0.5205078
vn -0.5112305 0.8017578 -0.3093262
vn -0.5800781 0.7109375 -0.3972168
vn -0.6044922 0.7797852 -0.1638184
vn -0.699707 0.6826172 -0.2103271
vn -0.6362305 0.7714844 0
vn -0.7407227 0.671875 0
vn -0.6044922 0.7797852 0.1638184
vn -0.699707 0.6826172 0.2103271
vn -0.5112305 0.8017578 0.3093262
vn -0.5800781 0.7109375 0.3972168
vn -0.3723145 0.8349609 0.4055176
vn -0.401123 0.753418 0.5205078
vn -0.2087402 0.8735352 0.439209
vn -0.1920166 0.8032227 0.5634766
vn -0.04321289 0.9130859 0.4055176
vn 0.01914978 0.8535156 0.5205078
vn 0.09564209 0.9462891 0.3093262
vn 0.197998 0.8959961 0.3972168
vn 0.1888428 0.9682617 0.1638184
vn 0.3178711 0.9243164 0.2103271
vn -0.2321777 0.9726563 0
vn -0.1169434 -0.9833984 0.1394043
vn 0.2321777 -0.9726563 0
vn -0.1435547 -0.9897461 0
vn -0.1169434 -0.9833984 -0.1394043
vn -0.03894043 -0.9648438 -0.2602539
vn 0.0770874 -0.9370117 -0.3400879
vn 0.2159424 -0.9042969 -0.3684082
vn 0.3527832 -0.871582 -0.3400879
vn 0.4689941 -0.8442383 -0.2602539
vn 0.546875 -0.8256836 -0.1394043
vn 0.5737305 -0.8193359 0
vn 0.546875 -0.8256836 0.1394043
vn 0.4689941 -0.8442383 0.2602539
vn 0.3527832 -0.871582 0.3400879
vn 0.2139893 -0.9047852 0.3684082
vn 0.0770874 -0.9370117 0.3400879
vn -0.03894043 -0.9648438 0.2602539
vn 0.9702148 0.2416992 0
vn 0.9702148 0.2416992 0
vn 0.9702148 0.2416992 0
vn 0.9702148 0.2416992 0
vn 0.9697266 0.2436523 0
vn 0.9702148 0.2416992 0
vn 0.9697266 0.2436523 0
vn 0.9697266 0.2436523 0
vn 0.9702148 0.2416992 0
vn 0.9702148 0.2416992 0
vn 0.9702148 0.2416992 0
vn 0.9702148 0.2416992 0
vn -0.0473938 0.1866455 -0.9814453
vn 0.003437042 -0.01023865 -1
vn 0.003437042 -0.01023865 -1
vn -0.0473938 0.1866455 -0.9814453
vn -0.09448242 0.3764648 -0.9213867
vn -0.09448242 0.3764648 -0.9213867
vn -0.9702148 -0.2416992 0
vn -0.9702148 -0.2416992 0
vn -0.9702148 -0.2416992 0
vn -0.9702148 -0.2416992 0
vn -0.9702148 -0.2416992 0
vn -0.9697266 -0.2436523 0
vn -0.9697266 -0.2436523 0
vn -0.9697266 -0.2436523 0
vn -0.9702148 -0.2416992 0
vn -0.9702148 -0.2416992 0
vn -0.9702148 -0.2416992 0
vn -0.9702148 -0.2416992 0
vn 0.05822754 -0.2322998 0.9707031
vn -0.003437042 0.01023865 1
vn -0.003437042 0.01023865 1
vn 0.05780029 -0.2304688 0.9711914
vn 0.116272 -0.4597168 0.8803711
vn 0.116272 -0.4597168 0.8803711
vn -0.2454834 0.9692383 0
vn -0.2454834 0.9692383 0
vn -0.2454834 0.9692383 0
vn -0.2454834 0.9692383 0
vn 0.2454834 -0.9692383 0
vn 0.2454834 -0.9692383 0
vn 0.2454834 -0.9692383 0
vn 0.2454834 -0.9692383 0
vn -0.06140137 0.2456055 0.9672852
vn -0.1203613 0.4768066 0.8706055
vn -0.1203613 0.4768066 0.8706055
vn -0.06185913 0.2475586 0.9667969
vn -0.001176834 0.0007247925 1
vn -0.001176834 0.0007247925 1
vn 0.07147217 -0.279541 -0.9575195
vn 0.1358643 -0.5332031 -0.8349609
vn 0.1358643 -0.5332031 -0.8349609
vn 0.07098389 -0.2775879 -0.9580078
vn -0.001176834 0.0007247925 -1
vn -0.001176834 0.0007247925 -1
vn 0.9707031 0.2397461 0
vn 0.9702148 0.2416992 0
vn 0.9702148 0.2416992 0
vn 0.9707031 0.2397461 0
vn 0.9702148 0.2416992 0
vn 0.9702148 0.2416992 0
vn 0.9697266 0.2436523 0
vn 0.9702148 0.2416992 0
vn 0.9702148 0.2416992 0
vn 0.9702148 0.2416992 0
vn 0.9702148 0.2416992 0
vn 0.9702148 0.2416992 0
vn -0.03790283 0.1467285 -0.9882813
vn 0.004341125 -0.01403809 -1
vn 0.004341125 -0.01403809 -1
vn -0.03790283 0.1467285 -0.9882813
vn -0.07733154 0.3041992 -0.949707
vn -0.07733154 0.3041992 -0.949707
vn -0.9707031 -0.2397461 0
vn -0.9702148 -0.2416992 0
vn -0.9702148 -0.2416992 0
vn -0.9707031 -0.2397461 0
vn -0.9702148 -0.2416992 0
vn -0.9702148 -0.2416992 0
vn -0.9702148 -0.2416992 0
vn -0.9697266 -0.2436523 0
vn -0.9702148 -0.2416992 0
vn -0.9702148 -0.2416992 0
vn -0.9702148 -0.2416992 0
vn -0.9702148 -0.2416992 0
vn 0.04919434 -0.1943359 0.9794922
vn -0.004341125 0.01403809 1
vn -0.004341125 0.01403809 1
vn 0.04873657 -0.1923828 0.9799805
vn 0.1004639 -0.3930664 0.9140625
vn 0.1004639 -0.3930664 0.9140625
vn -0.2454834 0.9692383 0
vn -0.2454834 0.9692383 0
vn -0.2454834 0.9692383 0
vn -0.2454834 0.9692383 0
vn 0.2454834 -0.9692383 0
vn 0.2454834 -0.9692383 0
vn 0.2454834 -0.9692383 0
vn 0.2454834 -0.9692383 0
vn -0.05236816 0.2076416 0.9770508
vn -0.1040649 0.4082031 0.9067383
vn -0.1040649 0.4082031 0.9067383
vn -0.05282593 0.2094727 0.9765625
vn -0.0007247925 -0.001176834 1
vn -0.0007247925 -0.001176834 1
vn 0.06140137 -0.2456055 -0.9672852
vn 0.1199341 -0.4748535 -0.8720703
vn 0.1199341 -0.4748535 -0.8720703
vn 0.0609436 -0.2437744 -0.9677734
vn 0.001176834 -0.0007247925 -1
vn 0.001176834 -0.0007247925 -1

vt 0.8295898 0.8774414
vt 0.8261719 0.8774414
vt 0.8217773 0.8989258
vt 0.8251953 0.9003906
vt 0.8095703 0.9174805
vt 0.8120117 0.9199219
vt 0.7915039 0.9296875
vt 0.7924805 0.9326172
vt 0.7700195 0.934082
vt 0.7700195 0.9370117
vt 0.7915039 0.9296875
vt 0.7924805 0.9326172
vt 0.8095703 0.9174805
vt 0.8120117 0.9199219
vt 0.8217773 0.8989258
vt 0.8251953 0.9003906
vt 0.8261719 0.8774414
vt 0.8295898 0.8774414
vt 0.8217773 0.8989258
vt 0.8251953 0.9003906
vt 0.8095703 0.9174805
vt 0.8120117 0.9199219
vt 0.7915039 0.9296875
vt 0.7924805 0.9326172
vt 0.7700195 0.934082
vt 0.7700195 0.9370117
vt 0.7915039 0.9296875
vt 0.7924805 0.9326172
vt 0.8095703 0.9174805
vt 0.8120117 0.9199219
vt 0.8217773 0.8989258
vt 0.8251953 0.9003906
vt 0.8261719 0.8774414
vt 0.7988281 0.8774414
vt 0.796875 0.8886719
vt 0.8217773 0.8989258
vt 0.7905273 0.8979492
vt 0.8095703 0.9174805
vt 0.7807617 0.9042969
vt 0.7915039 0.9296875
vt 0.7700195 0.9067383
vt 0.7700195 0.934082
vt 0.7807617 0.9042969
vt 0.7915039 0.9296875
vt 0.7905273 0.8979492
vt 0.8095703 0.9174805
vt 0.796875 0.8886719
vt 0.8217773 0.8989258
vt 0.7988281 0.8774414
vt 0.8261719 0.8774414
vt 0.796875 0.8886719
vt 0.8217773 0.8989258
vt 0.7905273 0.8979492
vt 0.8095703 0.9174805
vt 0.7807617 0.9042969
vt 0.7915039 0.9296875
vt 0.7700195 0.9067383
vt 0.7700195 0.934082
vt 0.7807617 0.9042969
vt 0.7915039 0.9296875
vt 0.7905273 0.8979492
vt 0.8095703 0.9174805
vt 0.796875 0.8886719
vt 0.8217773 0.8989258
vt 0.7700195 0.8774414
vt 0.8271484 0.8989258
vt 0.8564453 0.9111328
vt 0.824707 0.9111328
vt 0.8271484 0.8989258
vt 0.8339844 0.8886719
vt 0.8442383 0.8818359
vt 0.8564453 0.8789063
vt 0.8442383 0.8818359
vt 0.8339844 0.8886719
vt 0.8271484 0.8989258
vt 0.824707 0.9111328
vt 0.8271484 0.8989258
vt 0.8339844 0.8886719
vt 0.8442383 0.8818359
vt 0.8564453 0.8789063
vt 0.8442383 0.8818359
vt 0.8339844 0.8886719
vt 0.1494141 0.3710938
vt 0.1585693 0.3710938
vt 0.1585693 0.3703613
vt 0.1494141 0.3703613
vt 0.1480713 0.3710938
vt 0.1480713 0.3703613
vt 0.1330566 0.3710938
vt 0.1330566 0.3703613
vt 0.1311035 0.3710938
vt 0.1311035 0.3703613
vt 0.121521 0.3710938
vt 0.121521 0.3703613
vt 0.1494141 0.3703613
vt 0.1585693 0.3703613
vt 0.1585693 0.3669434
vt 0.1494141 0.3669434
vt 0.1480713 0.3703613
vt 0.1480713 0.3669434
vt 0.1494141 0.3669434
vt 0.1585693 0.3669434
vt 0.1585693 0.3664551
vt 0.1494141 0.3664551
vt 0.1480713 0.3669434
vt 0.1480713 0.3664551
vt 0.1330566 0.3669434
vt 0.1330566 0.3664551
vt 0.1311035 0.3669434
vt 0.1311035 0.3664551
vt 0.121521 0.3669434
vt 0.121521 0.3664551
vt 0.1494141 0.3664551
vt 0.1585693 0.3664551
vt 0.1585693 0.3630371
vt 0.1494141 0.3630371
vt 0.1480713 0.3664551
vt 0.1480713 0.3630371
vt 0.1330566 0.3703613
vt 0.1480713 0.3703613
vt 0.1480713 0.3669434
vt 0.1330566 0.3669434
vt 0.1330566 0.3664551
vt 0.1480713 0.3664551
vt 0.1480713 0.3630371
vt 0.1330566 0.3630371
vt 0.1311035 0.3703613
vt 0.1330566 0.3703613
vt 0.1330566 0.3669434
vt 0.1311035 0.3669434
vt 0.121521 0.3703613
vt 0.121521 0.3669434
vt 0.1311035 0.3664551
vt 0.1330566 0.3664551
vt 0.1330566 0.3630371
vt 0.1311035 0.3630371
vt 0.121521 0.3664551
vt 0.121521 0.3630371
vt 0.1437988 0.3713379
vt 0.1505127 0.3713379
vt 0.1505127 0.3706055
vt 0.1437988 0.3706055
vt 0.1424561 0.3713379
vt 0.1424561 0.3706055
vt 0.1274414 0.3713379
vt 0.1274414 0.3706055
vt 0.1254883 0.3713379
vt 0.1254883 0.3706055
vt 0.1184082 0.3713379
vt 0.1184082 0.3706055
vt 0.1437988 0.3706055
vt 0.1505127 0.3706055
vt 0.1505127 0.3671875
vt 0.1437988 0.3671875
vt 0.1424561 0.3706055
vt 0.1424561 0.3671875
vt 0.1437988 0.3671875
vt 0.1505127 0.3671875
vt 0.1505127 0.3664551
vt 0.1437988 0.3664551
vt 0.1424561 0.3671875
vt 0.1424561 0.3664551
vt 0.1274414 0.3671875
vt 0.1274414 0.3664551
vt 0.1254883 0.3671875
vt 0.1254883 0.3664551
vt 0.1184082 0.3671875
vt 0.1184082 0.3664551
vt 0.1437988 0.3664551
vt 0.1505127 0.3664551
vt 0.1505127 0.3630371
vt 0.1437988 0.3630371
vt 0.1424561 0.3664551
vt 0.1424561 0.3630371
vt 0.1274414 0.3706055
vt 0.1424561 0.3706055
vt 0.1424561 0.3671875
vt 0.1274414 0.3671875
vt 0.1274414 0.3664551
vt 0.1424561 0.3664551
vt 0.1424561 0.3630371
vt 0.1274414 0.3630371
vt 0.1254883 0.3706055
vt 0.1274414 0.3706055
vt 0.1274414 0.3671875
vt 0.1254883 0.3671875
vt 0.1184082 0.3706055
vt 0.1184082 0.3671875
vt 0.1254883 0.3664551
vt 0.1274414 0.3664551
vt 0.1274414 0.3630371
vt 0.1254883 0.3630371
vt 0.1184082 0.3664551
vt 0.1184082 0.3630371

g Shield_19lvl_(1)_2069_20
usemtl Shield_19lvl_(1)_2069_20
usemap Shield_19lvl_(1)_2069_20
f 1/1/1 3/3/3 2/2/2
f 1/1/1 4/4/4 3/3/3
f 4/4/4 5/5/5 3/3/3
f 4/4/4 6/6/6 5/5/5
f 6/6/6 7/7/7 5/5/5
f 6/6/6 8/8/8 7/7/7
f 8/8/8 9/9/9 7/7/7
f 8/8/8 10/10/10 9/9/9
f 10/10/10 11/11/11 9/9/9
f 10/10/10 12/12/12 11/11/11
f 12/12/12 13/13/13 11/11/11
f 12/12/12 14/14/14 13/13/13
f 14/14/14 15/15/15 13/13/13
f 14/14/14 16/16/16 15/15/15
f 16/16/16 17/17/17 15/15/15
f 16/16/16 18/18/18 17/17/17
f 18/18/18 19/19/19 17/17/17
f 18/18/18 20/20/20 19/19/19
f 20/20/20 21/21/21 19/19/19
f 20/20/20 22/22/22 21/21/21
f 22/22/22 23/23/23 21/21/21
f 22/22/22 24/24/24 23/23/23
f 24/24/24 25/25/25 23/23/23
f 24/24/24 26/26/26 25/25/25
f 26/26/26 27/27/27 25/25/25
f 26/26/26 28/28/28 27/27/27
f 28/28/28 29/29/29 27/27/27
f 28/28/28 30/30/30 29/29/29
f 30/30/30 31/31/31 29/29/29
f 30/30/30 32/32/32 31/31/31
f 32/32/32 2/2/2 31/31/31
f 32/32/32 1/1/1 2/2/2
f 33/33/33 35/35/35 34/34/34
f 33/33/33 36/36/36 35/35/35
f 36/36/36 37/37/37 35/35/35
f 36/36/36 38/38/38 37/37/37
f 38/38/38 39/39/39 37/37/37
f 38/38/38 40/40/40 39/39/39
f 40/40/40 41/41/41 39/39/39
f 40/40/40 42/42/42 41/41/41
f 42/42/42 43/43/43 41/41/41
f 42/42/42 44/44/44 43/43/43
f 44/44/44 45/45/45 43/43/43
f 44/44/44 46/46/46 45/45/45
f 46/46/46 47/47/47 45/45/45
f 46/46/46 48/48/48 47/47/47
f 48/48/48 49/49/49 47/47/47
f 48/48/48 50/50/50 49/49/49
f 50/50/50 51/51/51 49/49/49
f 50/50/50 52/52/52 51/51/51
f 52/52/52 53/53/53 51/51/51
f 52/52/52 54/54/54 53/53/53
f 54/54/54 55/55/55 53/53/53
f 54/54/54 56/56/56 55/55/55
f 56/56/56 57/57/57 55/55/55
f 56/56/56 58/58/58 57/57/57
f 58/58/58 59/59/59 57/57/57
f 58/58/58 60/60/60 59/59/59
f 60/60/60 61/61/61 59/59/59
f 60/60/60 62/62/62 61/61/61
f 62/62/62 63/63/63 61/61/61
f 62/62/62 64/64/64 63/63/63
f 64/64/64 34/34/34 63/63/63
f 64/64/64 33/33/33 34/34/34
f 53/53/53 65/65/65 51/51/51
f 55/55/55 65/65/65 53/53/53
f 57/57/57 65/65/65 55/55/55
f 59/59/59 65/65/65 57/57/57
f 61/61/61 65/65/65 59/59/59
f 63/63/63 65/65/65 61/61/61
f 34/34/34 65/65/65 63/63/63
f 35/35/35 65/65/65 34/34/34
f 37/37/37 65/65/65 35/35/35
f 39/39/39 65/65/65 37/37/37
f 41/41/41 65/65/65 39/39/39
f 43/43/43 65/65/65 41/41/41
f 45/45/45 65/65/65 43/43/43
f 47/47/47 65/65/65 45/45/45
f 49/49/49 65/65/65 47/47/47
f 51/51/51 65/65/65 49/49/49
f 66/66/66 68/68/68 67/67/67
f 68/68/68 69/69/69 67/67/67
f 69/69/69 70/70/70 67/67/67
f 70/70/70 71/71/71 67/67/67
f 71/71/71 72/72/72 67/67/67
f 72/72/72 73/73/73 67/67/67
f 73/73/73 74/74/74 67/67/67
f 74/74/74 75/75/75 67/67/67
f 75/75/75 76/76/76 67/67/67
f 76/76/76 77/77/77 67/67/67
f 77/77/77 78/78/78 67/67/67
f 78/78/78 79/79/79 67/67/67
f 79/79/79 80/80/80 67/67/67
f 80/80/80 81/81/81 67/67/67
f 81/81/81 82/82/82 67/67/67
f 82/82/82 66/66/66 67/67/67
f 83/83/83 85/85/85 84/84/84
f 83/83/83 86/86/86 85/85/85
f 87/87/87 86/86/86 83/83/83
f 87/87/87 88/88/88 86/86/86
f 89/89/89 88/88/88 87/87/87
f 89/89/89 90/90/90 88/88/88
f 91/91/91 90/90/90 89/89/89
f 91/91/91 92/92/92 90/90/90
f 93/93/93 92/92/92 91/91/91
f 93/93/93 94/94/94 92/92/92
f 95/95/95 97/97/97 96/96/96
f 95/95/95 98/98/98 97/97/97
f 99/99/99 98/98/98 95/95/95
f 99/99/99 100/100/100 98/98/98
f 101/101/101 103/103/103 102/102/102
f 101/101/101 104/104/104 103/103/103
f 105/105/105 104/104/104 101/101/101
f 105/105/105 106/106/106 104/104/104
f 107/107/107 106/106/106 105/105/105
f 107/107/107 108/108/108 106/106/106
f 109/109/109 108/108/108 107/107/107
f 109/109/109 110/110/110 108/108/108
f 111/111/111 110/110/110 109/109/109
f 111/111/111 112/112/112 110/110/110
f 113/113/113 115/115/115 114/114/114
f 113/113/113 116/116/116 115/115/115
f 117/117/117 116/116/116 113/113/113
f 117/117/117 118/118/118 116/116/116
f 119/119/119 121/121/121 120/120/120
f 119/119/119 122/122/122 121/121/121
f 123/123/123 125/125/125 124/124/124
f 123/123/123 126/126/126 125/125/125
f 127/127/127 129/129/129 128/128/128
f 127/127/127 130/130/130 129/129/129
f 131/131/131 130/130/130 127/127/127
f 131/131/131 132/132/132 130/130/130
f 133/133/133 135/135/135 134/134/134
f 133/133/133 136/136/136 135/135/135
f 137/137/137 136/136/136 133/133/133
f 137/137/137 138/138/138 136/136/136
f 139/139/139 141/141/141 140/140/140
f 139/139/139 142/142/142 141/141/141
f 143/143/143 142/142/142 139/139/139
f 143/143/143 144/144/144 142/142/142
f 145/145/145 144/144/144 143/143/143
f 145/145/145 146/146/146 144/144/144
f 147/147/147 146/146/146 145/145/145
f 147/147/147 148/148/148 146/146/146
f 149/149/149 148/148/148 147/147/147
f 149/149/149 150/150/150 148/148/148
f 151/151/151 153/153/153 152/152/152
f 151/151/151 154/154/154 153/153/153
f 155/155/155 154/154/154 151/151/151
f 155/155/155 156/156/156 154/154/154
f 157/157/157 159/159/159 158/158/158
f 157/157/157 160/160/160 159/159/159
f 161/161/161 160/160/160 157/157/157
f 161/161/161 162/162/162 160/160/160
f 163/163/163 162/162/162 161/161/161
f 163/163/163 164/164/164 162/162/162
f 165/165/165 164/164/164 163/163/163
f 165/165/165 166/166/166 164/164/164
f 167/167/167 166/166/166 165/165/165
f 167/167/167 168/168/168 166/166/166
f 169/169/169 171/171/171 170/170/170
f 169/169/169 172/172/172 171/171/171
f 173/173/173 172/172/172 169/169/169
f 173/173/173 174/174/174 172/172/172
f 175/175/175 177/177/177 176/176/176
f 175/175/175 178/178/178 177/177/177
f 179/179/179 181/181/181 180/180/180
f 179/179/179 182/182/182 181/181/181
f 183/183/183 185/185/185 184/184/184
f 183/183/183 186/186/186 185/185/185
f 187/187/187 186/186/186 183/183/183
f 187/187/187 188/188/188 186/186/186
f 189/189/189 191/191/191 190/190/190
f 189/189/189 192/192/192 191/191/191
f 193/193/193 192/192/192 189/189/189
f 193/193/193 194/194/194 192/192/192
