#Stairs_Spiral_1_Trigger_6_1603_12.obj

v -4.208024 -1.764171 2.889874
v -4.405154 -1.203102 2.697257
v -2.864635 -0.7708973 2.697257
v -2.735719 -1.137818 2.889874
v -2.945176 -0.3919453 2.503897
v -4.528312 -0.6236368 2.503897
v -2.979716 0.001319779 2.312838
v -4.579714 -0.00131872 2.312855
v -4.208024 -1.764171 2.889874
v -4.208024 -1.764171 -7.701301E-05
v -4.405154 -1.203103 -7.709492E-05
v -4.405154 -1.203102 2.697257
v -4.528312 -0.6236373 -7.71795E-05
v -4.528312 -0.6236368 2.503897
v -4.579714 -0.00131872 -7.727034E-05
v -4.579714 -0.00131872 2.312855
v -2.864635 -0.7708973 2.697257
v -2.864635 -0.7708979 -7.7158E-05
v -2.735719 -1.137818 -7.710444E-05
v -2.735719 -1.137818 2.889874
v -2.945176 -0.3919453 2.503897
v -2.945176 -0.3919453 -7.721332E-05
v -2.979716 0.001319779 2.312838
v -2.979716 0.001319779 -7.727073E-05
v -2.735719 -1.137818 -7.710444E-05
v -2.864635 -0.7708979 -7.7158E-05
v -4.405154 -1.203103 -7.709492E-05
v -4.208024 -1.764171 -7.701301E-05
v -4.528312 -0.6236373 -7.71795E-05
v -2.945176 -0.3919453 -7.721332E-05
v -2.979716 0.001319779 -7.727073E-05
v -4.579714 -0.00131872 -7.727034E-05
v -2.979716 0.001319779 -7.727073E-05
v -2.979716 0.001319779 2.312838
v -4.579714 -0.00131872 2.312855
v -4.579714 -0.00131872 -7.727034E-05
v -4.208024 -1.764171 -7.701301E-05
v -4.208024 -1.764171 2.889874
v -2.735719 -1.137818 2.889874
v -2.735719 -1.137818 -7.710444E-05

vn -0.1010132 0.9526367 -0.2873535
vn -0.08239746 0.9521484 -0.2937012
vn -0.08239746 0.9521484 -0.2937012
vn -0.1010132 0.9526367 -0.2873535
vn -0.04266357 0.9541016 -0.2961426
vn -0.04260254 0.9541016 -0.2961426
vn -0.02148438 0.9560547 -0.2919922
vn -0.02148438 0.9560547 -0.2919922
vn -0.9433594 5.960464E-08 0.331543
vn -0.9433594 5.960464E-08 0.331543
vn -0.9628906 5.960464E-08 0.2702637
vn -0.9594727 5.960464E-08 0.2827148
vn -0.9892578 0 0.1453857
vn -0.9873047 0 0.1575928
vn -0.996582 0 0.08233643
vn -0.996582 0 0.08233643
vn 0.9575195 -5.960464E-08 -0.2883301
vn 0.9628906 -5.960464E-08 -0.2702637
vn 0.9433594 -5.960464E-08 -0.331543
vn 0.9433594 -5.960464E-08 -0.331543
vn 0.9863281 0 -0.1654053
vn 0.9887695 0 -0.1479492
vn 0.9960938 0 -0.08746338
vn 0.9960938 0 -0.08746338
vn 0 -1 1.192093E-07
vn 0 -1 1.192093E-07
vn 0 -1 1.192093E-07
vn 0 -1 1.192093E-07
vn 0 -1 1.192093E-07
vn 0 -1 1.192093E-07
vn 0 -1 1.192093E-07
vn 0 -1 1.192093E-07
vn -0.001648903 -1.192093E-07 -1
vn -0.001648903 -1.192093E-07 -1
vn -0.001648903 -1.192093E-07 -1
vn -0.001648903 -1.192093E-07 -1
vn 0.3913574 1.192093E-07 0.9204102
vn 0.3913574 1.192093E-07 0.9204102
vn 0.3913574 1.192093E-07 0.9204102
vn 0.3913574 1.192093E-07 0.9204102

vt 0.08111572 0.3071289
vt 0.03811646 0.3684082
vt 0.3742676 0.4157715
vt 0.4025879 0.3757324
vt 0.3566895 0.4570313
vt 0.01122284 0.4318848
vt 0.3493652 0.5
vt 1.788139E-07 0.4997559
vt 0.6928711 0.6245117
vt 0.6928711 1.192093E-07
vt 0.6313477 1.192093E-07
vt 0.6313477 0.5830078
vt 0.5683594 1.192093E-07
vt 0.5683594 0.5415039
vt 0.5004883 1.192093E-07
vt 0.5004883 0.5
vt 0.4157715 0.5830078
vt 0.4157715 1.192093E-07
vt 0.3757324 1.192093E-07
vt 0.3757324 0.6245117
vt 0.4570313 0.5415039
vt 0.4570313 1.192093E-07
vt 0.5 0.5
vt 0.5 1.192093E-07
vt 0.5976563 0.3757324
vt 0.6254883 0.4157715
vt 0.9619141 0.3684082
vt 0.9189453 0.3071289
vt 0.9887695 0.4318848
vt 0.6430664 0.4570313
vt 0.6508789 0.5
vt 1 0.4997559
vt 0.6508789 1.192093E-07
vt 0.6508789 0.5
vt 1 0.5
vt 1 1.192093E-07
vt 0.08111572 1.192093E-07
vt 0.08111572 0.6245117
vt 0.4025879 0.6245117
vt 0.4025879 1.192093E-07

g Stairs_Spiral_1_Trigger_6_1603_12
usemtl Stairs_Spiral_1_Trigger_6_1603_12
usemap Stairs_Spiral_1_Trigger_6_1603_12
f 1/1/1 3/3/3 2/2/2
f 1/1/1 4/4/4 3/3/3
f 2/2/2 3/3/3 5/5/5
f 2/2/2 5/5/5 6/6/6
f 6/6/6 5/5/5 7/7/7
f 6/6/6 7/7/7 8/8/8
f 9/9/9 11/11/11 10/10/10
f 9/9/9 12/12/12 11/11/11
f 12/12/12 13/13/13 11/11/11
f 12/12/12 14/14/14 13/13/13
f 14/14/14 15/15/15 13/13/13
f 14/14/14 16/16/16 15/15/15
f 17/17/17 19/19/19 18/18/18
f 17/17/17 20/20/20 19/19/19
f 21/21/21 17/17/17 18/18/18
f 21/21/21 18/18/18 22/22/22
f 23/23/23 21/21/21 22/22/22
f 23/23/23 22/22/22 24/24/24
f 25/25/25 27/27/27 26/26/26
f 25/25/25 28/28/28 27/27/27
f 26/26/26 27/27/27 29/29/29
f 26/26/26 29/29/29 30/30/30
f 31/31/31 30/30/30 29/29/29
f 31/31/31 29/29/29 32/32/32
f 33/33/33 35/35/35 34/34/34
f 33/33/33 36/36/36 35/35/35
f 37/37/37 39/39/39 38/38/38
f 37/37/37 40/40/40 39/39/39
